<?xml version="1.0" encoding="utf-8"?>
<!-- Generator: Adobe Illustrator 22.0.1, SVG Export Plug-In . SVG Version: 6.00 Build 0)  -->
<svg version="1.1" id="Layer_1" xmlns="http://www.w3.org/2000/svg" xmlns:xlink="http://www.w3.org/1999/xlink" x="0px" y="0px"
	 viewBox="0 0 1080 1080" style="enable-background:new 0 0 1080 1080;" xml:space="preserve">
<style type="text/css">
	.st0{fill:none;}
</style>
<g>
	<path d="M763.3,792c-148.7,0-297.4,0-446.1,0c-4.3-2-8-4.5-8.8-9.7c-1.1-7.4,2.4-11.8,11.7-14.4c0-2,0-4.1,0-6.2
		c0-106.6,0-213.3,0-319.9c0-10.4,3.1-14,13.3-16c13.9-2.6,27.9-5.4,42.1-8.2c0-2.3,0-4.2,0-6.2c0-27.9,0-55.8,0-83.7
		c0-8.5,3.5-12.6,11.8-14.3c37.9-7.4,75.8-15,113.7-22.3c7.5-1.4,15.6-4.1,22.7-2.7C576,298.8,628.2,310,680.3,321
		c9.3,2,12,5.6,12,15c0,37.1,0,74.2,0,111.2c0,1.9,0,3.8,0,5.6c19.8,4.2,38.8,8.2,57.9,12.2c5.7,1.2,8.8,4.7,9.4,10.4
		c0.2,2.1,0.2,4.3,0.2,6.4c0,93,0,186.1,0,279.1c0,2.3,0,4.6,0,6.7c7.3,2.3,10,4.4,11.3,8.8C773.1,782.9,771,787,763.3,792z
		 M440.4,429.4c-1.8,0.1-3.1,0.1-4.4,0.4c-29.1,5.7-58.1,11.6-87.2,17.2c-4.2,0.8-5.2,2.2-5.2,6.2c0.1,103.2,0.1,206.4,0.1,309.6
		c0,1.7,0,3.4,0,5.1c32.6,0,64.5,0,96.4,0c0-31.5,0-62.7,0-94.4c-9.6,1.9-18.8,3.8-28.1,5.7c-15.7,3.2-31.4,6.5-47.1,9.6
		c-6.4,1.2-11.5-2.6-12.1-8.4c-0.6-5.4,3.3-9.7,10.2-11.2c16.5-3.4,33-6.7,49.5-10.1c9.2-1.9,18.4-3.9,27.3-5.8
		c0-14.2,0-27.6,0-41.4c-24.8,5.1-49.1,10.1-73.4,15.2c-6.7,1.4-12.1-1.5-13.4-7.4c-1.2-5.4,2.5-10.3,9.1-11.8
		c9.4-2.1,18.9-3.9,28.3-5.9c16.5-3.4,32.9-6.8,49.5-10.3c0-13.9,0-27.4,0-41.3c-1.9,0.3-3.5,0.6-5.1,0.9
		c-22.6,4.7-45.2,9.4-67.8,14c-7.5,1.5-12.6-1.2-13.9-7.2c-1.3-5.8,2.6-10.6,9.9-12.1c16.5-3.4,33-6.7,49.5-10.1
		c9.2-1.9,18.4-3.9,27.5-5.9c0-14.1,0-27.5,0-41.3c-10.5,2.2-20.7,4.2-30.9,6.4c-14.6,3-29.1,6.1-43.7,9.1c-5.8,1.2-10.9-2-12.1-7.3
		c-1.2-5.2,1.7-10,7.2-11.7c1.9-0.6,3.8-0.8,5.8-1.2c23.5-4.9,47.1-9.8,70.6-14.8c1.2-0.3,3.2-1.7,3.2-2.6
		C440.5,454.2,440.4,441.9,440.4,429.4z M464.8,767.9c90.5,0,180.6,0,270.8,0c0-12.8,0-25.2,0-38c-90.2-18.8-180.3-37.6-270.8-56.5
		C464.8,705.3,464.8,736.5,464.8,767.9z M668,447.5c0.2-1.2,0.4-1.8,0.4-2.5c0-33,0-65.9,0.1-98.9c0-3.1-1.6-3.7-4.1-4.2
		c-24.7-5.1-49.3-10.3-74-15.5c-19.4-4-38.7-8-58.4-12.1c-0.1,1.6-0.3,2.8-0.3,4.1c0,32.1,0,64.3-0.1,96.4c0,3.4,1.4,4.4,4.4,5
		c22.9,4.7,45.8,9.6,68.7,14.4C625.6,438.6,646.6,443,668,447.5z M735.6,668.3c-90.4-18.8-180.4-37.6-271.1-56.5
		c0,13.5-0.1,26.4,0.2,39.4c0,1,2.2,2.6,3.6,2.9c9.4,2.1,18.9,4,28.3,6c70.5,14.7,140.9,29.4,211.4,44c9.1,1.9,18.2,3.7,27.6,5.6
		C735.6,695.7,735.6,682.3,735.6,668.3z M464.5,488.7c0,13.4-0.1,26.3,0.2,39.2c0,1.1,2.2,2.7,3.5,3c11.3,2.5,22.7,4.8,34.1,7.2
		c64.8,13.6,129.6,27.2,194.4,40.8c12.9,2.7,25.8,5.4,39.1,8.2c0-13.4,0.1-26.1-0.1-38.9c0-1.1-1.9-2.9-3.2-3.2
		c-8-1.9-16-3.4-24-5.1c-63.4-13.3-126.7-26.6-190.1-39.9C500.6,496.2,482.9,492.5,464.5,488.7z M735.7,607.1
		c-90.4-19-180.4-37.9-271.2-56.9c0,13.8-0.1,26.7,0.1,39.6c0,0.9,2.1,2.2,3.4,2.4c12.3,2.7,24.6,5.3,37,7.8
		c65.4,13.6,130.7,27.3,196.1,40.9c11.4,2.4,22.9,4.7,34.6,7.1C735.7,634.2,735.7,621,735.7,607.1z M464.5,429.1
		c0,12.9-0.1,25,0.1,37.1c0,1,1.8,2.5,3,2.8c7.5,1.8,15,3.3,22.5,4.9c71.4,15,142.8,30,214.1,44.9c10.3,2.2,20.7,4.3,31.3,6.5
		c0-13.4,0-26.3,0-39.3C645.2,467.1,555.2,448.2,464.5,429.1z M507.3,413.7c0-33.4,0-66.3,0-99.7c-36.2,7.1-71.9,14.1-107.7,21.1
		c0,25.9,0,51.5,0,77.5c12.5-2.4,24.7-5,36.9-7.1c7.6-1.4,15.1-3.7,23.2-1.8C475.3,407.5,491.1,410.4,507.3,413.7z"/>
	<path d="M559.2,362.5c10.4,2.1,20.8,4.2,31.2,6.3c17.1,3.5,34.3,7.1,51.4,10.7c7,1.5,10.8,6.2,9.6,11.9c-1.2,5.9-6.5,8.9-13.3,7.5
		c-9.1-1.8-18.2-3.8-27.4-5.7c-17.6-3.6-35.2-7.2-52.8-10.9c-5.7-1.2-9-4.6-9.2-9.3c-0.1-4.5,1.8-7.9,6.2-9.6
		C556.2,362.8,557.8,362.7,559.2,362.5z"/>
</g>
</svg>
