<?xml version="1.0" encoding="utf-8"?>
<!-- Generator: Adobe Illustrator 22.0.1, SVG Export Plug-In . SVG Version: 6.00 Build 0)  -->
<svg version="1.1" id="Layer_1" xmlns="http://www.w3.org/2000/svg" xmlns:xlink="http://www.w3.org/1999/xlink" x="0px" y="0px"
	 viewBox="0 0 1080 1080" style="enable-background:new 0 0 1080 1080;" xml:space="preserve">
<style type="text/css">
	.st0{fill:none;}
</style>
<g>
	<path d="M707.7,408.2c0,67.3,0,133.7,0,200.9c4.7-2.5,9-4.6,13.1-7c12.1-7,25-10.5,38.9-10.1c6.1,0.2,10.4,4.3,10.5,10.1
		c0.2,6-4,10.7-10.3,10.8c-12.3,0.1-23.1,4.1-33.5,10.3c-19.8,11.9-41.1,13.8-62.9,7.4c-7.4-2.2-14.4-6.1-21.2-9.8
		c-19.3-10.4-38.8-11.1-57.7,0.1c-21.4,12.7-43.7,16.7-67.7,9.8c-6.4-1.9-12.6-5-18.5-8.4c-21.2-12.3-42.3-12.7-63.3,0
		c-14.1,8.6-29.4,12.3-45.9,11.7c-12.3-0.5-23.8-3.6-34.2-9.9c-11.1-6.7-22.7-11.2-35.9-11.2c-5.6,0-9.5-4.9-9.5-10.5
		c0.1-5.8,4.3-10.1,10.3-10.3c13.4-0.4,25.9,2.7,37.6,9.2c4.7,2.6,9.4,5.1,14.6,7.9c0-67.2,0-133.6,0-200.5c-1.3,0.6-2.6,1-3.7,1.6
		c-7,4-13.8,8.1-20.8,12c-6.6,3.7-12.7,2.4-15.8-3.3c-3-5.5-1.1-11.2,5.2-14.9c24.8-14.5,49.7-28.8,74.6-43.2
		c40.1-23.2,80.3-46.3,120.3-69.7c5.7-3.3,10.4-3.3,16,0c19,11.3,38.3,22.2,57.4,33.3c2.2,1.3,4.5,2.6,7.8,4.5c0-6.3,0-11.7,0-17.1
		c0-9.5,3.5-13,12.9-13c12.6,0,25.1,0,37.7,0c8.4,0,12.2,3.8,12.2,12c0,16.6,0.1,33.2-0.1,49.7c-0.1,3.7,1.3,5.5,4.3,7.3
		c20,11.4,39.8,23,59.7,34.5c1.7,1,3.4,1.9,4.9,3c4.6,3.4,5.9,9.1,3.1,13.9c-2.8,4.7-8.6,6.7-13.6,4c-6.6-3.5-13-7.4-19.5-11.1
		C712.8,411,710.6,409.8,707.7,408.2z M686.6,614.3c0-4,0-5.9,0-7.8c0-68.2,0-136.4,0.1-204.6c0-4.4-1.2-6.8-5.1-9
		c-45.9-26.4-91.7-52.9-137.5-79.6c-3.2-1.9-5.4-1.6-8.4,0.1c-45.9,26.7-91.9,53.3-137.9,79.8c-3.3,1.9-4.5,3.9-4.5,7.7
		c0.1,68.9,0.1,137.8,0.1,206.7c0,1.7,0,3.3,0,5.1c11.1,0,20.7-2.7,29.5-8c10.2-6.1,20.9-11.3,33-12.2c6.9-0.5,13.8-0.1,21.2-0.1
		c0-2.7,0-4.6,0-6.5c0-25.3,0-50.6,0-75.9c0-8.7,3.7-12.4,12.4-12.4c33.5,0,67,0,100.5,0c9.1,0,12.7,3.6,12.7,12.6
		c0,25.3,0,50.6,0,75.9c0,1.9,0,3.7,0,6.4c22.5-3.4,41.5,4.4,60.1,14.9C669.6,611.2,678,611.9,686.6,614.3z M498.1,518.8
		c0,21.8,0.7,43.1-0.3,64.3c-0.5,11.2,2.6,17.3,13,22.1c12.3,5.7,24.4,8.5,37.8,6.9c11-1.3,19.8-7.3,29.2-12
		c3.1-1.5,4.1-3.3,4.1-6.8c-0.2-23.4-0.1-46.7-0.1-70.1c0-1.5-0.2-3-0.3-4.6C553.7,518.8,526.2,518.8,498.1,518.8z M654.9,353
		c0-11.6,0-22.3,0-33c-7,0-13.7,0-20.6,0c0,6.4-0.1,12.5,0.1,18.6c0,1.1,0.7,2.8,1.7,3.3C642,345.7,648.1,349.1,654.9,353z"/>
	<path d="M686.4,686.1c-14.7,0.4-28.3-3.5-40.7-11.2c-15-9.4-31.1-12.2-48.1-7.5c-6.1,1.7-11.8,5-17.5,8c-27,14.7-54,15.1-80.6-0.4
		c-22.1-12.9-43.6-13.2-65.7-0.1c-6.5,3.9-13.7,7.1-21,8.8c-20.4,4.9-40.2,3-58.5-7.9c-10.8-6.5-22.1-10.8-35-10.8
		c-5.9,0-9.9-4.9-9.7-10.8c0.2-5.5,4.3-9.8,10-10c14.1-0.5,27.2,3,39.4,10.1c8.3,4.8,16.7,9.2,26.6,10.3c12.3,1.3,24-0.2,34.9-6.3
		c10.6-6,21.3-11.8,33.8-13.3c18.2-2.2,35.4,0,51.4,9.4c8.3,4.9,16.7,9.2,26.6,10.3c12.3,1.3,24-0.2,34.9-6.4
		c10.6-6,21.3-11.7,33.8-13.3c18.2-2.2,35.4,0,51.4,9.4c8.3,4.9,16.7,9.2,26.6,10.2c12.3,1.3,24-0.2,34.8-6.4
		c11.1-6.3,22.3-12.3,35.3-13.5c3.8-0.3,7.7-0.6,11.5-0.5c5.6,0.2,9.7,4.7,9.7,10.3c0,5.6-3.9,10.4-9.5,10.4c-13,0-24.5,4.4-35.4,11
		C713.4,683.3,700.4,686.5,686.4,686.1z"/>
	<path d="M686,738.5c-14.1,0.4-27.7-3.4-40.1-11.2c-15-9.4-31-12.3-48.1-7.6c-5.9,1.7-11.6,4.7-17,7.7
		c-27.2,15.1-54.5,15.5-81.5-0.2c-21.9-12.8-43.2-12.7-65.2,0.1c-26.9,15.7-54.4,15.5-81.4,0c-10.3-6-21.1-9.7-33.1-9.8
		c-5.9-0.1-10-4.8-9.9-10.6c0.1-5.8,4.4-10,10.4-10.1c14.9-0.4,28.6,3.5,41.2,11.4c14.9,9.3,30.8,12,47.6,7.4
		c6.1-1.7,11.9-4.9,17.5-8c26.9-14.9,54-15.2,80.5,0.2c15.5,8.9,31.3,12.5,48.5,7.8c5.9-1.6,11.6-4.7,17.1-7.7
		c27.2-15.2,54.5-15.5,81.5,0.2c22,12.8,43.5,13,65.2-0.1c12.2-7.4,25.4-11.3,39.7-11.1c6.9,0.1,11.3,4.1,11.4,10.2
		c0.1,6.2-4.1,10.6-11,10.7c-11.7,0.1-22.1,4-32.1,9.8C712.2,736.1,702.6,738.5,686,738.5z"/>
	<path d="M686.3,790.8c-14.7,0.4-28.3-3.5-40.7-11.3c-15-9.4-31.1-12.1-48.1-7.4c-5.8,1.6-11.3,4.6-16.6,7.5
		c-27.4,15.3-54.8,15.6-81.9-0.2c-21.8-12.7-43-12.7-64.7,0c-27.1,15.8-54.7,15.6-81.9,0c-10.2-5.9-20.8-9.5-32.6-9.7
		c-6-0.1-10.1-4.6-10.1-10.4c0-6,4.3-10.3,10.7-10.4c14.5-0.4,27.9,3.6,40.3,10.9c7.8,4.7,15.9,8.5,25.2,9.5
		c12.3,1.3,24-0.3,34.8-6.4c10.6-6,21.3-11.7,33.8-13.2c18-2.2,35.1,0,51,9.2c8.3,4.8,16.6,9.3,26.5,10.4
		c12.7,1.4,24.6-0.2,35.8-6.6c10.5-6,21-11.5,33.3-13c18-2.2,35.1,0,51,9.2c8.3,4.8,16.6,9.3,26.5,10.4c12.7,1.4,24.7-0.2,35.8-6.6
		c10.9-6.3,22-12.1,34.9-13.2c3.8-0.3,7.7-0.6,11.5-0.5c5.4,0.2,9.4,4.5,9.6,9.9c0.2,5.6-3.6,10.8-9.1,10.8
		c-14-0.2-26,5.2-37.8,12.1C712,788.5,699.5,791.2,686.3,790.8z"/>
</g>
</svg>
