<?xml version="1.0" encoding="utf-8"?>
<!-- Generator: Adobe Illustrator 22.0.1, SVG Export Plug-In . SVG Version: 6.00 Build 0)  -->
<svg version="1.1" id="Layer_1" xmlns="http://www.w3.org/2000/svg" xmlns:xlink="http://www.w3.org/1999/xlink" x="0px" y="0px"
	 viewBox="0 0 1080 1080" style="enable-background:new 0 0 1080 1080;" xml:space="preserve">
<style type="text/css">
	.st0{fill:none;}
</style>
<g>
	<path d="M437.3,442.8c-2.3-0.4-4.6-0.8-6.8-1.4c-5.8-1.5-10-5.1-10.9-11c-1.8-10.7-1.3-21.1,6.8-29.8c1.7-1.8,3-4.4,3.6-6.8
		c7.6-30.4,22.7-55.9,47.5-75.6c4.2-3.3,7.6-7.9,10.6-12.4c3.4-5,7.4-8.9,13.2-10.7c25.6-8,51.2-7.9,76.8,0.1
		c5.8,1.8,9.6,5.9,13,10.9c3.6,5.2,7.6,10.5,12.5,14.5c23.7,19.6,38.3,44.4,45.4,74.1c0.5,2.3,1.7,4.7,3.3,6.4
		c7.7,8.1,8.9,17.9,7.4,28.3c-1,7.1-6,11.7-13.2,13.1c-1.6,0.3-3.2,0.7-5.1,1c-3.5,18.3-9.1,35.9-16.9,52.8
		c-8.9,19.4-20,37.4-35.4,52.4c-0.6,0.6-1.6,1.2-1.6,1.8c0.1,7.6-2.4,15.6,3.2,22.5c5.9,7.2,13.4,12.3,22.1,15.5
		c26,9.4,52.3,17.8,77.9,28.1c40.5,16.3,63.1,47.3,66.4,90.5c2.1,27.1,0.7,54.4,0.9,81.6c0,0.5-0.2,1-0.4,1.8
		c-145.1,0-290.2,0-436.2,0c0-1.6,0-3.3,0-5.1c0-23.4,0-46.8,0-70.2c0.1-46.7,27.7-85.8,71.6-101.5c24.8-8.9,49.6-17.5,74.3-26.7
		c5.6-2.1,10.7-5.9,15.7-9.3c9.7-6.7,9-16.9,8.4-27c-0.1-1-1-2-1.8-2.8c-24.3-24.2-38.4-54-47.8-86.4
		C440.2,455.5,438.9,449.2,437.3,442.8z M434.1,426.3c69.9,0,139.8,0,209.6,0c0.6-9-0.5-11.3-6.7-17.6c-1.6-1.6-3-3.9-3.4-6.1
		c-5.1-27.3-18.9-49.4-39.1-68c-6.4-5.9-11.5-13.1-17.4-19.5c-1.7-1.9-3.8-4.1-6-4.7c-20.9-5.2-41.9-6.4-62.8-0.2
		c-2.8,0.8-5.2,3.5-7.3,5.8c-4.3,4.8-7.4,10.9-12.3,14.6c-24.3,18.4-37,43.5-43.7,72.4c-0.6,2.5-2.2,5-4.1,6.8
		C436,414.4,432.3,419.1,434.1,426.3z M675.9,717.7c-91.6,0-182.5,0-273.7,0c0,19,0,37.7,0,56.7c91.3,0,182.4,0,273.7,0
		C675.9,755.3,675.9,736.7,675.9,717.7z M619.8,700.2c0.2-0.8,0.4-1.3,0.4-1.8c0-29.4,0.1-58.7-0.1-88.1c0-1.4-1.7-3.4-3.1-4
		c-5.6-2.4-11.5-4.1-17.2-6.5c-2.4-1-3.8-0.6-5.5,1.1c-5.4,5.6-10.8,11.2-16.6,16.5c-1.7,1.6-4.5,2.8-6.8,2.8
		c-20.9,0.2-41.8,0.2-62.7,0c-2.5,0-5.4-1.3-7.3-3c-6.5-6.1-12.6-12.5-18.6-18.5c-7,2.8-13.3,5.6-19.7,7.7c-3.3,1.1-4.2,2.7-4.1,6
		c0.1,27.7,0.1,55.4,0.1,83.1c0,1.4,0.2,2.9,0.3,4.5C512.7,700.2,566.1,700.2,619.8,700.2z M453.5,443.5c0.2,1.6,0.2,3.1,0.6,4.5
		c5.3,21.9,13.6,42.5,25.3,61.7c8.9,14.5,19.2,27.8,33.5,37.5c17.2,11.7,34.7,11.9,52,0.4c4.8-3.2,9.4-6.9,13.4-11
		c25.2-26,38.6-58.1,46.9-93.1C567.8,443.5,510.8,443.5,453.5,443.5z M740.6,774.5c0.1-1.7,0.2-2.8,0.2-3.9c0-19.1,0.1-38.2,0-57.2
		c-0.1-25.9-10-47.6-29-65.2c-12.3-11.4-27.1-17.9-43.3-22.5c0,25.3,0,50.1,0,75.6c8.1,0,16,0,24.4,0c0,24.8,0,48.9,0,73.3
		C709,774.5,724.5,774.5,740.6,774.5z M410.6,626.1c-6.5,2.4-12.4,4.2-17.9,6.6c-30.2,13-49.3,35.9-53,68.4c-2.7,24.1-1,48.7-1.3,73
		c0,0.3,0.3,0.6,0.6,1c15.6,0,31.2,0,47.4,0c0-24.4,0-48.5,0-73.4c8.4,0,16.2,0,24.3,0C410.6,676.4,410.6,651.7,410.6,626.1z
		 M494.8,589.2c4.6,4.3,8.8,8.5,13.3,12.4c1.5,1.3,3.7,2.3,5.6,2.3c17.2,0.2,34.4,0.1,51.7,0.1c1.3,0,3,0.1,3.8-0.6
		c5-4.7,9.7-9.7,14.3-14.2c-3.1-4.5-6.3-8.2-8.3-12.5c-2-4.2-2.9-8.9-4.3-13.8c-20.7,12.2-41.7,11.6-63.2,0.5
		C507,573.8,502.4,581.8,494.8,589.2z M426.5,700.8c5.3,0,10.3,0,15.3,0c0-29,0-57.5,0-86.6c-4,1.3-7.6,2.7-11.2,3.7
		c-3.5,0.9-4.6,2.7-4.5,6.3c0.2,24,0.1,48,0.1,72C426.2,697.7,426.4,699.1,426.5,700.8z M652.8,700.9c0-26.6,0-52.6-0.1-78.6
		c0-1.1-0.7-2.8-1.6-3.2c-4.5-1.8-9.1-3.2-14-4.9c0,29.3,0,57.9,0,86.7C642.4,700.9,647.3,700.9,652.8,700.9z"/>
	<path d="M450.4,733.7c0,5.3,0,10.4,0,15.9c-10.6,0-21.1,0-32,0c0-5.2,0-10.4,0-15.9C429,733.7,439.6,733.7,450.4,733.7z"/>
	<path d="M660.5,749.7c-10.6,0-21,0-31.8,0c0-5.4,0-10.6,0-16c10.6,0,21,0,31.8,0C660.5,738.8,660.5,744,660.5,749.7z"/>
</g>
</svg>
