<?xml version="1.0" encoding="utf-8"?>
<!-- Generator: Adobe Illustrator 22.0.1, SVG Export Plug-In . SVG Version: 6.00 Build 0)  -->
<svg version="1.1" id="Layer_1" xmlns="http://www.w3.org/2000/svg" xmlns:xlink="http://www.w3.org/1999/xlink" x="0px" y="0px"
	 viewBox="0 0 1080 1080" style="enable-background:new 0 0 1080 1080;" xml:space="preserve">
<style type="text/css">
	.st0{fill:none;}
	.st1{fill:#FFFFFF;}
</style>
<g>
	<path d="M350.1,603.4c0-3,0-5.3,0-7.7c0-44.2-0.2-88.4,0.1-132.5c0.2-43.6,38.9-81.5,82.3-81.4c7.9,0,12.4,3.7,12.5,10.3
		c0.1,6.6-4.1,10.3-12.1,10.8c-35.2,2.1-61.3,28.3-61.6,63.1c-0.4,44.8-0.1,89.7-0.1,134.5c0,0.6,0.2,1.3,0.3,2.4
		c6.6,0,13.3,0,20.8,0c0-2.5,0-5.1,0-7.6c0.4-21.5-0.9-43.2,1.7-64.5c5.2-41.6,44.6-74.9,86.6-75.1c39.6-0.2,79.1-0.2,118.7,0
		c47.1,0.3,87.9,41.1,88.3,88.1c0.2,19.5,0,39.1,0,59.1c7,0,13.7,0,20.8,0c0.1-1.2,0.4-2.5,0.4-3.7c0-44,0.2-87.9,0-131.9
		c-0.2-30.5-19.1-54.9-48-62.3c-4.6-1.2-9.5-1.6-14.3-2.1c-7.4-0.7-11.6-4.4-11.5-10.8c0.1-6.4,4.5-10.2,11.8-10.3
		c38.7-0.6,75.4,30.3,81.7,68.9c0.9,5.4,1.3,10.9,1.3,16.4c0.1,42.9,0.1,85.7,0.1,128.6c0,2.4,0,4.7,0,7.7c3,0,5.4,0,7.7,0
		c31.7,0,63.3,0,95,0c10,0,13.4,3.4,13.4,13.4c0,71.9,0,143.8,0,215.6c0,10.4-3.3,13.6-13.9,13.6c-194.7,0-389.5,0-584.2,0
		c-10.6,0-13.9-3.2-13.9-13.6c0-71.9,0-143.8,0-215.6c0-10.1,3.3-13.4,13.4-13.4c31.7,0,63.3,0,95,0
		C344.7,603.4,347.1,603.4,350.1,603.4z M824.6,667.1c-190.1,0-379.7,0-569.1,0c0,52.9,0,105.2,0,157.5c38.7,0,76.9,0,115.6,0
		c0-2.7,0-5.1,0-7.5c0-24.6,0-49.2,0-73.9c0-10,3.4-13.3,13.5-13.3c103.5,0,207.1,0,310.6,0c10.1,0,13.5,3.3,13.5,13.3
		c0,24.8,0,49.7,0,74.5c0,2.3,0,4.6,0,6.8c39.2,0,77.4,0,115.8,0C824.6,772,824.6,719.8,824.6,667.1z M687.5,751.5
		c-98.6,0-196.8,0-294.7,0c0,24.7,0,49,0,73.1c98.5,0,196.4,0,294.7,0C687.5,800.2,687.5,776.1,687.5,751.5z M606.6,478.3
		c-1.2,2.2-2.2,4.1-3.2,6c-17.3,33-34.6,66.1-51.8,99.1c-2.5,4.8-5.1,9.4-11.5,9.4c-6.3,0-9-4.5-11.5-9.3
		c-17.4-33.5-34.8-66.9-52.2-100.4c-1.7-3.3-3.1-5.7-7.8-4.8c-27.5,5.8-51.2,29.8-53.8,58c-1.9,20.7-1.1,41.7-1.4,62.5
		c0,1.4,0.3,2.9,0.5,4.1c7.1,0,13.8,0,20.7,0c0-6,0-11.5,0-17c0-9.6,3.5-14.2,10.7-14.1c7.1,0.1,10.4,4.7,10.4,14.5
		c0,5.6,0,11.2,0,16.7c56.8,0,112.7,0,168.9,0c0-6.9-0.1-13.2,0-19.6c0.1-7.3,4.2-11.6,10.6-11.6c6.4,0,10.3,4.4,10.4,11.7
		c0.1,6.5,0,13,0,19.4c7.6,0,14.2,0,21.2,0c0-18.3,0.1-36.1,0-53.9C666.3,512.7,643.1,485.1,606.6,478.3z M824.6,624.9
		c-190.1,0-379.7,0-569,0c0,7.2,0,13.8,0,20.3c189.9,0,379.3,0,569,0C824.6,638.4,824.6,631.9,824.6,624.9z M516.3,514.2
		c1.2-4.1,1.8-6.6,2.7-9c1.7-4.5,4.8-7.3,9.8-7.3c7.5-0.1,14.9-0.1,22.4,0c5,0.1,8.1,2.9,9.7,7.5c0.8,2.4,1.3,4.9,2.3,8.9
		c6.8-13.1,12.9-25,19.5-37.6c-27.9,0-54.7,0-81.4,0c-1,0-2.1,0.2-4,0.3C503.6,489.3,509.6,501,516.3,514.2z M540.9,557.9
		c2.5-5.4,6.6-10.5,6.6-15.6c0-7.2-3.1-14.4-5-21.6c-0.2-0.7-1.5-1.8-2.2-1.7c-1,0.1-2.7,0.9-2.9,1.8
		C534.4,533.2,527.5,545.9,540.9,557.9z"/>
	<path d="M625.6,320.9c-1.3,17-0.6,34.5-4.4,51c-8.9,39.2-45.9,64.5-87.9,62.5c-36.9-1.8-71.9-32-76-69.6c-3-27.4-1.2-55.3-1.4-82.9
		c0-1.3,0.6-2.6,0.8-3.9c5.4-25.7,27.5-43.8,53.6-44c19.8-0.1,39.6-0.1,59.3,0c30.1,0.2,54.4,24.5,54.7,54.5c0.1,10.8,0,21.5,0,32.3
		C624.8,320.9,625.2,320.9,625.6,320.9z M580.8,257.1c-0.6,2.3-1,3.5-1.2,4.8c-3,17-10.9,31.4-24,42.7c-12.9,11.2-28.1,18-44.5,21.6
		c-11.1,2.4-22.4,3.7-34.8,5.6c0.5,9.4,0.4,19.2,1.7,28.9c4,29.7,31.7,52.9,62.3,52.7c30.5-0.2,58.8-23.1,61.5-52.6
		c2.2-24.6,1.8-49.6,1.2-74.3C602.6,272.7,594.4,263,580.8,257.1z M558.7,255.3c-17.3,0-34.2-0.7-51,0.2
		c-12.7,0.7-22.2,7.9-27.6,19.5c-5.1,11-3.1,22.6-3.2,34.6c5.9-0.6,11-1,15.9-1.7c19.6-3,38-9,52.5-23.3
		C553.2,276.7,558.4,267.3,558.7,255.3z"/>
</g>
</svg>
