<?xml version="1.0" encoding="utf-8"?>
<!-- Generator: Adobe Illustrator 22.0.1, SVG Export Plug-In . SVG Version: 6.00 Build 0)  -->
<svg version="1.1" id="Layer_1" xmlns="http://www.w3.org/2000/svg" xmlns:xlink="http://www.w3.org/1999/xlink" x="0px" y="0px"
	 viewBox="0 0 1080 1080" style="enable-background:new 0 0 1080 1080;" xml:space="preserve">
<style type="text/css">
	.st0{fill:none;}
</style>
<path d="M710.9,347c6.7,0,12.7,0,19.1,0c0-9.4,0-18.6,0-28.2c25.8,0,51.2,0,77,0c0,41.4,0,82.8,0,124.6c-25.4,0-50.7,0-76.6,0
	c0-9.3,0-18.6,0-28.3c-6.8,0-12.9,0-18.9,0c-2.5,18.3-2.5,18.3-19.4,19.2c0,92.9,0,185.9,0,279.5c18.8,0,37.8,0,57.1,0
	c0,25.9,0,51.2,0,76.9c-70.3,0-140.7,0-211.5,0c0-25.3,0-50.7,0-76.6c19,0,37.8,0,57.1,0c0-93.4,0-186.4,0-278.8
	c-5.4-1.3-12.2-1.1-15.5-4.3c-3.3-3.3-3.3-10-4.9-15.9c-72.6,0-146.2,0-220.5,0c0,2.1,0,4.1,0,6c0,46,0.1,92.1-0.1,138.1
	c0,4.2,1.2,7.1,4.2,10c7.9,7.5,15.7,15,23,23c4.2,4.6,8.5,6.9,14.6,6c1.9-0.3,3.9,0,6.2,0c0,25.8,0,51,0,76.7
	c-38.2,0-76.5,0-115.1,0c0-25.3,0-50.5,0-76.1c0.9-0.2,2.1-0.7,3.1-0.5c8.6,1.6,14.7-2.1,20.3-8.5c6.7-7.7,14.5-14.5,21.6-21.9
	c1.5-1.6,2.8-4.1,2.8-6.1c0.2-48,0.1-96.1,0.1-144.1c0-0.8-0.2-1.5-0.4-2.8c-20.1,0-40.1,0-61.2,0c2.1-2.3,3.4-3.8,4.7-5.1
	c19.3-19.3,38.7-38.6,57.9-58.1c3.1-3.1,6.1-4.4,10.5-4.4c76.2,0.1,152.4,0.1,228.6,0.2c4.8,0,8.1-1.4,11.5-4.9
	c16.2-16.5,32.5-32.9,49-49c2.3-2.2,6.2-3.9,9.4-3.9c18.3-0.4,36.6-0.2,54.9-0.2c8,0,11.4,3.3,11.4,11.3
	C711,315.9,710.9,331.2,710.9,347z M556.8,771.5c58,0,115.6,0,173,0c0-12.9,0-25.5,0-37.9c-57.9,0-115.3,0-173,0
	C556.8,746.3,556.8,758.6,556.8,771.5z M691.2,414.6c0-35.6,0-70.6,0-105.5c-12.9,0-25.5,0-38.2,0c0,24.7,0,49,0,73.3
	c0,10.7-2.4,13.1-13,13.1c-14.8,0-29.6,0-44.5,0c0,6.8,0,12.9,0,19.1C627.5,414.6,659.2,414.6,691.2,414.6z M787.7,424.2
	c0-29.1,0-57.7,0-86.1c-13,0-25.5,0-37.9,0c0,28.9,0,57.4,0,86.1C762.5,424.2,774.9,424.2,787.7,424.2z M305.9,617.7
	c0,12.8,0,25.3,0,37.9c25.7,0,51.1,0,76.4,0c0-12.9,0-25.5,0-37.9C356.7,617.7,331.4,617.7,305.9,617.7z M595.7,375.8
	c12.7,0,25.2,0,37.7,0c0-17.6,0-34.7,0-53.1c-10.5,10.6-19.8,20.9-30.2,30C595.7,359.1,593.5,366.3,595.7,375.8z M642.7,698.4
	c8.1-8.1,16.1-16,23-23c-7.4-7.4-15.4-15.4-22.3-22.3c-7.5,7.4-15.5,15.3-23,22.8C627.8,683.3,635.7,691.2,642.7,698.4z
	 M643.1,621.5c7.9-7.9,15.9-15.9,23.3-23.3c-7.6-7.6-15.6-15.6-23-23c-7.6,7.6-15.6,15.6-23.3,23.4
	C627.5,606,635.4,613.9,643.1,621.5z M644,497.7c-8.2,8.1-16.2,16.1-23.3,23.2c7.5,7.6,15.5,15.6,22.6,22.7
	c7.5-7.5,15.6-15.5,23.3-23.2C659.2,513,651.4,505,644,497.7z M673,434.4c-20.3,0-39.3,0-59.2,0c0.8,2.6,0.9,5.1,2.1,6.4
	c8.9,9.3,18,18.3,27.6,27.9c9.5-9.6,18.6-18.6,27.4-27.9C672.1,439.5,672.2,437,673,434.4z M550.6,366.8c-18.5,0-37.2,0-55.2,0
	c9.2,9.2,18.6,18.6,27.6,27.6C531.7,385.6,541,376.3,550.6,366.8z M465.7,367.9c-9.4,9.4-18.7,18.7-27.2,27.2c17.1,0,35.7,0,54.3,0
	C483.4,385.6,474.1,376.3,465.7,367.9z M406,394c9.4-9.4,18.7-18.7,27-27c-16.9,0-35.5,0-53.9,0C388.4,376.4,397.7,385.7,406,394z
	 M321.4,395c18.3,0,37,0,55,0c-9.2-9.2-18.5-18.5-27.4-27.5C340,376.4,330.7,385.7,321.4,395z M730,367c-6.7,0-12.7,0-18.8,0
	c0,9.6,0,18.8,0,28.2c6.4,0,12.5,0,18.8,0C730,385.7,730,376.5,730,367z M575.5,395.2c0-8.1,0-15.5,0-22.1
	c-7.3,7.3-14.9,14.8-22.3,22.1C560.1,395.2,567.6,395.2,575.5,395.2z M627.8,483.5c-4.5-5.1-8.7-9.9-12.9-14.7c0,9.3,0,18.3,0,27.4
	C619.7,491.4,624.2,487,627.8,483.5z M672,469c-4.6,4.6-9.2,9.2-13.4,13.4c4.3,4.2,8.9,8.6,13.4,12.9C672,486.8,672,477.8,672,469z
	 M614.6,572.7c4.8-4.5,9.6-8.9,13.1-12.1c-4.4-5-8.6-9.8-13.1-14.9C614.6,555.1,614.6,564.1,614.6,572.7z M672,546
	c-5,4.8-9.5,9.2-13.9,13.5c4.6,4.5,9.3,9,13.9,13.5C672,564.1,672,555.1,672,546z M331.1,597.6c8.6,0,17.8,0,25.3,0
	c-4-4.1-8.5-8.8-12.5-12.8C339.8,588.9,335.4,593.4,331.1,597.6z M627.9,637.7c-4.4-4.9-8.7-9.7-13.1-14.7c0,9.4,0,18.4,0,27.5
	C619.6,645.8,624.1,641.4,627.9,637.7z M671.8,649.7c0-8.5,0-17.6,0-26.3c-4.7,4.5-9.3,9-13.4,12.9
	C663,640.9,667.5,645.4,671.8,649.7z M627.4,713.7c-4.3-4.4-8.5-8.7-12.6-12.9c0,4,0,8.4,0,12.9
	C619.5,713.7,623.7,713.7,627.4,713.7z M672.1,701.3c-4.2,4.1-8.5,8.4-12.5,12.2c3.6,0,8.1,0,12.5,0
	C672.1,708.9,672.1,704.7,672.1,701.3z"/>
</svg>
