<?xml version="1.0" encoding="utf-8"?>
<!-- Generator: Adobe Illustrator 22.0.1, SVG Export Plug-In . SVG Version: 6.00 Build 0)  -->
<svg version="1.1" id="Layer_1" xmlns="http://www.w3.org/2000/svg" xmlns:xlink="http://www.w3.org/1999/xlink" x="0px" y="0px"
	 viewBox="0 0 1080 1080" style="enable-background:new 0 0 1080 1080;" xml:space="preserve">
<style type="text/css">
	.st0{fill:none;}
</style>
<g>
	<path d="M560.8,631.4c-11.9-4.2-23.7-7.2-34.5-12.4c-47.5-22.9-75.6-60.7-81.8-113.2c-2.4-20-1-40.5-1.3-60.8
		c-0.1-9.6-0.1-19.3,0-28.9c0.1-6.7,4.5-10.2,11-9c17,3.1,34,6.2,51,9.1c5.2,0.9,8.7,3.3,11.1,8.3c7.3,14.9,14.8,29.7,22.6,44.4
		c1,2,3.5,4.3,5.5,4.5c17.6,1.9,35.2,3.3,52.8,4.8c0.8,0.1,1.6-0.1,3.5-0.2c-9.1-7.6-17.5-14.3-25.5-21.5c-2.9-2.6-5.4-6-6.8-9.5
		c-7.3-18.5-14-37.2-21.2-55.8c-0.9-2.2-3.2-4.6-5.4-5.4c-30.1-11.1-60.4-21.9-90.6-32.8c-6.5-2.3-8-4.4-8-11.2c0-17.3,0-34.7,0-52
		c0-7.3,2.8-10.2,10.1-10.2c88.4,0,176.8,0,265.2,0c7.6,0,10.4,2.8,10.4,10.5c0,67.4,0.2,134.8,0,202.2
		c-0.2,65.1-48.7,124-112.6,136.9c-3.8,0.8-5.1,1.9-5.1,6c0.2,26.4,0.1,52.9,0.1,79.3c0,21.1,13.9,35.2,35,35.7
		c22.1,0.6,40.7,19.3,40.6,40.8c0,6.5-3,9.6-9.6,9.6c-60.7,0-121.5,0-182.2,0c-6.9,0-9.8-3.1-9.7-10c0.1-21.3,18.7-39.8,40.5-40.3
		c16.6-0.4,29-9.2,33.4-23.8c0.9-2.8,1.6-5.8,1.6-8.7C560.8,688.8,560.8,659.9,560.8,631.4z M504.3,783.4c54.5,0,109,0,163.9,0
		c-0.5-1.2-0.7-2-1.1-2.7c-5.3-9.8-13.8-13.6-24.7-13.9c-25-0.6-47.5-22.2-47.9-46.8c-0.5-32.2-0.1-64.4-0.1-96.6
		c0-4.9,2.4-7.8,7.3-8.8c4.5-0.8,9-1.5,13.4-2.6c57.3-14,96.7-63.7,96.9-122.9c0.2-62.7,0.1-125.3,0-188c0-1.5-0.2-3-0.3-4.4
		c-19.7,0-39,0-58.6,0c0,15.8-0.2,31.2,0.1,46.6c0.1,5-1.4,8.6-5,12c-8.5,8.1-16.6,16.4-25.5,25.3c4.7,4.5,9.3,8.4,13.2,12.7
		c2.7,3,5.6,4,9.6,3.9c10.8-0.2,21.6-0.1,32.3-0.1c0,6,0,11.3,0,16.8c-13.5,0-26.7,0.2-39.8-0.2c-3.1-0.1-6.8-1.7-9.2-3.8
		c-6.6-5.9-12.7-12.6-19.1-18.8c-1.2-1.1-2.9-2.4-4.3-2.4c-13.4-0.2-26.9-0.1-40.9-0.1c0.7,2.1,1.2,3.7,1.8,5.3
		c4.8,12.8,9.8,25.4,14.2,38.3c2.4,7.3,6.6,12.7,12.5,17.4c13,10.3,25.6,21.2,38.4,31.8c3.5,2.9,5.9,6.2,4.2,10.9
		c-1.8,5-5.9,6-10.7,5.5c-3.3-0.3-6.6-0.7-9.9-1c-26.1-2.4-52.2-4.9-78.4-7.1c-5-0.4-7.9-2.6-10.1-6.9
		c-6.7-13.6-14.1-26.9-20.5-40.7c-3.1-6.6-6.7-10.3-14.4-11.1c-10.6-1.1-21.1-3.6-31.9-5.6c0,23.6-0.7,46.5,0.2,69.4
		c1,28.1,10.8,53.3,28.9,74.9c20.3,24.3,46.2,39,77.6,44c9.2,1.5,10.9,3.5,10.9,12.7c0,29.6,0.1,59.2-0.1,88.8c0,4.7-0.4,9.5-1.6,14
		c-5.7,21.9-24.8,36.9-47.4,37.6C516.3,767.2,507.3,773.3,504.3,783.4z M460,296.5c0,13.2-0.1,26.1,0.2,39c0,1.3,2.3,3.1,3.9,3.7
		c28.7,10.5,57.4,20.8,86.1,31.1c2.1,0.8,4.4,1.5,6.6,1.5c15.9,0.1,31.8,0.1,47.8,0c1.8,0,4.1-1,5.4-2.2c8.3-8,16.4-16.2,24.5-24.5
		c0.9-0.9,2-2.3,2-3.4c0.1-15,0.1-30,0.1-45.2C577.5,296.5,519.2,296.5,460,296.5z"/>
	<path d="M401.1,357c-3.3-3.1-6.6-4.7-7.7-7.3c-5.9-13.8-11.4-27.7-16.8-41.7c-1.9-4.8-0.3-8.6,4.3-11c11-5.7,22-11.4,33.3-16.4
		c2.5-1.1,6.9-0.5,9,1.1c2,1.5,3.5,5.8,2.8,8.2c-5.3,20-11,39.9-17.1,59.7C408,352.3,404.3,354.1,401.1,357z M404.3,304.6
		c-10.2,4.1-10.2,4.1-4.4,15C401.4,314.6,402.8,310,404.3,304.6z"/>
	<path d="M408.4,430.7c-0.7-0.2-2.4-0.6-4-1.3c-12.8-5.1-25.5-10.3-38.3-15.4c-4.4-1.7-7.2-4.3-6.8-9.3c0.4-4.7,3.5-6.7,7.8-7.9
		c18.4-5.2,36.9-10.5,55.2-15.8c4-1.2,7.6-1.2,10.5,2.2c2.9,3.4,2.4,7,0.5,10.7c-5.2,10.3-10.3,20.6-15.4,30.9
		C416.1,428.4,413.6,430.9,408.4,430.7z M409.6,402.4c-5.4,1.6-10,2.9-15,4.4C405.6,412.5,405.6,412.5,409.6,402.4z"/>
	<path d="M367.1,371.7c-5.4,0-10.5,0-16,0c0-5.5,0-10.7,0-16.3c5.3,0,10.4,0,16,0C367.1,360.6,367.1,365.9,367.1,371.7z"/>
	<path d="M417.5,472.6c-5.5,0-10.5,0-15.9,0c0-5.4,0-10.7,0-16.3c5.2,0,10.5,0,15.9,0C417.5,461.8,417.5,467.2,417.5,472.6z"/>
	<path d="M645.2,439.4c5.4,0,10.5,0,16.1,0c0,5.3,0,10.5,0,16.2c-5.2,0-10.5,0-16.1,0C645.2,450.4,645.2,445.2,645.2,439.4z"/>
	<path d="M535.3,531.4c-5.5,0-10.7,0-16.2,0c0-5.4,0-10.7,0-16.3c5.4,0,10.6,0,16.2,0C535.3,520.5,535.3,525.6,535.3,531.4z"/>
	<path d="M552.6,346.3c0-5.5,0-10.6,0-16.1c5.5,0,10.8,0,16.3,0c0,5.4,0,10.5,0,16.1C563.7,346.3,558.4,346.3,552.6,346.3z"/>
</g>
</svg>
