<?xml version="1.0" encoding="utf-8"?>
<!-- Generator: Adobe Illustrator 22.0.1, SVG Export Plug-In . SVG Version: 6.00 Build 0)  -->
<svg version="1.1" id="Layer_1" xmlns="http://www.w3.org/2000/svg" xmlns:xlink="http://www.w3.org/1999/xlink" x="0px" y="0px"
	 viewBox="0 0 1080 1080" style="enable-background:new 0 0 1080 1080;" xml:space="preserve">
<style type="text/css">
	.st0{fill:none;}
</style>
<g>
	<path d="M356.1,798.9c-18.2,0-36.4,0-54.6,0c-15.3-5.5-20.6-16.5-20.4-32.4c0.5-57.6,0.2-115.2,0.2-172.8
		c0-16.6,10.3-27.4,26.7-27.7c13.8-0.3,27.6-0.2,41.4,0c10.6,0.1,18.6,4.9,23.9,14.2c0.9,1.5,3.5,2.8,5.4,2.9
		c11.4,1.1,22.8,1.6,34.1,2.9c4.6,0.5,9,2.7,14.2,4.3c-16-27.1-20.2-55.1-13.5-84.9c-2.6-1.1-5.1-2.1-7.5-3.2
		c-2.6-1.2-5.2-2.5-7.6-3.9c-42-24.3-60.3-62.9-64.4-109.2c-1.9-22.1-1-44.4-1.2-66.6c-0.1-11.5,6.3-18.1,17.8-18.9
		c21.4-1.5,42-5.4,59.4-19.4c5.7-4.5,13.2-3.7,19.3,0.6c3.3,2.3,6.5,4.8,10,6.8c15.2,8.6,32,10.9,49,12c10.4,0.7,17,7.6,17.1,18
		c0.1,9.9,0.4,19.9-0.1,29.8c-0.7,17.6-1.7,35.2-3.1,52.8c-0.5,5.8-2.3,11.6-3.6,17.7c26.5-5.6,51.4-2.1,75.6,9.9c0-2.5,0-4.3,0-6.1
		c0-25.1-0.1-50.2,0-75.3c0.1-16.7,11.2-30.9,27.8-33.6c8.7-1.5,17.8-0.7,26.7-1c1.9-0.1,3.9,0,6,0c0-3,0-5.2,0-7.4
		c0.2-16.5,10.8-27,27.4-27c16.2,0,32.3,0,48.5,0c16.8,0,27.3,10.5,27.6,27.3c0,2.3,0,4.5,0,7.1c9.3,0,17.7-0.1,26.1,0
		c15.1,0.2,28,9.7,32.7,24.1c0.5,1.4,1,2.8,1.6,4.1c0,44.5,0,88.9,0,133.4c-0.2,0.3-0.5,0.5-0.6,0.8c-6.3,19.4-17.4,27.5-37.7,27.5
		c-40.7,0-81.5,0-122.2,0c-2,0-4,0-5.8,0c9.2,56.7-11,98.9-60.5,127.3c12.5,12.7,15.4,27.7,9.7,46c7.4-1.4,13.6-2,19.3-3.9
		c51.5-17,102.9-34.2,154.3-51.3c15.8-5.2,31.5,0.5,39.2,14.3c1.8,3.2,2.9,6.7,4.3,10.1c0,4,0,8.1,0,12.1
		c-3.1,9.8-8.6,17.5-17.6,22.9c-52.1,31.5-104.1,63.1-155.9,94.9c-13.8,8.5-28.4,12.3-44.5,12.3c-68.7-0.1-137.4-0.1-206,0
		c-2,0-4.2-0.1-5.9,0.7C364.5,793.5,360.4,796.3,356.1,798.9z M376.5,772.8c2.4,0,4.2,0,6,0c66.7,0,133.4-0.1,200.1,0.1
		c12.2,0,23.1-3.1,33.4-9.4c29.4-18.1,58.9-35.9,88.3-53.9c22.7-13.8,45.4-27.6,68.1-41.5c6.9-4.2,9.8-9.9,8.8-16.1
		c-1.4-8.5-10.5-15.2-21.7-11.4c-47.2,16.1-94.7,31.4-141.8,47.6c-15.2,5.2-30.3,8.1-46.4,7.6c-19.3-0.6-38.7-0.3-58.1-0.1
		c-5.8,0.1-11.7,0.8-17.5,1.8c-10.5,1.9-19.3,7.5-28,13.3c-4.6,3.1-9.6,2.1-12.4-1.9c-2.6-3.9-1.9-9,2.3-12
		c13.6-10.1,28.6-17.4,45.8-18.1c18.2-0.8,36.4-0.5,54.5-0.9c2,0,4.8-1.1,5.8-2.7c3.2-4.9,4.4-10.5,3.2-16.4
		c-2.7-13-16-23.4-30.9-23.6c-15.3-0.2-30.7,0.1-46-0.1c-5.4-0.1-10.8-0.6-16-1.5c-15.6-2.7-29-10.1-41.5-19.6
		c-16.6-12.6-35.9-14.6-56-12.8C376.5,658.3,376.5,715.2,376.5,772.8z M514,617.8c6.6,0,13.2-0.3,19.7,0.1
		c5.5,0.3,10.9,1.5,16.4,2.1c2.5,0.2,5.4,0.4,7.6-0.5c40.4-15.9,64.6-57.3,59.1-100.6c-6.8-53.2-58-90.4-111.1-80.7
		c-37.7,6.9-68.6,37-75.8,74.2c-7.6,38.7,8.7,77.4,41.2,98.7c7.2,4.7,14.5,7.3,23.2,6.8C500.9,617.4,507.5,617.8,514,617.8z
		 M686.5,333.1c-24.9,0-49.8,0-74.8,0c-13.1,0-19.9,6.8-19.9,20c0,28.5,0,56.9-0.1,85.4c0,3.4,1,5.6,3.6,7.7
		c12.5,10.3,22.2,23,29,37.7c1.6,3.4,3.4,4.6,7.2,4.6c43.3-0.1,86.5-0.1,129.8-0.1c13.7,0,20.4-6.7,20.4-20.5c0-37.9,0-75.8,0-113.7
		c0-14.5-6.5-21-20.9-21.1C736,333.1,711.2,333.1,686.5,333.1z M488.4,321.1c-25.4-1.6-49-6.3-69.2-22.3c-9.6,8-20.6,13.6-32.6,16.5
		c-11.8,2.9-23.9,4.5-36.2,6.7c0,12.2-0.5,24.9,0.1,37.5c0.7,15.6,1.3,31.3,3.9,46.7c4.2,24.8,15,46.6,34.1,63.7
		c8.9,8,18.9,14.4,30.5,18.7c1-1.9,1.7-3.4,2.4-4.8c11.4-23.5,28.7-41.3,52.2-52.8c3.2-1.6,4.8-3.6,5.9-6.8
		C491.5,390.6,487.7,356,488.4,321.1z M298.6,681.7c0,29.5,0,59,0,88.4c0,8.5,3,11.5,11.6,11.5c12.6,0,25.3,0.1,37.9,0
		c7.6,0,10.8-3.2,10.9-10.7c0.1-7.9,0-15.8,0-23.8c0-50.7,0-101.4,0-152.1c0-8.9-2.7-11.6-11.4-11.6c-12.5,0-24.9,0-37.4,0
		c-8.9,0-11.6,2.7-11.6,11.8C298.6,624.1,298.6,652.9,298.6,681.7z M721.1,315.6c0-2.7,0-4.9,0-7.1c-0.1-6.3-3.3-9.8-9.5-9.9
		c-16.6-0.1-33.3-0.1-49.9,0c-4.7,0-8.2,2.4-9.1,7.1c-0.6,3.2-0.1,6.5-0.1,9.8C675.5,315.6,698,315.6,721.1,315.6z"/>
	<path d="M488.5,561.3c-0.2-8.3,2.9-12.3,8-12.6c5-0.3,8.6,3.3,9.2,9.2c0.9,10.1,8.5,17.1,18,16.6c8.8-0.4,16.1-7.9,16.4-16.8
		c0.2-9.3-7.3-17-17.2-17.6c-17.9-1-31.1-11.9-34-28.1c-3-16.5,5.7-31.7,22.2-38.8c1.4-0.6,2.7-2.2,3.2-3.7c1.5-4.3,4.1-7.1,8.7-7
		c4.6,0.1,7.2,2.7,8.6,7.2c0.5,1.5,2.3,3.1,3.8,3.7c13,5.5,21.8,17.6,21.9,30.6c0.1,6.1-2.9,9.9-8,10.2c-5.1,0.3-8.5-3.1-9.1-9.2
		c-1.2-10.6-9.2-17.5-19.1-16.5c-9,0.9-15.8,9.1-15.3,18.2c0.6,9.1,8,15.7,18.1,16.1c14.3,0.7,24.7,7.5,30.5,20.4
		c5.7,12.8,4,25.2-5.1,35.8c-3.7,4.3-9.4,6.9-14,10.4c-1.5,1.2-3.3,2.6-3.9,4.4c-1.5,4.2-4.2,6.6-8.5,6.6c-4.3,0-6.9-2.6-8.5-6.7
		c-0.6-1.7-2.3-3.5-4-4.2C496.9,583.6,489.6,573.5,488.5,561.3z"/>
	<path d="M747.2,410.9c0,33.1-27.4,60.4-60.5,60.4c-33,0-60.5-27.4-60.5-60.4c-0.1-33.3,27.5-60.8,60.8-60.6
		C720,350.3,747.2,377.8,747.2,410.9z M687.4,367.8c-23.4-0.6-42.8,17.9-43.6,41.7c-0.8,24,17.8,43.5,42.1,44.2
		c23.5,0.6,42.9-18.1,43.7-42.2C730.5,388.1,711.4,368.5,687.4,367.8z"/>
	<path d="M400.7,406.7c14.7-19.6,28.5-38,42.3-56.4c1.4-1.9,2.7-3.9,4.3-5.6c3-3.3,8-3.8,11.5-1.4c3.7,2.6,4.8,7.6,2.4,11.6
		c-1.7,2.7-3.7,5.2-5.6,7.7c-14.6,19.5-29.2,39-43.8,58.5c-6.7,9-10.8,9.3-18.6,1.5c-4.5-4.5-9.1-9-13.5-13.6
		c-4.1-4.2-4.2-9.4-0.6-13c3.6-3.6,8.6-3.3,13,0.7c1.6,1.5,3.2,3,4.6,4.6C397.9,403,399,404.6,400.7,406.7z"/>
	<path d="M695.8,419.9c-0.6,7.1,1.4,15.9-9.2,16.8c-5.8,0.5-7.8-3.5-9.1-17.1c-2.4,0-4.8,0.1-7.3,0c-5.8-0.3-9.7-4.1-9.5-9
		c0.2-4.8,3.9-8.2,9.5-8.6c2.3-0.1,4.7,0,7.4,0c0.8-7.3-1.5-17.2,9.5-16.9c10.1,0.3,8.1,9.6,8.7,16.6c7.1,0.8,16.3-1.5,16.8,9.6
		C712.8,417.1,708.7,419,695.8,419.9z"/>
</g>
</svg>
