<?xml version="1.0" encoding="utf-8"?>
<!-- Generator: Adobe Illustrator 22.0.1, SVG Export Plug-In . SVG Version: 6.00 Build 0)  -->
<svg version="1.1" id="Layer_1" xmlns="http://www.w3.org/2000/svg" xmlns:xlink="http://www.w3.org/1999/xlink" x="0px" y="0px"
	 viewBox="0 0 1080 1080" style="enable-background:new 0 0 1080 1080;" xml:space="preserve">
<style type="text/css">
	.st0{fill:none;}
</style>
<g>
	<path d="M277.1,506c1.3-8.6,2.4-17.2,4-25.7c11.8-62.1,42.7-112.5,92.3-151.5c36.6-28.7,78.4-46.1,124.7-50.4
		c83.3-7.8,153.8,19.6,210.2,81.4c33.5,36.7,53.1,80.4,60.4,129.5c14.7,98.2-33.1,197.7-119.3,248.6c-1.3,0.8-2.6,1.6-3.8,3.3
		c2.4,0,4.9,0,7.3,0c48.1-0.5,93.9,9.7,137.3,30.3c6.7,3.2,12.1,7,12.5,15.2c0.4,8.3-4.6,12.7-11.3,16c-2.7,0-5.5,0-8.2,0
		c-38.3-19.9-79.1-30-122.1-30.6c-47.1-0.7-94.1,0.1-141.2-0.4c-12.9-0.1-26-1.5-38.7-3.7c-45.5-7.9-85.7-27.4-120.2-58.1
		c-42.5-37.7-69.2-84.5-79.9-140.3c-1.8-9.2-2.8-18.5-4.2-27.7C277.1,530,277.1,518,277.1,506z M524.7,741.2
		c118.7-0.2,215.7-97.7,215.6-216.8c-0.2-119.3-97.3-216.8-215.8-216.6c-119.2,0.2-216.4,97.4-216.6,216.5
		C307.7,643.5,405.6,741.4,524.7,741.2z"/>
	<path d="M452,685.7c-34.1,0-61.7-27.6-61.6-61.7c0-33.9,27.9-61.5,62-61.5c34,0,61.5,27.6,61.6,61.8
		C514,658.3,486.3,685.7,452,685.7z M482.7,624.1c0-16.9-13.9-30.7-30.6-30.7c-16.9,0.1-30.5,13.8-30.5,30.7
		c-0.1,17.2,13.8,31,30.8,30.9C469.3,654.8,482.8,641.1,482.7,624.1z"/>
	<path d="M596.9,685.7c-34.2,0-61.9-27.7-61.7-61.7c0.2-34.4,27.8-61.6,62.4-61.5c33.6,0.1,61.4,28.2,61.1,61.8
		C658.6,658.6,631.1,685.8,596.9,685.7z M566.5,624.3c0,17,13.7,30.6,30.5,30.7c16.9,0,30.5-13.7,30.6-30.6
		c0-17.2-13.7-31.1-30.8-31C580,593.5,566.4,607.4,566.5,624.3z"/>
	<path d="M703.4,486.2c0,34.3-27.3,61.8-61.4,61.9c-34.1,0-62-27.7-61.9-61.5c0.1-34.3,27.5-61.8,61.5-61.8
		C676,424.9,703.4,452.1,703.4,486.2z M672.5,486.5c0-16.8-13.7-30.8-30.5-30.8c-17-0.1-31.2,14-31.1,30.9
		c0.1,16.7,14.1,30.7,30.8,30.7C658.6,517.2,672.5,503.3,672.5,486.5z"/>
	<path d="M407.8,424.9c34,0,61.4,27.8,61.3,61.9c-0.1,33.9-27.9,61.4-62,61.3c-34.1,0-61.3-27.8-61.2-62.5
		C345.9,452,373.6,424.9,407.8,424.9z M376.7,486.3c-0.1,16.8,13.6,30.7,30.4,31c16.8,0.2,31.2-14.1,31.1-30.9
		c-0.1-16.7-14-30.6-30.8-30.6C390.6,455.7,376.7,469.5,376.7,486.3z"/>
	<path d="M524.5,462.9c-34,0-61.5-27.6-61.5-61.7c0-34,27.6-61.5,61.7-61.5c34.1,0,61.5,27.6,61.5,61.7
		C586.2,435.5,558.6,462.9,524.5,462.9z M524.5,370.5c-16.7,0-30.7,14.1-30.7,30.7c0,16.6,14,30.7,30.6,30.9
		c16.8,0.1,31.1-14.2,31-31C555.3,384.4,541.2,370.5,524.5,370.5z"/>
	<path d="M540,524.5c0,8.7-6.9,15.5-15.6,15.4c-8.4-0.1-15.1-6.9-15.1-15.4c0-8.7,6.9-15.5,15.6-15.4C533.3,509.3,540,516,540,524.5
		z"/>
</g>
</svg>
