<?xml version="1.0" encoding="utf-8"?>
<!-- Generator: Adobe Illustrator 22.0.1, SVG Export Plug-In . SVG Version: 6.00 Build 0)  -->
<svg version="1.1" id="Layer_1" xmlns="http://www.w3.org/2000/svg" xmlns:xlink="http://www.w3.org/1999/xlink" x="0px" y="0px"
	 viewBox="0 0 1080 1080" style="enable-background:new 0 0 1080 1080;" xml:space="preserve">
<style type="text/css">
	.st0{fill:none;}
</style>
<g>
	<path d="M711.3,799.8c-9.2-7-9.9-11.8-3.2-21.3c26.6-37.4,52.9-75,79.8-112.2c13.6-18.8,20-39.3,19.9-62.4
		c-0.2-55.4-0.1-110.8-0.1-166.2c0-6.4-1.3-12-7-15.8c-8.9-5.8-20.4-1.2-22.7,9.1c-0.6,2.7-0.8,5.6-0.8,8.4
		c-0.1,44.2-0.2,88.5,0,132.7c0.1,22.1-7.3,41.1-22.2,57.1c-17.4,18.7-34.9,37.2-52.4,55.8c-5.1,5.4-10.6,6.5-15.6,3.6
		c-4.6-2.7-6.9-8.2-4.9-13.1c1.1-2.7,3.1-5.2,5.1-7.3c16.8-18,33.6-35.8,50.4-53.8c6.8-7.3,7.8-16.8,2.8-24.4
		c-4.9-7.3-14.5-10.6-21.9-5.8c-22.3,14.6-45.6,27.7-64.6,46.8c-22.3,22.5-34.3,50.1-40.2,80.8c-5,25.7-10.4,51.4-16.2,76.9
		c-0.9,4.1-5,7.5-7.6,11.2c-2.3,0-4.5,0-6.8,0c-7.7-4.5-9.5-8.1-7.7-16.7c7-32.6,13.3-65.4,21.5-97.7c8.8-34.3,28.2-62.5,56.1-84.2
		c16.1-12.5,33.3-23.4,50.2-34.8c13.5-9.1,32.3-11.2,51.2,4.2c0-2.6,0-4.6,0-6.5c0-43.1-0.1-86.2,0-129.3c0-17,10.3-31.2,25.7-36.3
		c20.1-6.7,41.2,3.9,48.2,24.1c0.6,1.7,1.4,3.4,2.1,5.1c0,65,0,130.1,0,195.1c-0.3,0.6-0.9,1.3-1,1.9c-2.3,19.6-10.2,36.9-21.6,52.8
		c-26.8,37.5-53.4,75.2-80.1,112.7c-2.5,3.4-5.6,6.4-8.5,9.5C716.6,799.8,714,799.8,711.3,799.8z"/>
	<path d="M724.7,488.1c-0.7-19.2-8.4-35.3-25.3-44.8c-9.5-5.3-20.8-7.3-31.3-10.9c-1.6-0.5-3-1.6-4.5-2.5c1-1.5,1.7-3.3,3-4.4
		c9.5-8,16.4-17.8,17.4-30.1c1.2-14.1,1.9-28.4,0.3-42.4c-3.8-31.3-34.5-50.5-64.7-41.2c-6.3,1.9-12.1,5.6-18.2,8.4
		c-23.4-52.8-98.6-54.2-123.1,0.7c-1.4-0.9-2.8-1.8-4.1-2.8c-27-19-66.6-5.8-76.4,25.7c-5.1,16.4-3.4,33.4-2.1,50.1
		c1,12.9,7.9,23.4,17.9,31.8c1.3,1.1,1.9,3,2.8,4.5c-1.5,0.8-3,1.9-4.7,2.3c-4.3,1.2-8.8,2.2-13.2,3.3c-18.4,4.5-32,14.9-39.1,32.8
		c-5.5,13.9-4.8,28.5-3.3,43c0.6,5.8,4.9,8.7,10.6,9.1c2.3,0.2,4.5,0.1,6.8,0.1c14.9,0,29.8,0,45.2,0c0,2.4,0,4.2,0,6
		c0,12.3-0.1,24.6,0,36.9c0.1,8.4,4.1,13.4,12.1,13.5c19.3,0.3,112.7,0.3,152.1,0.1c0.1,0,0.2,0,0.3,0c20.8,0.1,41.6,0,62.4,0
		c11.6,0,15.7-4.1,15.7-15.7c0-13.4,0-26.8,0-40.8c17.3,0,33.7,0.1,50.2,0c8.8,0,13.2-4.5,13.3-13.3
		C724.9,501,725,494.6,724.7,488.1z M639,332.5c12.5,2,21.9,12.4,22.7,25.6c-18.2,0.7-36-0.1-52.5-9.1
		C613.9,337.2,626.3,330.4,639,332.5z M607,374.2c9.2,2,18.1,4.5,27.1,5.7c9.1,1.2,18.4,1.1,28.3,1.6c0.8,10.5-1.9,19.8-10.7,26.6
		c-9.4,7.2-19.7,8.3-30.2,2.7C606.4,402.9,605.6,388.9,607,374.2z M595.9,419.9c2.7,2.3,5.4,4.6,7.9,7c2.4,2.3,2.2,4.4-1.3,5.3
		c-7.8,2-15.6,3.8-23.1,5.6c6-5.4,12-10.7,18.1-16C596.9,421.1,596.4,420.5,595.9,419.9z M539.7,302.9c20-0.7,42.4,17.9,42,35.6
		c-5.3-3.1-10.2-6-15.2-8.9c-7.7-4.4-12-4-18,2.4c-13.7,14.6-30,18.1-51.2,15.6C495,324.8,515,303.8,539.7,302.9z M496.9,371.5
		c9.3-0.5,18-0.5,26.5-1.5c12.7-1.4,23.9-6.8,33.7-14.9c2.5-2,4.2-2.3,6.8-0.5c5,3.3,10.3,6.3,15.6,9.2c2.8,1.5,4.1,3.2,4,6.6
		c-0.2,11.9,0.6,23.7-6,34.6c-9.7,16.2-28.6,24.6-47.1,20.4c-18.4-4.2-32.4-20.5-33.5-39.4C496.6,381.2,496.9,376.5,496.9,371.5z
		 M553.4,448.7c0.3,13.5-9,23.7-13.2,35.9c-4.5-12.1-13.6-22.3-13.4-35.9C535.9,448.7,544.3,448.7,553.4,448.7z M476.7,426.6
		c2.4-2.3,5-4.5,7.5-6.7c-0.4,0.6-0.8,1.3-1.1,1.9c6.2,6,12.3,12,16.1,15.7c-4.5-1.1-12.9-3.1-21.2-5.3
		C473.9,431.2,474.1,429,476.7,426.6z M439.5,332.9c12.5-3.2,25.5,3.3,31.5,15.9c-16.4,9.1-34.2,9.9-52.2,9.3
		C418.2,346.4,427,336,439.5,332.9z M418,381c18.9,0.6,37.2-0.3,55.3-7.9c0.8,13.1,1.4,25.4-9.6,34.5c-9,7.4-20.5,8.7-30.6,3.5
		C422.3,405.5,416.9,395.1,418,381z M426.5,493.4c-1.8,3.6-3.7,4.8-7.7,4.8c-13.2-0.3-26.4-0.1-39.5-0.1c-4.5-17.6,4.4-34,21.3-39
		c7.9-2.4,16-4.4,24.1-5.9c9-1.7,15.5-5.2,14.6-16.1c4.5,0,8,0,11.6,0c3.1,12.7,3.1,12.7,25.5,18.5c-3.6,1.2-6.2,2-8.9,2.9
		C449.1,464.4,435.2,476,426.5,493.4z M638.5,553.9c-8,0-15.1,0-22.5,0c0-7.2,0-14,0-20.8c-0.1-8.4-4.3-13.4-11.3-13.5
		c-6.9,0-11.3,5.1-11.4,13.3c-0.1,6.9,0,13.8,0,20.9c-3,0.2-5.7,0.2-8.4,0.4c-28-0.1-95.1,0.1-98.3,0.1c0-5.1,0-9.4,0-13.8
		c0-15.5-2.9-20.8-11.2-20.9c-8.4-0.1-11.5,5.3-11.5,20.6c0,4.5,0,9,0,13.6c-7.7,0-14.8,0-22,0c0-10.9-0.6-21.5,0.1-32
		c1.7-22.1,13.9-36.1,34.9-42.3c10.3-3,20.8-5.2,31.5-7.8c1.1,2.2,2.1,4.2,3,6.3c5.7,12.9,11.5,25.9,17,38.9
		c2.2,5.1,5.5,8.8,11.3,8.9c6,0.1,9.4-3.7,11.7-9c4.9-11.6,10.2-23.1,15.3-34.7c1.5-3.4,3-6.8,4.5-10.2c10.5,2.5,20.5,4.6,30.3,7.2
		c16.2,4.2,28,13.9,33.7,29.9C640.6,523.5,637.8,538.7,638.5,553.9z M701.3,498c-11.1,0-22.4-0.4-33.7,0.1c-7.7,0.4-12.6-1-16.7-8.9
		c-8.4-16-22.5-26.1-39.9-31.2c-1.8-0.5-3.6-1.1-5.4-1.7c-0.3-0.1-0.6-0.4-1.3-0.8c9.9-4.1,24.7-1.2,24.2-18.5c4.1,0,7.8,0,12.2,0
		c-1.4,12.2,7.2,14.6,16.3,16.5c6.1,1.3,12.1,2.8,18.1,4.3C695.3,462.9,704.3,476.6,701.3,498z"/>
	<path d="M504.4,781.9c-5.6-26.6-11.2-53.1-16.7-79.7c-7.8-37.8-24.4-70.9-54.4-95.5c-19.4-15.8-40.7-29.4-61.7-43.1
		c-9.2-6-20.2-6-30.6-2c-5.3,2-10.1,5.2-15.4,8c0-2.2,0-4.3,0-6.3c0-42.7,0.1-85.5,0-128.2c-0.1-21.9-16.9-38.9-38.1-38.8
		c-20.8,0.1-37.7,17.2-37.7,38.7c-0.1,59.9-0.1,119.9,0.1,179.8c0,5.1,0.8,10.2,1.6,15.2c4.5,29.3,81.4,133.3,98.1,156.1
		c0.8,1.1,1.8,2.1,3,2.8c2.8,3.6,5.6,7.3,8.4,10.9c2.6,0,5.3,0,7.9,0c7.7-5.9,9.8-10.7,5.8-17c-4.7-7.4-9.8-14.6-15.1-21.6
		c-17.5-25.1-64.5-91.3-69.6-98.3c-11.8-16.5-17.5-35-17.6-55.2c-0.1-56.7,0-113.4,0-170.1c0-2.4,0.2-4.9,0.9-7.3
		c1.9-6.9,7.5-11,14.7-10.9c7,0.1,12.6,4.6,14.2,11.5c0.6,2.7,0.8,5.6,0.8,8.4c0.1,45.4,0,90.7,0.1,136.1
		c0.1,18.4,5.9,35.2,18.1,48.9c18.6,20.9,38,41,57.1,61.5c0.9,1,2,1.7,3.1,2.5c4.2,2.7,10,2.2,13.6-1c3.6-3.3,4.8-9.1,2.4-13.4
		c-1.2-2.1-2.8-4-4.5-5.8c-16.8-17.9-33.6-35.8-50.4-53.8c-7.3-7.8-7.9-18.6-1.4-26.2c6.2-7.2,15.3-8,24.5-1.8
		c12.3,8.2,24.5,16.4,36.7,24.7c31.4,21.5,52.4,50.3,60.9,87.6c6.7,29.4,12.8,58.9,18.9,88.5c1.1,5.6,3.6,9.7,8.2,12.8
		c2.3,0,4.5,0,6.8,0C504.8,795.1,506.4,791.4,504.4,781.9z"/>
</g>
</svg>
