<?xml version="1.0" encoding="utf-8"?>
<!-- Generator: Adobe Illustrator 22.0.1, SVG Export Plug-In . SVG Version: 6.00 Build 0)  -->
<svg version="1.1" id="Layer_1" xmlns="http://www.w3.org/2000/svg" xmlns:xlink="http://www.w3.org/1999/xlink" x="0px" y="0px"
	 viewBox="0 0 1080 1080" style="enable-background:new 0 0 1080 1080;" xml:space="preserve">
<style type="text/css">
	.st0{fill:none;}
</style>
<g>
	<path d="M376,619.7c8.9-2.2,15.8-6.9,21.8-12.7c13.9-13.5,29.7-24,48.7-28.9c25.5-6.7,50.4-4.7,74.1,7c13.7,6.8,27.8,9.9,42.9,9.4
		c8-0.3,16-0.5,23.9,0.1c8.1,0.6,15.2-1.5,22.1-5.7c8.1-4.9,16.4-9.3,24.9-13.6c16.8-8.4,33.3-7.5,49,2.9c2.8,1.9,4.8,2.3,7.9,0.6
		c13.9-7.4,29.7-5.6,41.1,5.3c3.7,3.5,6.1,3.3,10.3,1.4c18.5-8.5,40.9-1.9,52.1,14.9c3.6,5.4,3.2,8.5-2.1,12.1
		c-50.9,35-101.4,70.5-152.9,104.5c-19,12.6-41.7,15.8-64.3,12.4c-32.9-5-65.6-11.4-98.4-17.5c-8.1-1.5-15.4-0.5-22.3,4
		c-12.3,7.9-24.7,15.8-37.1,23.4c-3.2,2-4.1,3.7-2.9,7.5c4.2,12.8,7.9,25.8,11.8,38.8c2.5,8.3,0.1,11.5-8.5,11.5
		c-34,0-67.9,0-101.9,0c-7.4,0-9.2-1.9-10.1-9.4c-3.9-32.6-7.9-65.1-11.9-97.7c-3.5-28.9-6.5-57.8-10.6-86.6
		c-2.4-16.7,1.6-16,15-15.9c19.5,0.2,39,0,58.5,0.1c8.8,0,9.4,0.5,12,9C371.3,604.3,373.6,611.9,376,619.7z M409.2,728.8
		c13.4-8.5,26.2-16.3,38.8-24.5c9.2-5.9,19.1-7.8,29.8-6c10.9,1.9,21.8,4.2,32.8,6.1c23.7,4.1,47.3,9.1,71.2,11.9
		c18.9,2.2,37.6-1.5,53.7-12.4c45.5-30.7,90.6-62,135.8-93.1c3-2.1,6-4.2,9.1-6.4c-9.1-9.8-22.6-12-34.8-5.5
		c-25.7,13.7-51.2,27.5-76.8,41.3c-1.2,0.7-2.7,1.6-3.2,2.8c-3.8,9.5-3.7,9.2-13.7,8.8c-29.3-1.2-58.5-4.1-87.8-0.3
		c-4.4,0.6-7.8-0.7-8.6-5.6c-0.7-4.4,2-7.6,7.3-7.9c16.6-0.7,33.3-1.3,50-1.6c12.5-0.2,25.1,0,37.6,0c-1.5-14.7-17.7-28.5-35.1-28.7
		c-19.9-0.2-39.7,0-59.6-0.1c-3.3,0-6.7-0.3-10-0.6c-11.8-1.1-22.3-6.3-33-10.9c-33.9-14.5-66-10.9-95.2,11.7
		c-11.8,9.2-21.8,20.7-37.3,24.9C389.8,665,399.4,696.4,409.2,728.8z M319.3,783.7c30.9,0,61.4,0,92.4,0c-4.1-13.5-8.1-26.8-12.2-40
		c-14-45.8-28-91.6-41.8-137.5c-1.2-3.9-2.9-5.1-6.9-5.1c-16.3,0.2-32.7,0.1-49,0.1c-1.6,0-3.1,0.2-4.8,0.4
		C304.5,662.6,311.9,723,319.3,783.7z M723.7,595.3c-5.9-6.6-15.1-9.8-22.2-6.3c-15.8,7.8-31.3,16.4-46.8,24.6
		c2.9,5.2,5.5,9.8,8.1,14.5C683.3,617.1,703.5,606.2,723.7,595.3z M673.5,588.2c-18.2-10.3-32.6-1.9-46.8,6.8
		c5.3,2.7,10.5,5.4,15.8,7.9c0.9,0.4,2.3,0.6,3.1,0.2C654.7,598.4,663.8,593.4,673.5,588.2z"/>
	<path d="M628.6,522c0,4.7,0.1,8.8,0,12.8c-0.1,6.7-2.4,9-9.1,9.1c-11.1,0.1-22.3,0-33.4,0c-41.2,0-82.4,0-123.6,0
		c-9.5,0-11-1.5-11.1-10.9c0-3.5,0-7,0-11c-2.6,0-4.6,0-6.6,0c-33.8,0-67.6,0-101.3,0c-9,0-10.7-1.7-10.7-10.7
		c0-14.1-0.2-28.2,0.1-42.3c0.4-24.4,21.9-46,46.2-47.2c3.9-0.2,6.6,0.9,9.2,3.8c13.6,14.9,33,15.1,46.7,0.2c4-4.4,8.4-4.5,13.1-3.3
		c5.7,1.4,11.2,3.6,17.5,5.7c8-8.5,18.1-14.9,30.5-17.6c7.6-1.6,13.7-1.3,19.8,5.4c13.6,14.8,37.5,14.3,51-0.8
		c4.9-5.5,9.9-6.1,16.3-4.7c12.9,2.9,20,6.9,30.8,17.2c7.9-2,15.3-4,22.7-5.6c3.9-0.9,6.9,0.7,9.7,3.9c12.5,14.4,33.1,14.8,45.9,0.6
		c3.8-4.3,7.9-5,12.9-4.2c23.9,3.8,41.8,24.7,41.9,49c0.1,13.4,0,26.7,0,40.1c0,9.1-1.7,10.8-10.6,10.8c-33.4,0-66.8,0-100.2,0
		C634,522,631.8,522,628.6,522z M466.1,529.8c49.3,0,98.7,0,148.4,0c0-23.9,0.9-47.4-0.3-70.9c-0.8-16.8-15.8-31.5-32.2-34.8
		c-1.9-0.4-4.8,0.3-6.2,1.6c-21.1,19.3-48.9,19.2-70.2-0.4c-1.3-1.2-4-2-5.7-1.6c-18,4-31.5,14.8-33.2,33
		C464.4,480.7,466.1,505.1,466.1,529.8z M347.1,507.9c34.4,0,69.2,0,103.9,0c2.4-22.9-3.8-46.1,6.2-67.7c-8.4-4.8-11.7-5.2-15.2-2
		c-18.1,16.3-42.6,16.1-61-0.3c-1.4-1.3-4.3-2.1-6.2-1.6c-14.9,3.6-25.4,12.9-27.3,28C345.6,478.4,347.1,493.1,347.1,507.9z
		 M732.7,508c0-14.7,1.2-29.2-0.3-43.5c-1.5-14.3-11.4-23.2-24.9-27.9c-2.9-1-5.2-0.9-8,1.6c-18.1,16.4-42.5,15.9-60.9-0.5
		c-1.3-1.2-3.9-1.9-5.7-1.5c-3.5,0.7-6.9,2.2-10.6,3.4c10.6,22.4,4.3,45.7,6.8,68.4C663.9,508,698.5,508,732.7,508z"/>
	<path d="M591.9,344.3c-1.3,8.9-1.4,18.2-4,26.7c-6.7,22.3-29.5,37.2-51.6,34.9c-25.3-2.6-44.6-20.7-46.5-45.2
		c-1-12.7-1.4-25.8,0.9-38.2c4.8-25.2,28.6-41.9,53.4-39.7c26.1,2.4,45.8,23.5,46.7,50.1c0.1,3.7,0,7.4,0,11.1
		C591.2,344.2,591.6,344.3,591.9,344.3z M577.7,344.7c-0.3,0-0.5,0-0.8-0.1c0-4.6,0.3-9.3,0-13.9c-1.3-19.6-18-34.9-37.4-34.4
		c-20,0.5-36,16.1-36.5,36c-0.2,8-0.2,15.9,0,23.9c0.4,18.2,14,33.7,31.2,35.8c19.8,2.4,36.8-8.2,41.5-26.9
		C577.3,358.5,577.1,351.5,577.7,344.7z"/>
	<path d="M713.8,365.8c0.9,13-0.4,25.5-8.5,36.4c-11.6,15.7-31.6,22.2-50.4,16.2c-18.2-5.7-31.2-23.1-31.3-42.2
		c-0.1-9.6-0.5-19.4,1.1-28.8c3.7-22.3,24.3-38,46.7-36.7c22.6,1.4,40.7,19,42.4,41.7C714.1,356.8,713.8,361.3,713.8,365.8z
		 M700.7,366.2c-0.1,0-0.2,0-0.3,0c0-3.7,0.1-7.4,0-11.1c-0.4-16.5-13.1-29.4-30.1-30.6c-15.4-1.1-30.4,10.3-32.4,26
		c-1.2,9.7-1.3,19.7-0.2,29.3c1.8,15.9,14.4,26.6,30.2,27.4c14.8,0.8,28.5-9.7,31.8-25C700.7,377,700.4,371.5,700.7,366.2z"/>
	<path d="M365.9,365.2c-0.9-12.8,0.5-25.1,8.5-35.9c11.6-15.6,31.8-22.3,50.4-16.3c18.2,5.8,31.2,23.1,31.3,42.2
		c0.1,9.6,0.5,19.4-1.1,28.8c-3.7,22.3-24.1,37.9-46.7,36.7c-22.4-1.2-40.7-19-42.5-41.6C365.6,374.5,365.9,369.8,365.9,365.2z
		 M379,365.6c0.1,0,0.2,0,0.3,0c0,3.5-0.1,7.1,0,10.6c0.4,16.8,13.2,29.8,30.4,30.9c15.4,1,30.2-10.5,32.1-26.3
		c1.2-9.7,1.2-19.7,0.1-29.3c-1.8-15.8-14.6-26.5-30.4-27.1c-14.9-0.5-28.5,10-31.6,25.2C378.9,354.7,379.3,360.2,379,365.6z"/>
	<path d="M361.8,777.2c-12,0-21.2-9-21.2-20.9c-0.1-11.7,9.5-21.4,21-21.3c11.5,0.1,21.2,9.8,21.2,21.3
		C382.6,767.8,373.2,777.2,361.8,777.2z M362,748.8c-4.1-0.3-7.7,2.8-8.1,6.8c-0.4,3.9,3.3,8.1,7.3,8.3c4,0.1,7.5-3,7.7-7.2
		C369.2,752.6,366.1,749.1,362,748.8z"/>
</g>
</svg>
