<?xml version="1.0" encoding="utf-8"?>
<!-- Generator: Adobe Illustrator 22.0.1, SVG Export Plug-In . SVG Version: 6.00 Build 0)  -->
<svg version="1.1" id="Layer_1" xmlns="http://www.w3.org/2000/svg" xmlns:xlink="http://www.w3.org/1999/xlink" x="0px" y="0px"
	 viewBox="0 0 1080 1080" style="enable-background:new 0 0 1080 1080;" xml:space="preserve">
<style type="text/css">
	.st0{fill:none;}
</style>
<g>
	<path d="M757,506.9c0-1.9,0-3.9-0.3-5.7c-1-5.4-3.9-8-9.4-8.6c-2.1-0.2-4.2-0.2-6.2-0.2c-104.5,0-208.9,0-313.4,0
		c-1.6,0-3.1,0-4.7,0c0.4-1.1,0.8-1.4,1.3-1.5c43.3-12.5,86.6-25.1,130-37.6c59-17.1,118-34.1,177-51.2c9-2.6,11.3-6.8,8.7-15.8
		c-5-17.5-9.9-35.1-15.2-52.5c-9.5-31.2-37.7-46.5-69-37.5c-66.2,19.1-132.4,38.3-198.7,57.5c-32.6,9.4-65.3,18.5-97.6,28.6
		c-25.5,8-40.8,34-35.4,60.2c3,14.7,8.1,28.9,11.9,43.5c2.1,8.1,5,16.5,5,24.7c0.4,73.8,0.2,147.6,0.2,221.4
		c0,18.6,7.3,33.9,22.7,44.3c7,4.7,15.6,6.8,23.5,10.1c33.7,0,67.4,0,101.1,0c6.4,0,14.9,0,25,0c56.7,0,161.7,0,197.4,0
		c0.2-0.2,0.5-0.5,0.7-0.6c30.8-8,45.3-26.6,45.3-58.5C757,653.8,757,580.3,757,506.9z M696.2,512c13.5-0.3,26.9-0.2,41-0.2
		c0,23.6,0,46.7,0,70.1c-27.7,0-55.4,0-83.5,0c0.6-1.3,1.1-2.6,1.8-3.7c12.1-21,24.1-41.9,36.4-62.8
		C692.6,513.9,694.6,512.1,696.2,512z M622.8,511.8c14.4,0.2,28.9,0.1,43.3,0.1c1.4,0,2.8,0.1,5.1,0.2c-11.2,19.4-21.9,38-32.6,56.5
		c-2.6,4.6-4.5,10.7-8.5,13c-4,2.3-10.3,0.7-15.6,0.7c-11.7,0-23.4,0-35.1,0c-0.3,0-0.6-0.2-1.2-0.4c0.6-1.3,1.2-2.6,1.8-3.7
		c12-20.8,24.1-41.6,36-62.4C617.7,512.8,619.5,511.8,622.8,511.8z M545.8,512c15.9-0.3,31.7-0.1,47.6-0.1c0.6,0,1.1,0.1,2.2,0.3
		c-1,1.8-1.7,3.2-2.5,4.5c-11.8,20.5-23.8,41-35.4,61.6c-1.9,3.3-3.9,4.3-7.6,4.2c-15.7-0.2-31.3-0.1-47.6-0.1
		c0.7-1.6,1.2-2.8,1.8-3.8c12.1-21.1,24.2-42.2,36.5-63.1C541.8,513.8,544.1,512.1,545.8,512z M471.9,511.8
		c15.8,0.2,31.7,0.1,48.5,0.1c-6,10.4-11.5,20-17,29.5c-7.3,12.6-14.5,25.3-21.9,37.8c-0.9,1.5-3,3-4.6,3.1c-16,0.2-32,0.1-48.1,0.1
		c-0.4,0-0.9-0.2-1.7-0.4c0.8-1.5,1.5-2.9,2.3-4.3c11.9-20.6,23.9-41.2,35.7-62C466.8,512.8,468.6,511.8,471.9,511.8z M444.6,512.2
		c-0.8,1.6-1.4,2.9-2.1,4.1c-12,20.8-24.1,41.6-36,62.4c-1.5,2.7-3.2,3.7-6.4,3.7c-13-0.2-25.9-0.1-39.2-0.1c0-23.5,0-46.6,0-70.1
		C388.5,512.2,416.3,512.2,444.6,512.2z M668.5,313.3c13.8-3.2,29.7,6.4,35.5,19.9c1.2,2.8,2.1,5.7,2.9,8.6
		c4.1,14.2,8.2,28.5,12.4,43.3c-7.4,2.2-14.6,4.4-21.7,6.4c-5.5,1.6-11.6,5-16.5,3.8c-4.7-1.1-8.3-7-12.4-10.9
		c-17.8-17.1-35.6-34.2-53.4-51.3c-1.1-1.1-2.3-2.2-4.4-4.1C631,323.5,649.6,317.7,668.5,313.3z M550.1,346.9
		c12.1-3.5,24.2-7.1,36.4-10.5c1.5-0.4,4-0.2,5,0.8c22.3,21.2,44.5,42.5,66.6,63.9c0.2,0.2,0.3,0.5,0.8,1.2
		c-1.3,0.5-2.5,1.1-3.8,1.5c-14.3,4.1-28.5,8.3-42.8,12.3c-1.7,0.5-4.3,0.2-5.5-0.9c-22.1-20.9-44-42.1-66-63.1
		c-0.4-0.4-0.8-1-1.5-1.9C543.2,349,546.7,348,550.1,346.9z M515.3,357.1c1.1-0.3,2.9,0.2,3.8,1c22.4,21.4,44.6,42.8,66.9,64.2
		c0.2,0.2,0.2,0.6,0.5,1.2c-6.1,1.8-12.2,3.7-18.3,5.4c-9.5,2.8-19,5.5-28.6,8.1c-1.5,0.4-4,0.2-5-0.8
		c-22.3-21.2-44.4-42.5-66.6-63.9c-0.2-0.2-0.3-0.5-0.8-1.5C483.4,366.2,499.3,361.6,515.3,357.1z M441.8,378.3c1.5-0.4,3.9,0,5,1
		c22.2,21.1,44.2,42.3,66.3,63.5c0.3,0.3,0.6,0.7,1.2,1.6c-3.8,1.1-7.4,2.2-11,3.2c-12.1,3.5-24.2,7.1-36.4,10.4
		c-1.5,0.4-3.9,0.1-4.9-0.9c-22.1-21-44-42.1-66-63.2c-0.4-0.4-0.8-1-1.6-2C410.5,387.4,426.1,382.7,441.8,378.3z M352.5,472.4
		c-3.2-11.2-6.9-22.3-9.2-33.8c-3.7-18.5,9.1-36.5,27.6-39.7c1-0.2,2.5,0.3,3.2,1c22.4,21.4,44.7,42.9,67,64.3
		c0.2,0.2,0.3,0.6,0.7,1.4c-28.1,8.1-55.8,16.2-84.2,24.4C355.8,484,354.1,478.2,352.5,472.4z M737.5,730.1
		c0.2,20.3-12.7,32.5-25.1,35.5c-4.2,1-8.5,1.5-12.8,1.5c-36.5,0.1-168,0.1-205.8,0.1c-23.2,0-46.3,0-69.5,0
		c-11.1,0-22.2,0.5-33.2-0.7c-18.1-2-30.3-15.4-30.4-33.8c-0.3-42.8-0.1-85.7-0.1-128.5c0-0.6,0.2-1.2,0.4-2.4c1.8,0,3.5,0,5.2,0
		c121.8,0,243.5,0,365.3-0.1c5,0,6.1,1.4,6.1,6.2C737.3,648.6,737.1,689.3,737.5,730.1z"/>
	<path d="M511.7,683.3c0-15.6,0-31.1,0-46.7c0-10.2,7.3-14.5,16.1-9.4c27.2,15.6,54.4,31.3,81.5,47c8.5,5,8.6,13.5,0,18.5
		c-27.3,15.8-54.6,31.6-81.9,47.3c-8.3,4.7-15.7,0.4-15.7-9.1C511.7,715,511.7,699.1,511.7,683.3z M586.6,683.5
		c-18.9-10.9-37-21.3-55.3-31.9c0,21.6,0,42.3,0,63.8C549.7,704.7,567.7,694.3,586.6,683.5z"/>
</g>
</svg>
