<?xml version="1.0" encoding="utf-8"?>
<!-- Generator: Adobe Illustrator 22.0.1, SVG Export Plug-In . SVG Version: 6.00 Build 0)  -->
<svg version="1.1" id="Layer_1" xmlns="http://www.w3.org/2000/svg" xmlns:xlink="http://www.w3.org/1999/xlink" x="0px" y="0px"
	 viewBox="0 0 1080 1080" style="enable-background:new 0 0 1080 1080;" xml:space="preserve">
<style type="text/css">
	.st0{fill:none;}
</style>
<path d="M239.6,553.1c4.7-11.5,8.7-23.4,14.1-34.5c40.3-82.5,105.3-137.2,192.5-163.4c110.6-33.3,211.6-11,301,61.7
	c43.7,35.5,74.6,80.6,91.9,134.6c0.7,2.2,1.1,4.5,1.1,6.8c0.1,19.4-0.1,38.7,0.1,58.1c0.1,5.3-1.7,7.4-7.1,7.2
	c-12.1-0.3-24.1-0.1-36.8-0.1c0,4.5,0,8.4,0,12.2c0,13.1,0,13.1-13.4,13.1c-2.5,0-5,0-8.4,0c0,2.5,0,4.6,0,6.6c0,25.4,0,50.8,0,76.2
	c0,7.4-0.6,8-8.1,8c-7.8,0-15.6,0-23.5,0c-6.7,0-7.8-1.1-7.9-7.8c0-25.2,0-50.4,0-75.6c0-2.1,0-4.3,0-7.4c-5,0-9.6-0.1-14.2,0
	c-5.1,0.1-7.6-2.1-7.4-7.4c0.2-5.7,0.1-11.3,0.1-17.5c-44.1,0-87.9,0-132.6,0c0,5.7-0.2,11.5,0.1,17.3c0.3,5.7-2.3,7.8-7.6,7.6
	c-4.3-0.2-8.6,0-13.8,0c0,2.4,0,4.5,0,6.6c0,25.4,0,50.8,0,76.2c0,7.2-1,8.1-8.2,8.1c-8,0-16-0.2-24,0.1c-5.7,0.2-7.5-2.3-7.5-7.7
	c0.1-25.6,0.1-51.2,0.1-76.8c0-1.9,0-3.8,0-6.4c-5.2,0-9.9-0.1-14.5,0c-4.9,0.1-7.1-2.1-6.9-7.1c0.3-5.8,0.1-11.6,0.1-17.8
	c-44.2,0-87.9,0-132.6,0c0,5.2,0,10.6,0,15.9c0,7.9-1.1,9-9.2,9c-3.9,0-7.7,0-12.3,0c0,3,0,5.2,0,7.5c0,24.6,0,49.3,0,73.9
	c0,8.8-0.7,9.5-9.2,9.5c-7.6,0-15.3-0.2-22.9,0.1c-5.7,0.2-7.5-2.1-7.5-7.6c0.2-25.8,0.1-51.6,0.1-77.4c0-1.7-0.2-3.4-0.3-5.9
	c-5.1,0-9.9,0-14.7,0c-4.6,0-6.9-2.1-6.8-6.8c0.1-5.9,0-11.7,0-18.5c-4.9,0-9.5,0-14.1,0c-7.4,0-14.9,0.2-22.3-0.1
	c-2.5-0.1-5-1.4-7.5-2.2C239.6,598.5,239.6,575.8,239.6,553.1z M506.3,375.8c0,58.6,0,116.7,0,175c22.7,0,45,0,67.4,0
	c0-58.5,0-116.6,0-175.1C551,372.9,528.7,372.7,506.3,375.8z M496.3,550.9c0-58,0-115.8,0-173.8c-21.8,3.4-42.5,9.4-62.7,17.2
	c-4,1.6-5.1,3.6-5.1,7.7c0.1,47.7,0.1,95.4,0.1,143.1c0,1.9,0,3.8,0,5.9C451.6,550.9,473.8,550.9,496.3,550.9z M651.4,550.9
	c0-51,0-101.2-0.1-151.4c0-1.3-1.2-3.4-2.4-3.9c-20.9-8.8-42.5-14.9-65.2-18.5c0,58.1,0,115.9,0,173.8
	C606.3,550.9,628.5,550.9,651.4,550.9z M251.4,550.7c1.1,0.2,1.9,0.4,2.6,0.5c2.7,0.1,5.5-0.2,8.2,0.1c3.2,0.3,4.4-1.3,5.4-4
	c16.5-44.7,43.9-81.6,80.1-112.2c44.2-37.3,95.3-59.8,152.4-68.2c34.9-5.1,69.7-3.5,104.2,4.5c52,12.1,98,35.8,137.4,71.9
	c31.7,29.1,55.9,63.5,71,104.1c0.6,1.5,2.3,3.4,3.6,3.6c4,0.5,8,0.2,12.3,0.2c-30-98.7-137.4-193.8-271.7-200.9
	C405.6,342.3,284.7,444.2,251.4,550.7z M418.9,550.8c0-50.1,0-99.7,0-149.7c-1.5,0.6-2.5,0.9-3.6,1.4c-22,10.4-42.3,23.5-60.8,39.2
	c-1.9,1.6-3.1,4.9-3.1,7.5c-0.2,32-0.1,64.1-0.1,96.1c0,1.7,0.2,3.4,0.3,5.5C374.2,550.8,396.4,550.8,418.9,550.8z M661.1,399.9
	c0,51.5,0,101.1,0,150.7c22.6,0,44.9,0,67.1,0c0.3-0.9,0.5-1.3,0.5-1.6c0-33.8,0.1-67.6-0.1-101.4c0-2.1-1.7-4.8-3.4-6.1
	c-8.9-7-17.8-14.1-27.3-20.2C686.2,413.9,674,407.4,661.1,399.9z M341.5,453c-29.3,28.4-51.3,60.1-65.3,97.8c22.2,0,43.6,0,65.3,0
	C341.5,518.5,341.5,486.5,341.5,453z M803.7,550.9c-14.1-37.9-36-69.5-65.3-97.7c0,33.3,0,65.4,0,97.7
	C760,550.9,781.3,550.9,803.7,550.9z M717.7,613.9c-14.9-17.4-29-33.9-43.4-50.7c-14.6,17.1-28.7,33.6-43.2,50.7
	C660.4,613.9,688.4,613.9,717.7,613.9z M502.6,613.9c-14.8-17.3-28.8-33.7-43.3-50.6c-14.4,16.8-28.5,33.3-43.3,50.6
	C445.3,613.9,473.3,613.9,502.6,613.9z M395.2,613.9c-14.9-17.4-29.1-33.9-43.4-50.6c-14.6,17.1-28.7,33.6-43.2,50.6
	C337.8,613.9,365.9,613.9,395.2,613.9z M781.9,563.3c-14.5,17-28.6,33.5-43.2,50.6c29.4,0,57.4,0,86.5,0
	C810.5,596.7,796.5,580.3,781.9,563.3z M566.9,563.3c-14.6,17.1-28.6,33.5-43.2,50.5c29.2,0,57.3,0,86.4,0
	C595.4,596.7,581.4,580.3,566.9,563.3z M448.4,561.5c-28.9,0-56.9,0-85.7,0c14.6,17.1,28.6,33.4,42.8,50.1
	C419.9,594.9,433.9,578.5,448.4,561.5z M728.2,611.6c14.4-16.9,28.4-33.2,42.9-50.2c-29.1,0-57,0-85.9,0
	C699.8,578.4,713.7,594.7,728.2,611.6z M663.4,561.6c-28.9,0-56.7,0-85.6,0c14.7,17.1,28.6,33.4,42.8,50
	C635.1,594.7,649,578.4,663.4,561.6z M470,561.3c14.8,17.3,28.8,33.6,43.1,50.3c14.5-16.9,28.4-33.2,43-50.3
	C527,561.3,499.2,561.3,470,561.3z M298,611.6c14.5-16.9,28.4-33.3,42.8-50.1c-28.9,0-56.8,0-85.7,0
	C269.7,578.5,283.6,594.7,298,611.6z M530,649.2c0,27.2,0,54,0,80.7c6.9,0,13.5,0,20.1,0c0-27.1,0-53.7,0-80.7
	C543.2,649.2,536.7,649.2,530,649.2z M334.5,730.1c0-27.4,0-54.2,0-80.8c-6.9,0-13.2,0-19.4,0c0,27.3,0,54.1,0,80.8
	C321.8,730.1,328,730.1,334.5,730.1z M745.3,649.1c0,27.3,0,54.1,0,81c6.8,0,13.1,0,19.6,0c0-27.1,0-53.9,0-81
	C758.3,649.1,752.1,649.1,745.3,649.1z M293.5,638.6c21.2,0,42.1,0,62.9,0c0-5.2,0-10,0-14.8c-21.2,0-41.9,0-62.9,0
	C293.5,628.9,293.5,633.7,293.5,638.6z M508.5,623.8c0,5.2,0,9.9,0,14.9c21.1,0,41.9,0,62.9,0c0-5.1,0-9.9,0-14.9
	C550.5,623.8,529.8,623.8,508.5,623.8z M786.5,624c-21.2,0-42.2,0-63.1,0c0,5.1,0,9.8,0,14.6c21.2,0,42.2,0,63.1,0
	C786.5,633.4,786.5,628.8,786.5,624z M287.6,613.9c-13.1-15.2-25.3-29.5-38.2-44.6c0,15.7,0,30.1,0,44.6
	C262,613.9,274.2,613.9,287.6,613.9z M792.5,561.2c13.1,15.2,25.2,29.4,38.1,44.5c0-15.8,0-30,0-44.5
	C818.2,561.2,806.1,561.2,792.5,561.2z"/>
</svg>
