<?xml version="1.0" encoding="utf-8"?>
<!-- Generator: Adobe Illustrator 22.0.1, SVG Export Plug-In . SVG Version: 6.00 Build 0)  -->
<svg version="1.1" id="Layer_1" xmlns="http://www.w3.org/2000/svg" xmlns:xlink="http://www.w3.org/1999/xlink" x="0px" y="0px"
	 viewBox="0 0 1080 1080" style="enable-background:new 0 0 1080 1080;" xml:space="preserve">
<style type="text/css">
	.st0{fill:none;}
</style>
<g>
	<path d="M618.8,376.7c8.8,0,17.5-0.1,26.2,0c8.6,0.1,13,4.2,13.2,13c0.2,10.3,0.2,20.5,0,30.8c-0.2,8.4-4.4,12.7-12.8,12.8
		c-17.9,0.2-35.8,0.2-53.6,0c-8.2-0.1-12.5-4.7-12.7-13c-0.2-10.1-0.1-20.2,0-30.2c0.1-8.9,4.6-13.3,13.4-13.4
		C601.3,376.6,610.1,376.7,618.8,376.7z M635.6,399.8c-11.8,0-22.5,0-33.3,0c0,3.7,0,7,0,10.5c11.1,0,21.8,0,32.9,0
		c0.2-1.6,0.4-2.9,0.4-4.1C635.6,404.1,635.6,402.1,635.6,399.8z"/>
	<path d="M780.5,770.8c-16-0.1-32,0-48,0c-2,0-4.1,0-6.6,0c0-3.2,0-5.6,0-8.1c0-115,0-230.1,0-345.1c0-1.9,0.1-3.8,0-5.7
		c-0.4-8.4-4.6-12.4-13-12.5c-6.8-0.1-13.6,0-20.9,0c0-11.1,0-21.5,0-31.9c0-15.4-8.5-24.3-23.8-24.4c-32.9-0.2-65.9-0.2-98.8,0
		c-15.2,0.1-23.6,8.8-23.6,23.9c0,8.5,0,17,0,26.5c-18.7-8-36.5-15.6-54.2-23.3c-0.8-0.4-1.8-1.6-1.8-2.4c-0.2-4.3-0.1-8.5-0.1-13.1
		c4.2,0,7.4,0.2,10.6,0c7.1-0.5,11.5-4.5,11.6-11.6c0.3-14.8,0.3-29.7,0-44.6c-0.1-7.4-4.6-11.7-12.1-11.7
		c-36.9-0.1-73.9-0.1-110.8,0c-7.9,0-12.2,4.8-12.3,12.7c-0.1,14.1-0.1,28.2,0,42.3c0.1,8.1,4.5,12.6,12.8,12.9c3.2,0.1,6.3,0,9.3,0
		c1.7,11.2,0.3,20.1-7.3,28.5c-11.3,12.4-21,26.1-31.7,39c-4.2,5-5.8,10.3-5.8,16.7c0.1,108,0.1,216,0.1,323.9c0,2.4,0,4.9,0,8
		c-3.3,0-5.5,0-7.8,0c-16.2,0-32.4-0.1-48.6,0.1c-6,0.1-10.5,4.5-11,10.3c-0.5,5.3,3.2,10.4,8.8,11.7c2.6,0.6,5.3,0.6,7.9,0.6
		c157.7,0,315.4,0,473.1,0c1.3,0,2.7,0,4,0c7.7-0.3,13-5.2,12.8-11.7C793.1,775.2,788.1,770.8,780.5,770.8z M399.8,309.7
		c29.6,0,59.1,0,89.2,0c0,7.5,0,14.4,0,21.8c-29.8,0-59.3,0-89.2,0C399.8,324.3,399.8,317.2,399.8,309.7z M466.7,355
		c0,3.5,0,6.5,0,9.9c-14.7,0-29.3,0-44.3,0c0-3.3,0-6.4,0-9.9C437.1,355,451.6,355,466.7,355z M377,438.9c0-1.7,1.4-3.5,2.5-4.9
		c11.2-14.2,22.5-28.3,34-42.2c1.6-1.9,4.9-3.4,7.5-3.5c15-0.3,30.1,0.1,45.1-0.3c6.7-0.1,12.6,1.3,18.7,4
		c21.6,9.5,43.2,18.7,64.9,27.9c11.3,4.8,18.7-0.1,18.7-12.4c0-13.7,0-27.3,0-41.4c34.1,0,67.1,0,100.9,0c0,12.2,0,24.2,0,36.1
		c0,17.9,2,19.9,20.1,19.9c4.4,0,8.7,0,13.4,0c0,22.4,0,44.4,0,66.7c-108.6,0-217,0-325.9,0C376.9,471.9,376.8,455.4,377,438.9z
		 M564.4,725c-16,0-32,0-48,0V647h48V725z M496.6,627.2V725c-13.5,0-27,0-40.6,0c0-70.7,0-141.4,0-212.5c56.1,0,111.9,0,168.1,0
		c0,70.9,0,141.5,0,212.5c-13.3,0-26.6,0-39.9,0v-97.7H496.6z M432.5,512.6c0,70.7,0,141.3,0,212.5c-18.6,0-36.8,0-55.3,0
		c0-70.9,0-141.4,0-212.5C395.6,512.6,413.9,512.6,432.5,512.6z M702.7,770.4c-108.5,0-216.7,0-325.6,0c0-7.4,0-14.3,0-21.8
		c108.5,0,216.9,0,325.6,0C702.7,755.8,702.7,762.9,702.7,770.4z M702.8,725.2c-18.5,0-36.6,0-55.1,0c0-70.7,0-141.4,0-212.6
		c18.2,0,36.5,0,55.1,0C702.8,583.4,702.8,653.9,702.8,725.2z"/>
</g>
</svg>
