<?xml version="1.0" encoding="utf-8"?>
<!-- Generator: Adobe Illustrator 22.0.1, SVG Export Plug-In . SVG Version: 6.00 Build 0)  -->
<svg version="1.1" id="Layer_1" xmlns="http://www.w3.org/2000/svg" xmlns:xlink="http://www.w3.org/1999/xlink" x="0px" y="0px"
	 viewBox="0 0 1080 1080" style="enable-background:new 0 0 1080 1080;" xml:space="preserve">
<style type="text/css">
	.st0{fill:none;}
</style>
<g>
	<path d="M603.8,310.1c10.4,9.1,20,17.1,29,25.7c2.4,2.3,4.5,6.6,4.1,9.7c-0.8,6.9-8.8,8.9-14.7,3.9c-11.1-9.5-21.9-19.2-32.8-28.8
		c-3.5-3-7-6-10.3-9.2c-4.4-4.3-4.7-8.5-0.6-13.1c12.6-14.2,25.2-28.4,37.9-42.5c4.1-4.5,9.5-5,13.2-1.6c3.7,3.4,3.7,8.7-0.3,13.3
		c-6.7,7.7-13.6,15.4-21,23.6c8.7,0.5,16.5,0.8,24.2,1.4c62.6,4.6,118.9,55.9,129.5,117.8c4.4,25.6,2.9,50.7-5.7,75.3
		c-2.3,6.7-6.7,9.6-11.8,7.8c-5.3-1.9-6.8-6.5-4.7-13.4c16.6-54,4.6-100.8-37.1-138.9C675.4,316.1,642.1,306.8,603.8,310.1z"/>
	<path d="M455.5,669.7c-10.4-9.2-19.9-17.4-29.3-25.9c-5.9-5.3-4.9-13.6,2.1-15.4c2.6-0.7,6.7,0.3,8.8,2.1
		c14.6,12.4,28.9,25.1,43.2,37.9c4.6,4.1,4.7,9,0.6,13.6c-12.6,14.2-25.2,28.4-37.9,42.5c-3.8,4.2-9.1,4.6-12.8,1.4
		c-4-3.5-4.1-8.5,0-13.2c6.8-7.8,13.8-15.4,21.7-24.3c-3.2,0-5.3,0-7.4,0c-63.2,0.7-117.9-36.2-140.2-95.4
		c-12.4-32.9-12.3-66.2-0.6-99.5c2.1-6,6.4-8.5,11.3-6.9c5.2,1.8,7.1,6.4,5.1,12.6c-14,43-8.9,83.5,18.4,119.7
		c28.2,37.5,66.7,54.3,113.6,51.2C452.8,670.1,453.5,670,455.5,669.7z"/>
	<path d="M671.7,774c-15.2,0-29.8-2.8-42.8-10.9c-4.7-2.9-9.1-6.4-12.8-10.5c-12.5-13.8-12.2-31.9,0.5-45.7
		c9.9-10.7,22.6-16.3,36.6-18.8c23.6-4.3,46.3-2,66.4,12.4c22.2,15.9,22.5,41.5,1.2,58.6C708.9,768.5,690.9,774,671.7,774z
		 M672.6,756.5c9.9,0.2,20.2-1.8,29.8-6.5c8.3-4.1,16.3-9.2,16.4-19.6c0.1-10.7-8-16.1-16.5-20.1c-14.7-7-30.1-8.1-46-4.9
		c-10.3,2.1-20,5.6-27.2,13.7c-6.2,7-6.3,15.5,0.1,22.3c3.1,3.3,7,6,11,8.2C650,754.7,660.7,756.6,672.6,756.5z"/>
	<path d="M824.7,684.6c-4.1-12.6-9.8-24.8-14.8-37.1c23.3-14.3,25.5-37.3,5.4-55.8c-1.4-1.3-2.3-3.4-3.1-5.3
		c-5.4-13.7-14.6-23.5-28.1-29.6c-2.5-1.1-5-3.4-6.5-5.7c-7-11.5-16.7-19.5-29.5-23.3c-10.5-3.2-21.1-2.5-31.7,0.9
		c-10.1-17.2-24.8-26.9-44.7-26.9c-20.2-0.1-34.8,10.1-44.9,26.8c-28-7.1-46.4,0.3-62.1,24.6c-1,1.6-3.1,2.7-4.9,3.5
		c-11.4,4.8-20.4,12.4-25.7,23.5c-3.1,6.4-6.3,12.3-11.7,17.1c-2.6,2.3-4.3,5.9-5.6,9.2c-6.2,15.9,0,30.8,16.7,41
		c-3.9,9.3-7.8,18.3-11.3,27.4c-0.5,0.7-0.8,1.5-1.1,2.4c-4.9,15.6-10.9,31.9-11.4,48.4c-2.8,26.9,0.1,53.2,10.9,78.3
		c8.4,19.5,23.3,29.2,44.5,29.2c70.9,0,141.9,0,212.8,0c3.1,0,6.2-0.1,9.2-0.6c20.2-3.3,31.5-16.4,38.1-34.9
		C838.8,760,836.9,722.2,824.7,684.6z M567.9,572.6c6.4-1.8,9.8-5.1,12.6-11.1c6.7-14.7,23.4-21.5,39.2-16.7
		c12.9,3.9,16.9,2.3,23.9-9.5c12.8-21.4,43.3-21.6,56.3-0.3c7.5,12.3,10.9,13.6,24.3,9.7c16.2-4.8,32.9,2.6,39.5,18.1
		c2.2,5.1,5.2,8,10.6,9.3c7.3,1.8,13,6.2,18,13.3c-80.6,0-160.1,0-240.4,0C555.4,578.4,561.2,574.4,567.9,572.6z M532.8,621.6
		c-2.3-8.7,3.6-17.3,12.6-18.3c1.7-0.2,3.4-0.1,5.2-0.1c80.9,0,161.8,0,242.7,0.1c3.2,0,6.6,0.3,9.5,1.5c5.8,2.3,9.4,9,8.5,14.9
		c-1,6.7-5.7,11.7-12.3,12.7c-2.6,0.4-5.3,0.4-8,0.4c-39.9,0-79.8,0-119.6,0c-40.3,0-80.5,0-120.8,0
		C540.2,632.7,534.8,629.2,532.8,621.6z M808,793.9c-6.7,17-14.5,22.1-32.8,22.1c-48.5,0-97,0-145.5,0c-21.5,0-43,0-64.4,0
		c-12.1,0-21.7-4.6-27.1-15.8c-6.1-12.7-10.1-26.1-10.9-40.2c-0.6-12,0-24.1,0.1-36.1c0-1.1-0.1-2.1-0.4-3.1
		c1.3-11.6,5.4-23.2,9-34.3c0.1-0.2,0.2-0.3,0.3-0.5c5.2-10.2,9.6-20.8,14.2-31.3c1.4-3.1,3.3-4.4,7-4.4c76.1,0.1,152.2,0.1,228.4,0
		c3.6,0,5.4,1.3,7.1,4.3c8.5,15.9,15.3,32.5,19.4,50.1C819.4,734.8,819.5,764.7,808,793.9z"/>
	<path d="M604.2,428.5c-12.2-24.9-24.6-49.8-36.7-74.7c-4-8.2-9.9-12.1-19.1-11.7c-9.1,0.4-18.3,0.1-27.1,0.1
		c-0.8-2.6-1.2-4.6-2-6.2c-13-26.6-26.1-53.3-39.2-79.9c-3-6-8.1-9.2-14.8-9.3c-26.1-0.1-52.2-0.1-78.2,0c-6.2,0-11.2,2.8-14.3,8.2
		c-1.7,3-3.3,6.2-4.8,9.4l-0.4-0.2l-17.9,38.6c-0.8,1-1.6,2.1-2.3,3.5c-5.8,11.7-11.5,23.6-17.5,35.8c-8.9,0-18.5,0.1-28.1,0
		c-7.5-0.1-12.8,3.3-16.1,9.9c-3.5,7-6.9,14.1-10.4,21.1c-10,20-19.9,40-29.9,59.9c0,3.1,0,6.1,0,9.2c4,9.6,11.3,12.9,21.5,12.7
		c19.2-0.5,38.3-0.1,57.5-0.1c19,0,38-0.1,57,0c19,0.2,38-0.2,57-0.1c49.9,0.2,99.7,0.1,149.6,0.1
		C603.6,454.7,611.1,442.6,604.2,428.5z M392.8,264c22.2,0.2,44.5,0.2,66.7,0c3.8,0,5.7,1.1,7.4,4.6c11.2,23.1,22.5,46.1,33.8,69.1
		c0.6,1.3,1,2.7,1.6,4.2c-51.1,0-101.6,0-152.1,0c-0.1-0.7-0.3-1.1-0.2-1.4c3.2-6.8,6.5-13.5,9.8-20.2l0.2,0.1l19.3-41.5
		c0.6-0.6,1.3-1.3,1.8-2.1c1.5-2.4,2.9-5,3.9-7.7C386.5,265.2,388.7,263.9,392.8,264z M263.7,437.1c0.8-1.9,1.3-3.4,2-4.9
		c11.2-22.8,22.5-45.7,33.6-68.5c1.5-3.2,3.3-4.4,6.9-4.4c22.6,0.2,45.2,0.1,67.9,0c2.9,0,4.8,0.3,6.3,3.4
		c11.5,23.8,23.2,47.4,34.9,71.1c0.4,0.8,0.6,1.7,1.1,3.3C365.2,437.1,314.8,437.1,263.7,437.1z M398.3,359.7c18.6,0,36.6,0,55.6,0
		c-9.1,18.6-18.1,36.9-27.8,56.6C416.5,396.8,407.5,378.5,398.3,359.7z M435.9,437c0.8-2,1.3-3.6,2.1-5.2
		c11.1-22.7,22.3-45.3,33.3-68c1.7-3.4,3.6-4.6,7.4-4.5c22.4,0.2,44.8,0,67.3,0.2c2.1,0,5.4,1.4,6.2,3.1c12,23.9,23.8,48,35.5,72
		c0.2,0.5,0.3,1.1,0.7,2.4C537.4,437,487.1,437,435.9,437z"/>
</g>
</svg>
