<?xml version="1.0" encoding="utf-8"?>
<!-- Generator: Adobe Illustrator 22.0.1, SVG Export Plug-In . SVG Version: 6.00 Build 0)  -->
<svg version="1.1" id="Layer_1" xmlns="http://www.w3.org/2000/svg" xmlns:xlink="http://www.w3.org/1999/xlink" x="0px" y="0px"
	 viewBox="0 0 1080 1080" style="enable-background:new 0 0 1080 1080;" xml:space="preserve">
<style type="text/css">
	.st0{fill:none;}
</style>
<g>
	<path d="M795.4,758.7c-2.8-0.2-5.7,0-8.7,0c0-71.9,0-143.2,0-214.7c1.7-0.1,3.2-0.2,4.7-0.2c10.9-0.1,13.8-4.6,9.3-14.7
		c-9.9-22.3-20-44.5-29.6-67c-2.6-6.1-6.4-8.3-12.9-8.3c-50.8,0.2-101.6,0.1-152.4,0c-2.5,0-5.6-0.8-7.2-2.4
		c-16.1-15.8-32.1-31.8-48-47.8c-1-1-2.4-2.5-2.4-3.7c-0.2-12.3-0.1-24.5-0.1-37.3c2.4,0,4.3,0,6.1,0c13.9,0,27.7,0,41.6,0
		c7.2,0,9.8-2.7,9.9-10c0.1-12.1,0.1-24.3,0-36.4c0-7.5-2.7-10.1-10.3-10.1c-16.9,0-33.9,0-50.8,0c-10.4,0-12.4,2-12.4,12.2
		c0,26.2,0.1,52.4-0.1,78.5c0,2.5-1.3,5.7-3.1,7.5c-15.1,15.4-30.5,30.5-45.6,45.9c-2.9,2.9-5.8,4-9.9,4
		c-50.6-0.1-101.3,0-151.9-0.2c-6.4,0-10,2.3-12.5,8.2c-6.6,15.7-13.7,31.3-20.7,46.8c-3.6,8-7.5,16-11.2,24c0,2.1,0,4.1,0,6.2
		c3.9,5.8,10,4.8,16.1,4.9c0,71.5,0,142.8,0,214.6c-5.4,0.8-11.9-1.3-16.1,4.4c0,2.1,0,4.1,0,6.2c2.5,4.5,6.5,5.2,11.3,5.2
		c167.7-0.1,335.4-0.1,503-0.1c1.4,0,2.7,0.1,4.1,0c4.3-0.4,7.3-3.6,7.2-7.8C802.8,762.1,799.9,759,795.4,758.7z M548.3,321.6
		c13.8,0,27.3,0,41.2,0c0,8.4,0,16.6,0,25c-13.7,0-27.2,0-41.2,0C548.3,338.3,548.3,330.1,548.3,321.6z M297.3,527.5
		c0.8-1.9,1.3-3.5,2-5c7.3-16.4,14.6-32.7,21.8-49.1c1.2-2.7,2.5-3.9,5.6-3.9c44.3,0.1,88.6,0.1,132.9,0.1c0.8,0,1.6,0.1,3.3,0.3
		c-1.4,1.6-2.3,2.7-3.3,3.8c-17,17.1-34,34.1-51.2,51.1c-1.6,1.6-4.3,3.1-6.5,3.1c-33.5,0.2-67,0.1-100.5,0.1
		C300.1,527.9,299,527.7,297.3,527.5z M597.7,758.2c-38.4,0-76.7,0-115.3,0c0-5.5,0-10.9,0-16.7c38.3,0,76.7,0,115.3,0
		C597.7,747,597.7,752.4,597.7,758.2z M498.8,725.4c0-19.3,0-38.4,0-58c11.1,0,21.8,0,32.9,0c0,19.3,0,38.5,0,58
		C520.8,725.4,509.9,725.4,498.8,725.4z M548.2,725.4c0-19.3,0-38.4,0-58c11.1,0,21.8,0,32.9,0c0,19.3,0,38.5,0,58
		C570.2,725.4,559.3,725.4,548.2,725.4z M770.8,758.4c-52.5,0-104.5,0-157,0c0-6.9,0-13.5,0-20.2c0-10.7-1.7-12.4-12.5-12.5
		c-1,0-2-0.1-3.7-0.2c-0.1-1.9-0.3-3.6-0.3-5.4c0-19.2,0-38.3,0-57.5c0-8.5-2.4-11-11-11c-31,0-62,0-92.9,0
		c-8.2,0-10.7,2.5-10.7,10.7c0,19,0,38,0,57c0,1.9,0,3.7,0,6.4c-2.7,0-5,0-7.3,0c-6.3,0.2-9,2.9-9.1,9.1c-0.1,7.7,0,15.4,0,23.4
		c-52.4,0-104.5,0-156.9,0c0-71.3,0-142.6,0-214.5c2.1,0,4.1,0,6,0c29.3,0,58.5-0.1,87.8,0.1c6,0.1,10.2-1.9,14.4-6.1
		c39.3-39.6,78.8-79,118.3-118.4c1.2-1.2,2.3-2.5,3.9-4.3c1.8,1.7,3.2,3,4.6,4.4c39.7,39.7,79.4,79.3,119,119.1
		c3.7,3.7,7.5,5.3,12.7,5.2c15.5-0.2,65.1,0,86.6-0.1c2.5,0.6,5.3,0.2,8.2,0.3C770.8,615.5,770.8,686.8,770.8,758.4z M766.3,527.9
		c-0.5,0-0.9,0-1.4,0c-15.1-0.1-71.2,0-86.3-0.1c-2,0-4.5-0.8-5.9-2.1c-18-17.8-35.9-35.7-53.8-53.6c-0.5-0.5-0.8-1-1.6-2.1
		c2-0.1,3.4-0.3,4.9-0.3c43.3,0,86.6,0,129.9-0.1c3.8,0,5.7,1.1,7.2,4.7c6.9,16.2,14.2,32.2,21.3,48.3c0.7,1.5,1.2,3.1,2.2,5.5
		C777,527.9,771.6,527.8,766.3,527.9z"/>
	<path d="M392,634.3c-18.3,0-36.6,0-54.9,0c-8.1,0-10.6-2.6-10.6-10.8c0-14.7,0-29.4,0-44.2c0-7.4,2.5-10.1,9.7-10.1
		c37.1-0.1,74.3-0.1,111.4,0c7,0,9.6,2.7,9.6,9.7c0.1,15.1,0.1,30.1,0,45.2c0,7.5-2.8,10.2-10.3,10.2
		C428.7,634.3,410.3,634.3,392,634.3z M441.2,618.2c0-11.2,0-22,0-32.8c-14,0-27.7,0-41.4,0c0,11.1,0,21.8,0,32.8
		C413.7,618.2,427.2,618.2,441.2,618.2z M342.2,585.1c0,11.3,0,22.1,0,33.1c14,0,27.8,0,41.4,0c0-11.3,0-22.1,0-33.1
		C369.7,585.1,356.3,585.1,342.2,585.1z"/>
	<path d="M688.4,634.3c-18.1,0-36.3,0-54.4,0c-8.7,0-11.2-2.4-11.2-10.8c0-14.5,0-29.1,0-43.6c0-8.3,2.4-10.7,10.8-10.7
		c36.5,0,72.9,0,109.4,0c8.2,0,10.6,2.5,10.6,10.8c0,14.7,0,29.4,0,44.2c0,7.4-2.7,10.2-10.2,10.2
		C725,634.3,706.7,634.3,688.4,634.3z M737.7,618.3c0-11.4,0-22.3,0-33.1c-14,0-27.6,0-41.4,0c0,11.1,0,22,0,33.1
		C710.2,618.3,723.8,618.3,737.7,618.3z M638.6,618.2c14.2,0,27.7,0,41.5,0c0-11.2,0-22,0-32.9c-14,0-27.7,0-41.5,0
		C638.6,596.5,638.6,607.2,638.6,618.2z"/>
	<path d="M687.9,716.5c-18.3,0-36.6,0-54.9,0c-7.5,0-10.1-2.6-10.2-10.2c-0.1-14.9-0.1-29.8,0-44.7c0-7.7,2.5-10,10.3-10
		c36.8,0,73.6,0,110.4,0c7.6,0,10.1,2.5,10.1,10.2c0,15.1,0,30.1,0,45.2c0,6.8-2.8,9.5-9.7,9.6C725.2,716.5,706.5,716.5,687.9,716.5
		z M738,667.6c-14.2,0-27.9,0-41.6,0c0,11.2,0,22.1,0,33c14,0,27.8,0,41.6,0C738,689.4,738,678.7,738,667.6z M680.1,700.7
		c0-11.5,0-22.3,0-33.3c-14,0-27.6,0-41.2,0c0,11.3,0,22.2,0,33.3C652.8,700.7,666.3,700.7,680.1,700.7z"/>
	<path d="M457.2,662.7c0-9-2.1-11.1-11.2-11.1c-29.6,0-59.2,0-88.7,0c-7.5,0-15-0.1-22.6,0.1c-5.4,0.1-8.2,3-8.2,8.4
		c-0.1,16.1-0.1,32.1,0,48.2c0,5,3,8,7.9,8.2c4.8,0.2,44.5,0.2,55.8,0c18.8,0,37.5,0,56.3,0c8.2,0,10.7-2.4,10.7-10.7
		C457.3,691.5,457.3,677.1,457.2,662.7z M342.3,701c0-11.7,0-22.6,0-33.4c14.1,0,27.8,0,41.6,0c0,11.2,0,21.9,0,33
		c-0.4,0.1-0.7,0.2-1,0.3C368.7,701,344.2,701,342.3,701z M441.3,700.7c-13.9,0-27.5,0-41.4,0c0-11.1,0-22,0-33.2
		c13.8,0,27.4,0,41.4,0C441.3,678.7,441.3,689.6,441.3,700.7z"/>
	<path d="M540.1,609.6c-31.1,0-57.2-25.9-57.3-57.1c-0.2-31.3,26.2-57.7,57.5-57.4c31.3,0.2,57.1,26.2,57.1,57.4
		C597.2,583.6,571.3,609.5,540.1,609.6z M581.5,552.4c0.1-23-18-41.3-41.1-41.5c-23.2-0.2-41.7,18.1-41.8,41.3
		c-0.1,23,18,41.3,41.1,41.6C562.8,594,581.4,575.6,581.5,552.4z"/>
	<path d="M532.1,560.4c0-2.2,0-4.4,0-6.7c0-4.1,1.8-7.1,5.6-8.9c4.9-2.3,9.7-5,14.7-7.3c4.6-2.2,9-0.8,11,3.1c2,4,0.5,8-4,10.7
		c-0.3,0.2-0.6,0.4-0.9,0.5c-8.4,2.3-12,7.3-10.8,16.4c0.6,4.9-3.5,8.4-7.8,8.4c-4.3,0-7.5-3.5-7.8-8.5
		C532,565.5,532.1,562.9,532.1,560.4C532.1,560.4,532.1,560.4,532.1,560.4z"/>
</g>
</svg>
