<?xml version="1.0" encoding="utf-8"?>
<!-- Generator: Adobe Illustrator 22.0.1, SVG Export Plug-In . SVG Version: 6.00 Build 0)  -->
<svg version="1.1" id="Layer_1" xmlns="http://www.w3.org/2000/svg" xmlns:xlink="http://www.w3.org/1999/xlink" x="0px" y="0px"
	 viewBox="0 0 1080 1080" style="enable-background:new 0 0 1080 1080;" xml:space="preserve">
<style type="text/css">
	.st0{fill:none;}
</style>
<g>
	<path d="M802.4,339.5c0.1-17.2-11.9-35.2-35-34.9c-25.8,0.3-51.6,0.1-77.4,0.1c-1.2-0.1-2.5,0-3.7,0c-0.8,0-1.6,0-2.4,0
		c-3.5,0-7-0.1-10.5,0c-104.9,0-256.5,0-357.6,0c-2,0-4.1-0.1-6.1,0c-14.8,0.5-26,8.8-30.9,22.7c-0.3,0.9-0.8,1.7-1.3,2.6
		c0,110,0,220,0,330c0.3,0.4,0.8,0.7,0.9,1.1c5.6,16.5,16.4,24.3,33.6,24.4c13.5,0,27,0,40.5,0c8.9,0,17.9,0,26.8,0
		c0.2,0,0.5,0,0.7,0c10.9,0,62.9,0,73.8,0c4.2,0,8.4,0,12.9,0c-2.4,14-4.5,27.3-7,40.5c-0.2,1.2-2.4,2.6-3.8,2.8
		c-3.5,0.4-7.2,0-10.7,0.2c-15.9,1-26.2,14.6-22.2,29.4c2.9,10.7,12.1,17.1,24.9,17.1c61.1,0,122.3,0,183.4,0c1.7,0,3.4,0,5.1-0.2
		c12.1-1.6,20.8-11,21-22.7c0.2-11.6-8.3-21.4-20.4-23.2c-4.4-0.6-8.9-0.2-13.3-0.6c-1.4-0.1-3.7-1.2-3.8-2.1
		c-2.5-13.5-4.7-27.1-7.1-41.2c2.5,0,4.6,0,6.6,0c49.4,0,98.7,0,148.1,0c21.2,0,34.6-13.4,34.6-34.4
		C802.2,547.1,802,443.3,802.4,339.5z M292.9,622.1c0-93.8,0-187.5,0-281.3c0-14.6,5.8-20.4,20.5-20.4c101.5,0,253.4,0,359,0
		c1.2,0.1,2.5,0,3.7,0c30.2,0,60.5,0,90.7,0c14.2,0,20.1,5.9,20.1,20.3c0,93.9,0,187.9,0,281.8c0,1.9,0,3.7,0,5.9
		c-164.8,0-329.1,0-494,0C292.9,626.2,292.9,624.2,292.9,622.1z M633,744.7c4.4,0,7.8,1.3,8.7,6.1c0.8,4.5-1.9,8.2-6.4,8.7
		c-1.7,0.2-3.4,0.1-5.1,0.1c-60.1,0-120.2,0-180.3,0c-0.2,0-0.3,0-0.5,0c-8.1,0-11.5-2.3-11.4-7.6c0.1-5.2,3.5-7.4,11.7-7.4
		c31.2,0,102.6,0,134.4,0c1.1,0.1,2.3,0,3.4,0C602.6,744.7,617.8,744.7,633,744.7z M587.7,728.9c-0.7,0-1.5,0-2.3,0
		c-0.1,0-0.3,0-0.4,0c-20.8,0-82.6,0-103.5,0c-1.9,0-3.7,0-6.3,0c2.6-14.8,5-28.9,7.5-43.2c38.2,0,76.2,0,114.5,0
		c2.5,14.2,4.9,28.2,7.5,43.2C598.8,728.9,593.2,728.8,587.7,728.9z M764.4,670c-108.6-0.4-217.2-0.2-325.9-0.2
		c-5.6,0-49.7-0.1-57.7,0c-0.9,0-1.9,0-2.8,0c-22,0-44.1-0.1-66.1,0c-6.6,0-12.1-1.7-16-7.3c-3.7-5.5-3.2-11.5-2.7-17.7
		c164.7,0,329,0,493.3,0C788.8,660,782.7,670,764.4,670z"/>
	<path d="M612.7,535.6c-3.7,7.1-7.2,13.5-10.2,20.1c-2.4,5.2-5.9,7.3-11.6,7.1c-8.9-0.4-17.8-0.1-26.6-0.1c-5.8,0-8.9-2.7-9-7.5
		c-0.1-5,3.1-7.8,9.1-7.9c6.3,0,12.7-0.4,18.9,0.1c4.8,0.4,7-1.6,8.8-5.6c4-8.5,8.4-16.8,12.6-25.1c1.7-3.4,3.8-6.2,8-6.2
		c4.2,0,6.3,2.8,8,6.2c9.6,19,19.3,38,29.4,57.8c1.1-2.1,2-3.5,2.8-5.1c10.8-21.1,21.6-42.2,32.2-63.3c1.8-3.5,3.8-6.7,8.2-6.7
		c4.4,0,6.5,3.1,8.3,6.6c6.4,12.6,12.9,25.2,19.1,37.9c1.3,2.7,2.9,3.6,5.9,3.5c7.2-0.2,14.3-0.1,21.5,0c5.1,0.1,8.5,3.1,8.6,7.5
		c0.1,4.6-3.3,7.8-8.8,7.8c-9.6,0.1-19.1-0.1-28.7,0.1c-4.5,0.1-7.3-1.9-9.3-5.8c-5.3-10.6-10.8-21.2-16.5-32.5
		c-1.2,2.2-2.1,3.6-2.9,5.2c-10.7,21-21.3,41.9-32,62.9c-1.8,3.6-3.8,7-8.6,6.9c-4.5-0.1-6.4-3.3-8.1-6.8
		c-8.7-17.2-17.4-34.3-26.2-51.5C614.9,539.6,614,538,612.7,535.6z"/>
	<path d="M756.8,418.2c0,15.9,0,31.7,0,47.6c0,8.3-2.5,10.7-10.6,10.8c-11.9,0-23.9,0-35.8,0c-6.3,0-9.2-2.7-9.2-9
		c-0.1-32.8-0.1-65.5,0-98.3c0-6.5,3-9.3,9.5-9.4c11.9-0.1,23.9,0,35.8,0c7.4,0,10.2,2.8,10.3,10.2
		C756.9,386.1,756.8,402.1,756.8,418.2z M740.8,461c0-28.6,0-56.7,0-85.1c-8,0-15.7,0-23.4,0c0,28.6,0,56.8,0,85.1
		C725.3,461,732.8,461,740.8,461z"/>
	<path d="M555.2,428.6c0-12.8,0-25.6,0-38.4c0-7.6,2.5-9.9,10.2-10c11.9,0,23.9,0,35.8,0c6.5,0,9.3,2.8,9.3,9.4
		c0,25.9,0,51.8,0,77.8c0,6.3-2.8,9.1-9,9.1c-12.4,0.1-24.9,0.1-37.3,0c-6.3,0-8.9-2.7-8.9-9.1C555.1,454.5,555.2,441.5,555.2,428.6
		z M571,395.9c0,21.9,0,43.4,0,64.9c8.1,0,15.9,0,23.7,0c0-21.8,0-43.2,0-64.9C586.7,395.9,579.1,395.9,571,395.9z"/>
	<path d="M628.3,439.5c0-9,0-18.1,0-27.1c0.1-7.4,2.8-10.2,10.2-10.3c11.8-0.1,23.5-0.1,35.3,0c7.2,0.1,10,2.8,10,9.9
		c0.1,18.2,0.1,36.5,0,54.7c0,7.3-2.6,9.8-9.9,9.8c-11.9,0-23.9,0-35.8,0c-7.1,0-9.8-2.7-9.8-10
		C628.2,457.5,628.3,448.5,628.3,439.5z M644.5,418.1c0,14.6,0,28.7,0,42.8c8,0,15.6,0,23.4,0c0-14.4,0-28.4,0-42.8
		C660,418.1,652.4,418.1,644.5,418.1z"/>
	<path d="M417.4,462.3c-27.5,0-55,0-82.5,0c-1.5,0-3.1,0.1-4.6-0.1c-4.3-0.4-7.7-3.6-7.4-7.6c0.3-4.2,2.7-6.9,6.9-7.7
		c1-0.2,2-0.1,3.1-0.1c56.5,0,113,0,169.5,0c1.2,0,2.4-0.1,3.6,0.1c4.2,0.9,6.7,3.6,6.5,7.9c-0.2,4.3-2.6,6.9-7.1,7.3
		c-1.5,0.1-3.1,0.1-4.6,0.1C473.1,462.3,445.2,462.3,417.4,462.3z"/>
	<path d="M417.7,543.5c-27.3,0-54.6,0-81.9,0c-1.7,0-3.4,0-5.1-0.1c-4.6-0.3-7.2-2.9-7.7-7.4c-0.4-4,3.1-7.6,7.6-8.1
		c1.3-0.2,2.7-0.1,4.1-0.1c55.5,0,111,0,166.4,0c2.2,0,4.5,0.1,6.5,0.8c3.7,1.2,5.3,4.2,4.8,8c-0.4,3.6-2.5,5.9-6.2,6.5
		c-1.8,0.3-3.7,0.3-5.6,0.3C473,543.6,445.4,543.5,417.7,543.5z"/>
	<path d="M417.4,375.5c-27.5,0-55,0-82.5,0c-8.1,0-12.1-2.6-12.1-7.8c0-5.2,4-7.8,12.1-7.8c55.3,0,110.6,0,165.9,0
		c1.5,0,3.1-0.1,4.6,0.1c4.3,0.6,7.3,4,7.1,8c-0.3,4.3-2.7,6.9-7.1,7.4c-1.9,0.2-3.7,0.2-5.6,0.2
		C472.4,375.5,444.9,375.5,417.4,375.5z"/>
	<path d="M384.6,416.2c-17.2,0-34.5,0-51.7,0c-6.4,0-10-2.8-10-7.6c0-4.8,3.8-7.8,10-7.8c34.6,0,69.3,0,103.9,0c6.2,0,9.9,3.1,9.7,8
		c-0.1,4.7-3.6,7.4-9.7,7.4C419.5,416.2,402,416.2,384.6,416.2z"/>
	<path d="M451.3,503.1c-17.4,0-34.8,0-52.2,0c-6.2,0-9.9-3-9.7-7.9c0.2-4.7,3.7-7.4,9.7-7.4c34.6,0,69.3,0,103.9,0
		c6.1,0,9.5,2.6,9.6,7.4c0.2,5-3.4,7.9-9.7,7.9C485.7,503.1,468.5,503.1,451.3,503.1z"/>
	<path d="M371.8,584.1c-13.1,0-26.3,0-39.4,0c-5.9,0-9.5-3-9.5-7.7c0-4.7,3.6-7.6,9.5-7.6c26.3,0,52.6,0,78.8,0c5.7,0,9,2.7,9.2,7.4
		c0.2,4.8-3.3,7.9-9.1,7.9C398.1,584.1,385,584.1,371.8,584.1z"/>
	<path d="M345.9,503.1c-4.9,0-9.9,0.1-14.8,0c-4.7-0.1-8-3.2-8.1-7.4c-0.1-4.4,3.3-7.8,8.3-7.8c10.1-0.1,20.1-0.1,30.2,0
		c5,0,8.4,3.3,8.4,7.7c0,4.4-3.4,7.5-8.5,7.6C356.1,503.2,351,503.1,345.9,503.1z"/>
	<path d="M489.4,416.1c-5.1,0-10.2,0.1-15.3,0c-4.7-0.1-7.9-3.5-7.8-7.7c0.1-4,3.1-7.5,7.5-7.6c10.6-0.2,21.1-0.2,31.7,0
		c4.3,0.1,7.3,3.7,7.3,7.7c0,4.2-2.9,7.3-7.4,7.5C499.9,416.3,494.6,416.1,489.4,416.1z"/>
</g>
</svg>
