<?xml version="1.0" encoding="utf-8"?>
<!-- Generator: Adobe Illustrator 22.0.1, SVG Export Plug-In . SVG Version: 6.00 Build 0)  -->
<svg version="1.1" id="Layer_1" xmlns="http://www.w3.org/2000/svg" xmlns:xlink="http://www.w3.org/1999/xlink" x="0px" y="0px"
	 viewBox="0 0 1080 1080" style="enable-background:new 0 0 1080 1080;" xml:space="preserve">
<style type="text/css">
	.st0{fill:none;}
</style>
<path d="M510.1,801c-9.3-1.7-18.8-2.7-27.9-5.2c-70.3-19-115.7-63.6-135-133.9c-8.7-31.7-6.4-64-0.7-96c5.8-33.3,17-64.8,30.8-95.6
	c1.7-3.7,3.3-4,6.9-2.9c21.1,6.3,42.2,12.4,64,18.7c0.9-5.6,1.7-11.1,2.7-16.5c13.5-70.2,51.5-122.6,113.7-157.6
	c18.9-10.6,38.2-20.7,57.3-31c1.2-0.6,2.4-1.2,4.4-2.1c-0.9,7.9-1.8,15.1-2.5,22.4c-1.9,22.3-5.6,44.7-5.2,66.9
	c0.8,42.3,17.7,78.3,49.3,106.9c17.9,16.2,35.4,32.7,47.8,53.9c16.9,29,23.4,60.4,22.9,93.7c-1.1,85.1-66.3,161.2-150.4,175.1
	c-6,1-12,2-17.9,3C550.2,801,530.1,801,510.1,801z M592.6,518.1c-1.7,14.6-2.9,27.7-4.7,40.8c-3.8,27,2.4,50.3,24,68.1
	c37.9,31.3,43.1,79.6,26,116.7c-0.2,0.5-0.1,1.2-0.2,2.1c1.4-0.8,2.5-1.4,3.4-2.1c52.4-36,76.2-96.8,63.3-159
	c-6.5-31.3-23.2-56.5-47-77.3c-15-13.1-29.2-27-40.1-43.8c-24.6-37.8-33.6-79.2-28.8-123.8c0.2-1.6,0-3.3,0-6.1
	C511.1,375.5,475.1,439.8,478.1,527c-27.6-8-54.3-15.8-81.1-23.6c-0.6,1.4-1.1,2.3-1.4,3.3c-12.3,31.4-20.5,63.8-22.6,97.7
	c-2.8,45.7,10.8,85.3,42.2,118.7c8.1,8.6,17.1,16.2,27.9,22.8c-19.5-45.9-6.4-87.7,12.3-129.2c11,3.2,21.5,6.2,31.8,9.2
	c0.6-0.7,0.8-0.9,1-1.2c0.2-0.6,0.4-1.3,0.6-1.9c4.3-20.7,13.7-38.9,27.6-54.8C536.7,544.1,566,534.3,592.6,518.1z M473.1,653.9
	c-1.3,4-2.8,7.5-3.6,11.1c-1.9,8.8-3.8,17.6-5,26.4c-4.1,30.6,11.9,59.7,39.6,72.6c14.5,6.8,30,6.8,45.4,6.2
	c46.2-1.9,77.4-46,63.5-89.6c-4.3-13.7-13.9-23.4-24.2-32.7c-16.5-14.7-27-32.9-31-54.7c-1.1-6.2-1.7-12.5-2.6-18.9
	c-0.7,0.4-1.2,0.7-1.6,1c-23,17.2-35.5,40.1-36.6,68.9c-0.3,7.2,0,14.5,0,22.5C502,662.3,487.9,658.2,473.1,653.9z"/>
</svg>
