<?xml version="1.0" encoding="utf-8"?>
<!-- Generator: Adobe Illustrator 22.0.1, SVG Export Plug-In . SVG Version: 6.00 Build 0)  -->
<svg version="1.1" id="Layer_1" xmlns="http://www.w3.org/2000/svg" xmlns:xlink="http://www.w3.org/1999/xlink" x="0px" y="0px"
	 viewBox="0 0 1080 1080" style="enable-background:new 0 0 1080 1080;" xml:space="preserve">
<style type="text/css">
	.st0{fill:none;}
</style>
<g>
	<path d="M743.4,693.5c-2.3-0.2-4.6,0-7.2,0c0-28,0-55.6,0-83.6c2.3,0,4.2,0,6.2,0c7.9-0.1,12.1-3.9,12.3-11.8c0.2-8,0.2-16,0-24
		c-0.2-7.7-4.5-11.7-12.4-12c-2.1-0.1-4.1,0-6.1,0c0-28.2,0-55.6,0-83.3c2.5,0,4.7,0.1,6.8,0c7-0.4,11.3-4.2,11.6-11.2
		c0.4-8.5,0.4-17,0-25.5c-0.3-7.3-4.6-11-12-11.1c-2.1,0-4.2,0-6.8,0c0-2.4,0-4.1,0-5.9c0-23.8,0-47.7,0-71.5c0-13.5-4.5-18-17.9-18
		c-30.7,0-90.6,0-122.1,0c0-12.5,0-24.7,0-36.4c0-7-2.3-12.3-8.9-15.2c-31.7,0-63.3,0-95,0c-6.3,3.4-8.3,8.6-8.1,15.7
		c0.4,11.8,0.1,23.6,0.1,35.9c-2.5,0-4.4,0-6.4,0c-38.3,0-76.7,0-115,0c-14.8,0-18.8,4-18.8,18.5c0,23.7,0,47.3,0,71
		c0,1.8,0,3.6,0,5.9c-2.8,0-5.1-0.1-7.4,0c-7.3,0.2-11.3,4.3-11.4,11.7c-0.1,8.2-0.1,16.3,0,24.5c0.1,7,4,11.1,11,11.6
		c2.4,0.2,4.9,0,7.4,0c0,28.1,0,55.5,0,83.3c-2.3,0-4.3-0.1-6.3,0c-8.2,0.3-12.1,4.4-12.2,12.5c0,8.2-0.1,16.3,0,24.5
		c0.1,6.4,4.3,10.5,10.7,10.8c2.6,0.1,5.2,0,7.6,0c0,28.2,0,55.6,0,83.5c-2.2,0-4-0.1-5.8,0c-8.9,0.3-12.6,4.2-12.6,13.1
		c0,7.5,0,15,0,22.5c0.1,8,3.8,11.9,11.8,12.3c2.2,0.1,4.5,0.2,7,0.3c0,12.8,0.4,25-0.1,37.1c-0.5,12.3,6.8,17.4,17.1,17.3
		c118-0.2,236-0.3,353.9,0c17.5,0.1,21.9-5.9,21.2-21.4c-0.5-10.9-0.1-21.9-0.1-33.4c2.9,0,5.2,0.1,7.5,0
		c7.1-0.5,11.1-4.2,11.4-11.3c0.3-8.3,0.3-16.7,0-25C754.5,697.7,750.6,694.1,743.4,693.5z M340.2,463.2c0-5.7,0-11.1,0-16.9
		c35.6,0,71.2,0,107.3,0c0,5.7,0,11.1,0,16.9C411.8,463.2,376.1,463.2,340.2,463.2z M387.1,430.7c0-8.9,0-17.5,0-26.5
		c13.2,0,26.4,0,39.9,0c0,8.8,0,17.5,0,26.5C413.8,430.7,400.7,430.7,387.1,430.7z M340.3,594.6c0-5.6,0-11,0-16.8
		c35.7,0,71.4,0,107.3,0c0,5.6,0,11.1,0,16.8C411.8,594.6,376.2,594.6,340.3,594.6z M387.2,561.8c0-8.8,0-17.5,0-26.6
		c13.4,0,26.5,0,39.8,0c0,9,0,17.7,0,26.6C413.7,561.8,400.6,561.8,387.2,561.8z M340.3,725.6c0-5.6,0-11,0-16.7
		c36,0,71.4,0,107.2,0c0,5.6,0,11,0,16.7C411.8,725.6,376.2,725.6,340.3,725.6z M387.2,693.1c0-8.8,0-17.5,0-26.6
		c13.2,0,26.3,0,39.7,0c0,8.9,0,17.6,0,26.6C413.7,693.1,400.6,693.1,387.2,693.1z M484,404.1c-0.1,1.4,0,2.8,0,4.2
		c0,122,0,244,0,365.9c0,2.1,0,4.2,0,6.3c-42,0-83.4,0-124.8,0c0-13.1,0-25.9,0-39.3c2,0,3.8,0,5.6,0c19.7,0,39.3,0,59,0
		c9,0,18,0.1,27-0.1c7.6-0.2,11.9-4,12.1-11.1c0.3-8.5,0.2-17,0-25.5c-0.2-6.6-3.9-10.3-10.5-11.1c-3.1-0.3-6.2-0.3-9.6-0.5
		c0-9.5,0.1-18.5,0-27.4c-0.1-10.1-4.6-14.6-14.7-14.6c-13.3,0-26.7,0-40,0c-12.6,0-16.4,3.8-16.4,16.3c0,8.5,0,16.9,0,25.7
		c-4.4,0-8.3,0-12.2,0c0-27.9,0-55.4,0-83.1c2.2,0,4.1,0,5.9,0c28.3,0,56.7,0,85,0c8.5,0,12.6-4.1,12.7-12.5c0.1-7.7,0.1-15.3,0-23
		c-0.1-7.8-4.3-11.9-12-12.3c-2.6-0.1-5.2,0-8.2,0c0-9.8,0.1-19,0-28.1c-0.1-9.7-4.6-14-14.1-14c-13.7,0-27.3,0-41,0
		c-12.4,0-15.9,3.6-15.9,16.2c0,8.5,0,16.9,0,25.7c-4.4,0-8.3,0-12.3,0c0-27.7,0-55.1,0-82.9c2.1,0,3.9,0,5.7,0c28.3,0,56.7,0,85,0
		c8.2,0,12.7-3.9,13-11.3c0.3-8.5,0.3-17,0-25.5c-0.2-6.9-4.6-10.9-11.6-11c-2.8-0.1-5.5,0-8.6,0c0-4.7,0.1-8.7,0-12.7
		c-0.1-6.6,0-13.3-0.7-19.9c-0.6-5.7-4.3-8.7-9.9-9.5c-1.2-0.2-2.3-0.3-3.5-0.3c-14.3,0-28.7-0.1-43,0c-9.8,0.1-13.8,4.3-14,14.1
		c-0.1,2.7,0,5.3,0,8c0,6.6,0,13.3,0,19.9c-4.5,0-8.4,0-12.3,0c0-26.7,0-53.1,0-79.4c41.7,0,83.1,0,124.7,0
		C484.1,357.2,484,387.9,484,404.1z M739.2,577.7c0,5.6,0,11.1,0,16.9c-35.6,0-71.2,0-107,0c0-5.6,0-11,0-16.9
		C667.8,577.7,703.3,577.7,739.2,577.7z M652.4,561.7c0-8.8,0-17.4,0-26.4c13.3,0,26.5,0,40.2,0c0,8.5,0,17.2,0,26.4
		C679.4,561.7,666,561.7,652.4,561.7z M739.1,446.2c0,5.7,0,11.2,0,17.1c-35.6,0-71,0-106.9,0c0-5.9,0-11.4,0-17.1
		C667.9,446.2,703.3,446.2,739.1,446.2z M652.4,430.5c0-9,0-17.6,0-26.5c13.5,0,26.8,0,40.3,0c0,8.8,0,17.4,0,26.5
		C679.5,430.5,666.1,430.5,652.4,430.5z M580.6,774.7c0,2,0,3.9,0,5.9c-27.5,0-54.4,0-81.6,0c0-2.5,0-4.6,0-6.8
		c0-121.8,0-243.6,0-365.4c0-1.5,0.1-3,0-4.4c0-26.8,0-79.2,0-99.4c0-1.8,0-3.5,0-5.3c27.5,0,54.2,0,81.6,0c0,2.5,0,4.8,0,7.1
		c0,122.3,0,294.6,0,416.9c0,0.2,0,0.4,0,0.6C580.6,740.8,580.6,757.7,580.6,774.7z M720.5,780.5c-41.7,0-83,0-124.7,0
		c0-17.7,0-35.1,0-52.6c0-0.8,0-1.6,0-2.4c0-109,0-255.8,0-374.8c30.4,0,89.1,0,118.7,0c1.9,0,3.9,0,5.8,0c0,27.1,0,53.5,0,79.8
		c-4.3,0-8.2,0-12.5,0c0-9.5,0-18.6,0-27.8c0-10-4.2-14.2-14.3-14.3c-14.2-0.1-28.3-0.1-42.5,0c-10,0.1-14.1,4.4-14.1,14.5
		c0,9.1,0,18.2,0,27.9c-2.8,0-5.1,0-7.3,0c-9,0.1-12.7,3.8-12.8,12.7c-0.1,7,0,14,0,21c0,10.5,3.6,14.1,14.1,14.1
		c27.8,0,55.7,0,83.5,0c1.9,0,3.9,0,6.1,0c0,28,0,55.4,0,83c-4.2,0-8.1,0-12.5,0c0-9.6,0-18.8,0-28.1c0-9.4-4.3-13.7-13.8-13.7
		c-13.8,0-27.7,0-41.5,0c-11.8,0-15.6,3.7-15.6,15.4c0,8.8,0,17.5,0,26.7c-2.9,0-5.2,0-7.5,0c-8.5,0.2-12.5,4.1-12.6,12.6
		c-0.1,7.3-0.1,14.7,0,22c0.1,9.7,3.6,13.2,13.3,13.2c28.3,0,56.7,0,85,0c1.8,0,3.5,0,5.3,0c0,28.1,0,55.6,0,83.2
		c-4.2,0-8.1,0-12.5,0c0-9.3,0-18.2,0-27.2c0-10.5-4.3-14.8-14.9-14.8c-13.3,0-26.7,0-40,0c-12.1,0-16.1,4-16.1,16.2
		c0,8.6,0,17.2,0,26.2c-3.2,0-5.7-0.1-8.1,0c-8.3,0.4-11.9,4.2-12,12.6c-0.1,6.8,0,13.7,0,20.5c0,11.6,3.2,14.7,14.9,14.7
		c27.7,0,55.3,0,83,0c1.9,0,3.9,0.2,5.8,0.2C720.5,754.9,720.5,767.7,720.5,780.5z M692.8,666.6c0,8.8,0,17.4,0,26.4
		c-13.6,0-26.9,0-40.3,0c0-8.9,0-17.5,0-26.4C665.9,666.6,679.2,666.6,692.8,666.6z M739.3,725.7c-35.7,0-71.2,0-107,0
		c0-5.5,0-10.9,0-16.6c35.5,0,71,0,107,0C739.3,714.8,739.3,720.1,739.3,725.7z"/>
	<path d="M564,404c0,9.3,0,18.6,0,27.9c0,6.5-2.5,9.1-9,9.2c-10.1,0.1-20.3,0.1-30.4,0c-6.2-0.1-8.8-2.6-8.9-8.9
		c-0.1-19.1-0.1-38.3,0-57.4c0-6.1,3-8.8,9-8.8c10.1-0.1,20.3-0.1,30.4,0c6,0.1,8.8,2.9,8.8,9C564.1,384.7,564,394.3,564,404z
		 M531.2,381.4c0,15,0,29.6,0,44.3c6,0,11.7,0,17.5,0c0-14.9,0-29.5,0-44.3C542.8,381.4,537.2,381.4,531.2,381.4z"/>
	<path d="M564,679.1c0,9.5,0,19,0,28.4c0,6.3-2.8,9.2-9.1,9.2c-10,0.1-20,0.1-29.9,0c-6.3-0.1-9.2-2.7-9.3-9.1
		c-0.1-19-0.1-37.9,0-56.9c0-6.5,2.7-9,9.2-9.1c10.1-0.1,20.3-0.1,30.4,0c6.1,0.1,8.7,2.8,8.7,9C564,660.1,564,669.6,564,679.1z
		 M531.1,701.2c6.3,0,12,0,17.6,0c0-15,0-29.6,0-44c-6.1,0-11.8,0-17.6,0C531.1,672.1,531.1,686.5,531.1,701.2z"/>
	<path d="M564,541.4c0,9.5,0,19,0,28.4c0,6.4-2.7,9-9.2,9c-10,0.1-20,0.1-29.9,0c-6.4,0-9.2-2.6-9.2-9c-0.1-19-0.1-37.9,0-56.9
		c0-6.5,2.8-9,9.2-9c10,0,20,0,29.9,0c6.5,0,9.1,2.6,9.2,9C564,522.4,564,531.9,564,541.4z M548.6,563.7c0-15.1,0-29.8,0-44.4
		c-6.1,0-11.8,0-17.5,0c0,15,0,29.6,0,44.4C537.1,563.7,542.7,563.7,548.6,563.7z"/>
</g>
</svg>
