<?xml version="1.0" encoding="utf-8"?>
<!-- Generator: Adobe Illustrator 22.0.1, SVG Export Plug-In . SVG Version: 6.00 Build 0)  -->
<svg version="1.1" id="Layer_1" xmlns="http://www.w3.org/2000/svg" xmlns:xlink="http://www.w3.org/1999/xlink" x="0px" y="0px"
	 viewBox="0 0 1080 1080" style="enable-background:new 0 0 1080 1080;" xml:space="preserve">
<style type="text/css">
	.st0{fill:none;}
</style>
<g>
	<path d="M639.7,711.3c-26.2,0-52.5,0-78.7,0c-14.8,0-24.3-9-24.3-23.7c-0.1-40.6-0.1-81.3,0-121.9c0.1-14.3,9.6-23.6,23.9-23.6
		c52.9-0.1,105.8-0.1,158.6,0c14.2,0,23.7,9.7,23.7,23.8c0,40.6,0,81.3,0,121.9c0,13.9-9.6,23.5-23.4,23.5
		C693,711.3,666.3,711.3,639.7,711.3z M554.5,649.7c57.3,0,113.8,0,170.7,0c0-28.2,0-56,0-83.8c0-4.9-3.3-6.2-7.6-6.2
		c-51.9,0-103.8,0-155.7,0c-5.6,0-7.6,2.5-7.5,8c0.2,12.8,0.1,25.6,0.1,38.5C554.5,620.6,554.5,634.9,554.5,649.7z M725.2,668.8
		c-57.2,0-113.7,0-170.1,0c-0.3,0.7-0.5,1.1-0.5,1.4c-0.1,4.7-0.1,9.5-0.1,14.2c0,8.2,0.9,9.1,9.2,9.1c50.7,0,101.4,0,152,0
		c1.2,0,2.4,0,3.5,0c3.7-0.2,5.9-2.2,5.9-6C725.3,681.5,725.2,675.4,725.2,668.8z"/>
	<path d="M380.7,650c0-4.7-0.1-9.5,0-14.2c0.2-6.3,3.7-10.2,9.1-10.2c5.3,0,8.8,3.5,9,9.6c0.2,10.1,0.2,20.1,0,30.2
		c-0.1,6-4,9.8-9,9.7c-5.2,0-8.8-4.1-9.1-10.4c0-0.2,0-0.4,0-0.6C380.7,659.5,380.7,654.8,380.7,650z"/>
	<path d="M818.7,426.6c0-1.7-1.4-3.6-2.5-5.2c-20.9-31.3-41.9-62.6-62.8-94c-2.8-4.2-6.3-6.1-11.3-5.9c-7.2,0.3-14.5,0.1-22.1,0.1
		c0,0,0,0,0-0.1l-359.1,0c0,0,0,0.1,0,0.1c-7.4,0-13.9,0.4-20.3-0.1c-6.8-0.5-10.9,2.3-14.5,7.8c-15.5,23.6-30.1,47.8-47.3,70.1
		c-13.9,18.1-18.9,36.9-17.1,59.2c1.6,18.7,8.8,33.4,24.1,43.8c3.6,2.4,4.7,4.9,4.7,9c-0.1,73.6-0.1,147.3-0.1,220.9
		c0,17.2,9.1,26.3,26.2,26.3c69.9,0,139.8,0,209.7,0c80,0,159.9,0,239.9,0c14.3,0,24.1-9.9,24.2-24.2c0-5.1,0-10.3,0-15.4
		c0-23.9,0-47.7,0-71.6c0-0.5,0.1-1.1,0.1-1.7c-0.1-29.2,0-105.8-0.1-135.1c0-3.7,0.9-6,4.2-8.1c12.5-8.1,21.3-19.4,23.1-34.2
		C819.2,454.7,818.6,440.5,818.7,426.6z M682.8,339.2c7.6,0,15.1,0,22.7,0c10.1,0,20.1-0.1,30.2,0.1c2,0.1,4.7,1.2,5.8,2.8
		c16.8,24.8,33.4,49.8,50.1,74.7c0.3,0.5,0.4,1.1,0.9,2.5c-21.9,0-43,0.1-64-0.1c-1.5,0-3.7-1.5-4.4-2.9
		c-13.8-25-27.5-50.1-41.2-75.2C682.6,340.9,682.8,340.4,682.8,339.2z M613.2,339.2c15.1,0,30.3-0.1,45.4,0.1c1.3,0,3.2,1.4,3.9,2.6
		c13.8,25,27.5,50,41.2,75.1c0.2,0.3,0.1,0.8,0.3,2.2c-10.7,0-20.9,0-31.1,0c-10.5,0-20.9,0.2-31.4-0.2c-1.9-0.1-4.9-1.8-5.4-3.4
		c-7.9-24.9-15.5-50-23.1-75C612.9,340.5,613.1,340,613.2,339.2z M711.6,437.7c-0.6,10.1,0,20-2,29.5c-3.6,17.2-20.4,27.9-38.9,26.2
		c-16-1.5-29.8-15.6-31-32.2c-0.5-7.6-0.1-15.3-0.1-23.4C663.7,437.7,687.1,437.7,711.6,437.7z M550,339.2c13.8,0,27.2-0.1,40.6,0.1
		c1.4,0,3.5,1.7,4,3.1c7.8,25.1,15.5,50.3,23.3,76.2c-22.8,0-45.1,0-67.9,0C550,392.6,550,366.3,550,339.2z M549.6,437.7
		c24.2,0,47.6,0,72,0c-0.5,9.9,0.1,19.6-1.8,28.9c-3.8,18.1-20.8,28.9-39.6,26.7c-16.7-1.9-30-16.9-30.6-34.5
		C549.4,452,549.6,445.1,549.6,437.7z M485.6,344.1c1-3.6,2.4-5.1,6.3-5c12.8,0.3,25.6,0.1,38.8,0.1c0,26.7,0,53,0,79.7
		c-22.7,0-44.9,0-68,0c2.2-7.1,4.2-13.6,6.2-20.1C474.6,380.6,480.2,362.4,485.6,344.1z M531.8,437.7c-0.6,10.1,0.1,20.1-2.1,29.5
		c-4.1,17.8-21.2,28.4-39.6,26c-16.8-2.2-30-17.3-30.4-34.8c-0.1-6.7,0-13.4,0-20.7C483.8,437.7,507.2,437.7,531.8,437.7z
		 M424.4,339.1c14.4,0.2,28.8,0.1,43.9,0.1c-4.4,14.4-8.7,28.2-12.9,42.1c-3.4,11.3-6.7,22.6-10.4,33.8c-0.5,1.6-2.5,4-3.9,4
		c-21.3,0.3-42.5,0.2-64.9,0.2c1.1-2.4,1.7-3.9,2.4-5.2c12.8-23.5,25.8-47,38.5-70.5C418.9,340.5,420.7,339.1,424.4,339.1z
		 M439.1,470.4c-5.9,16.1-22.7,25.6-39.7,22.8c-16.7-2.8-29.5-17.7-29.7-34.8c-0.1-6.7,0-13.4,0-20.7c24.1,0,47.5,0,71.6,0
		C441.2,448.8,443,459.8,439.1,470.4z M291.3,413.8c15.6-23.5,31.4-46.8,46.9-70.4c2.1-3.2,4.3-4.4,8.1-4.3
		c17.2,0.2,34.3,0.1,52.8,0.1c-2.1,3.9-3.7,6.8-5.3,9.7c-12,21.9-24,43.9-36.1,65.8c-1.1,1.9-3.5,4.4-5.3,4.4
		c-21.1,0.3-42.2,0.2-64.3,0.2C289.4,417,290.3,415.4,291.3,413.8z M279.8,460.1c-0.4-7.3-0.1-14.5-0.1-22.2c23.9,0,47.5,0,72.4,0
		c-0.5,9.6,0,19-1.6,28c-3.2,17.5-19.9,28.9-38.6,27.5C295.3,492.2,280.7,477.2,279.8,460.1z M471.2,740.6c-38.3,0-76.6,0-115.2,0
		c0-60.1,0-120.1,0-180.6c38.6,0,76.7,0,115.2,0C471.2,620.2,471.2,680.3,471.2,740.6z M772.7,730.7c0,8.8-1.4,10.2-10.3,10.2
		c-88.8,0-177.7,0-266.5,0c-2.1,0-4.1,0-6.4,0c0-3.3,0-5.7,0-8.1c0-57.5,0-114.9,0-172.4c0-13.1-5.5-18.6-18.7-18.6
		c-38.1,0-76.2,0-114.3,0c-13.3,0-18.6,5.3-18.6,18.6c0,57.7,0,115.3,0,173c0,2.3,0,4.6,0,7.4c-6.9,0-13.2,0-19.5,0
		c-8.8,0-10.1-1.3-10.1-10.4c0-70.9,0-141.8,0-212.6c0-2.1,0-4.3,0-6.7c22.1,2.1,39.3-6,52.4-23.2c20.6,28.7,64,33.8,90.3,0.2
		c11.2,15,26.1,23.4,44.9,23.4c18.7-0.1,33.5-8.7,44.8-23.7c11.5,15.5,26.3,23.7,44.9,23.7c18.7,0,33.6-8.5,44.8-23.5
		c23.4,30.9,66.5,31.6,90.3,0c13,17.2,30.3,25.2,52.3,23.1c0,2.5,0,4.7,0,6.8c0,25.5,0,93.5,0,123.4c0,0.5-0.1,1-0.1,1.6
		C772.7,672.3,772.7,701.5,772.7,730.7z M798.5,469.7c-4.6,16.5-20.8,25.6-38.4,23.7c-15.5-1.7-28.6-14.6-30.4-30.9
		c-0.9-7.9-0.1-16.1-0.1-24.8c23.7,0,47.2,0,72.4,0C801,448.5,801.4,459.5,798.5,469.7z"/>
</g>
</svg>
