<?xml version="1.0" encoding="utf-8"?>
<!-- Generator: Adobe Illustrator 22.0.1, SVG Export Plug-In . SVG Version: 6.00 Build 0)  -->
<svg version="1.1" id="Layer_1" xmlns="http://www.w3.org/2000/svg" xmlns:xlink="http://www.w3.org/1999/xlink" x="0px" y="0px"
	 viewBox="0 0 1080 1080" style="enable-background:new 0 0 1080 1080;" xml:space="preserve">
<style type="text/css">
	.st0{fill:none;}
</style>
<path d="M660,288.1c7.7,1.9,15.8,3,23.1,6c9.7,4.1,19,9.4,28.2,14.7c5.2,3,6.3,7.8,3.6,11.5c-2.7,3.9-7,4.2-12.1,0.6
	c-18.8-13.3-39.6-19.1-62.5-17.2c-46.3,4-82.6,44.2-81.8,90.5c0,0.5,0.1,1,0.4,2.3c4.4-1.8,8.9-3.2,12.7-5.5c5.1-3,10.1-1.6,15.3-1
	c13.4,1.5,26.7,1.5,38.3-6.5c4.9-3.4,8.9-8.1,12.8-12.7c6.3-7.5,16.3-8.1,21.8-0.1c12.5,18.3,30.5,21.6,50.7,19.3
	c6.5-0.7,12.7-2.2,18.6,2.8c2.5,2.1,6.7,2.2,10.7,3.4c0-10.5-0.9-20.6-4.5-30.3c-2.4-6.4-5.4-12.6-8.4-18.8
	c-2.6-5.3-2.2-9.3,1.8-11.6c4-2.4,8-1,11,4c9.4,15.4,14.2,32.4,14.7,50.3c0.4,11.7,1,23.8-1.4,35.2c-1.5,7.2,1,13.4,0.8,20
	c0,1.2,1.7,2.6,2.8,3.8c14.5,15.6,22.9,34.6,29.1,54.6c3.4,11-3.4,21.5-14.8,24.3c-6.2,1.5-12.5,2.8-18.7,3.9
	c-9.5,1.7-18-5.4-18.2-15.2c-0.2-7.9,0.7-15.8-0.1-23.6c-0.6-6.6-2.9-13.1-4.4-19.7c-0.6,0.1-1.2,0.1-1.8,0.2
	c-0.2,0.5-0.5,1-0.7,1.5c-6.7,19.8-19.2,34.8-37.2,45.3c-2.8,1.7-4.1,3.4-3.7,6.6c0.1,0.8,0,1.6,0,2.5c0,12,0,11.9,11.9,14.8
	c12.5,3.1,25.1,6.1,37.5,9.8c24.2,7.2,37.1,23.8,39.7,48.7c3.3,31.4,7,62.8,10.6,94.2c2,18.1,4.1,36.1,5.9,54.2
	c1.7,16.8-4.8,30.5-18.3,37.1c-4.6,2.2-10,3.6-15.1,3.7c-40.3,0.3-80.7,0.2-121,0.2c-5.2,0-8.6-3.1-8.6-7.4c0.1-4.3,3.4-7.2,8.8-7.2
	c25.7,0,51.5,0,77.2,0c1.8,0,3.5,0,5.8,0c-0.4-6.6-0.7-12.6-1-18.7c-1.4-27.7-2.8-55.3-4.3-83c-0.5-9.3-1.1-18.7-1.6-28
	c-0.2-3.1-0.4-6.2-0.3-9.3c0.2-4.1,3.5-7.5,7.3-7.2c4,0.3,6.8,2.3,7.3,6.6c0.3,2.4,0.5,4.9,0.8,7.9c2-0.4,3.7-0.6,5.3-1
	c8.8-2,17.5-4.1,26.3-5.9c2.4-0.5,3.4-1.2,3.1-3.8c-1.5-12.5-2.5-25.1-4.5-37.5c-2.3-14.5-11.8-23.3-25-28.4
	c-3.6-1.4-7.5-2.3-11.4-3.5c-10.2,43.5-36.4,67.3-81.9,64.4c-31.4-2-59.4-27.4-64.8-63.9c-19.4,2.4-35.7,13.9-38,35.2
	c-1.1,10.9-2.5,21.8-3.8,32.7c-0.4,2.9,0.3,4.3,3.6,4.9c10.4,2.1,20.7,4.6,31.7,7.1c0.1-2.5,0.1-4.6,0.3-6.6c0.5-5.2,3.7-8.5,8-8.2
	c4.4,0.2,7.2,3.7,7,9c-1.6,31.3-3.3,62.5-4.9,93.8c-0.8,14.2-1.5,28.4-2.2,43.3c7.5,0,14.8,0,22.1,0c6.2,0,9.4,2.6,9.4,7.5
	c-0.1,4.7-3.2,7.2-9.2,7.2c-58.7,0-117.4,0-176.1,0c-5.7,0-9.2-2.8-9.3-7.3c-0.1-4.6,3.5-7.4,9.6-7.5c24.3,0,48.5,0,72.8,0
	c1.8,0,3.5,0,6,0c-0.5-9.8-0.9-19.2-1.4-28.7c-1.2-21.9-2.4-43.9-3.6-65.8c-0.8-14.4-1.5-28.8-2.1-43.2c-0.2-6,4.1-9.6,9.3-8
	c3.9,1.2,5.2,4.1,5.4,7.9c0.3,7.2,0.6,14.4,1.1,21.6c0.1,1.5,1.3,2.9,2,4.3c0.8-1.3,2.3-2.6,2.5-4c1.9-15.8,3.5-31.6,5.3-47.3
	c1.4-12.5,2-25.2,8.9-36.6c-5.9-5.8-13.2-8.6-20.8-10.4c-1.3-0.3-3.7,1.5-4.7,2.9c-13.4,18.4-31,30.8-53.2,35.4
	c-38.1,7.9-69.4-4-93.2-34.8c-2.7-3.5-4.9-4.2-8.9-2.9c-17.9,5.9-28,17.7-29.7,36.7c-1.9,20-4.4,40-6.6,60.4
	c1.1,0.2,2.2,0.6,3.2,0.6c10.2,0,20.3-0.1,30.5,0.1c3.2,0.1,4.3-1.1,4.3-4.2c0.2-7,0.7-14.1,1-21.1c0.3-5.7,3.1-9.1,7.6-9
	c4.6,0.1,7.4,3.5,7.1,9.2c-1.1,23.2-2.3,46.5-3.5,69.7c-1.1,20.9-2.2,41.9-3.4,62.8c-0.1,1.3,0,2.5,0,4.3c9.2,0,18-0.1,26.8,0
	c4.9,0.1,8.1,3.1,8.1,7.4c0,4.3-3.2,7.1-8.2,7.3c-0.8,0-1.6,0-2.5,0c-19.7,0-39.4-0.4-59,0.1c-18.8,0.4-33.6-10.5-36.2-29.4
	c-0.1-0.4-0.5-0.8-0.8-1.2c0-4.6,0-9.2,0-13.8c0.3-1.1,0.8-2.1,1-3.2c1.8-15.9,3.4-31.9,5.2-47.8c3.8-32.5,7.8-65,11.4-97.6
	c2.4-21.2,13.6-35.8,33.1-43c13.9-5.2,28.6-8.2,43-11.9c12.1-3.1,11.9-2.9,12.2-15.7c0.1-4.4-1.3-6.9-5.2-9.3
	C364.4,504,351,482,349.3,453.3c-0.2-3.5-1.5-4.7-4.5-5.7c-15.2-5.5-23.1-20.1-17.2-33.3c2.4-5.4,3-10.5,2.9-16.1
	c-0.1-3.6,0-7.2,0-10.8c0.6-43.1,27-79.6,67.8-93.3c8-2.7,16.4-4,24.6-6c5.9,0,11.8,0,17.7,0c0.7,0.3,1.5,0.8,2.2,0.8
	c18.2,1.8,34.6,8.5,48.9,19.8c19.8,15.7,33.8,35.2,37.4,60.7c1.6,11.6,1.6,23.5,2.4,35.2c0.2,2.4,0.6,4.9,1.7,7
	c5.7,11.7,2.6,26.2-9.1,31.9c-8.7,4.3-11.4,9.5-12.7,18.8c-3.6,25.5-17.7,44.6-39.7,57.9c-1.5,0.9-3.2,2.6-3.4,4.1
	c-2,15.8-1.7,16.2,13.7,20.1c0.8,0.2,1.6,0.4,2.4,0.6c19,5.5,39.4,7.1,55.7,20.6c9.5-8.5,21-12,32.8-14.9c8.6-2.1,17.1-4.3,25.6-6.6
	c4.3-1.1,10.1-1,12.3-3.8c2.2-2.8,0.5-8.4,0.9-12.8c0.4-3.9-1-6.1-4.5-8.1c-15.8-8.9-27.1-22-33.7-38.9c-1.1-2.7-2.2-5.4-3.3-8.2
	c-0.6,0-1.2,0-1.9-0.1c-1.6,7.4-3.9,14.8-4.7,22.3c-0.8,7.6,0.2,15.4-0.1,23.1c-0.4,8.4-8.3,15.3-16.3,14.2
	c-7.4-1.1-14.8-2.6-22.1-4.6c-10.6-2.9-16.6-13.4-13.3-23.9c6.4-20.3,14.9-39.5,29.8-55.2c0.9-0.9,2.1-2.1,2-3.2
	c-0.2-7.1,2.2-13.6,0.8-21.3c-3.2-16.7-2.8-34.1,1.1-50.7c9.9-42.8,36.9-69.6,78.9-81.6c5.1-1.5,10.5-2.1,15.8-3.2
	C646.9,288.1,653.5,288.1,660,288.1z M581.5,404.9c0,13.5-0.3,26.6,0.1,39.6c0.3,11,1.4,21.9,6.2,32.1
	c15.4,32.2,49.8,47.3,83.4,35.3c25.5-9.1,41.3-27.5,44-55c1.5-15.4,0.7-31.1,1-46.6c0-1.7,0-3.5,0-5.5c-26.3,2.5-50.3-0.1-67.2-23.3
	c-7.6,10.6-17.3,17.5-29.6,21.1C607.2,406.1,594.8,405.8,581.5,404.9z M466,377.4c-11.7,16.5-27.5,25.8-46,31
	c-18.5,5.2-37.2,4.2-55.6,0.1c0,16.3-0.6,32.2,0.3,48c0.4,7.3,2.6,15,6,21.5c13.7,26.2,35.3,39.2,65.5,37.5
	c32.5-1.8,60.6-29.7,61.6-62.1c0.5-15.1,0.1-30.1,0.3-45.2c0-2.8-1-4.1-3.5-5c-9.6-3.5-16.8-10-22.9-17.9
	C469.8,382.9,468,380.3,466,377.4z M345.2,398.2c3.3-1.3,5.8-1.9,7.9-3.3c3.5-2.3,7-2.8,11.2-1.9c7.3,1.5,14.8,3.1,22.2,3.5
	c28.3,1.6,52.7-5.6,69.1-31c5.1-7.9,15.6-7.7,21,0.1c1.6,2.3,3,4.7,4.3,7.1c7,13.1,21.3,16.5,32.3,24.2c0.7,0.5,1.9,0.2,3.2,0.4
	c1.8-33.5-9.9-60.9-37.9-79.4c-29.5-19.5-60.9-20.3-91.3-2.4C356.5,333.5,344.3,362,345.2,398.2z M532.2,652.7
	c-0.4,3-0.8,5.5-1.1,8.1c-2.5,22.4-5.2,44.8-7.5,67.3c-1.1,10.6-2.2,21.2-2.2,31.8c0,8.1,5.6,15.1,12.7,16
	c9.3,1.2,18.8,1.1,28.4,1.6c2.1-39.4,4.1-77.7,6.2-116.5C556.5,658.2,544.6,655.5,532.2,652.7z M735.4,777.1c6.9,0,13.3,0,19.6,0
	c15-0.1,23.3-9.4,21.7-24.3c-3.2-28.9-6.4-57.9-9.6-86.8c-0.5-4.3-1.2-8.6-1.8-13.2c-12.4,2.9-24.1,5.5-36.1,8.3
	C731.4,700,733.4,738.3,735.4,777.1z M344.5,777c1.7-32.3,3.4-64.2,5.1-96.6c-12.5,0-24.1-0.1-35.7,0.1c-1.1,0-2.8,2-3,3.2
	c-2.7,23.7-5.3,47.4-7.7,71.2c-1.2,12.1,6.3,21.1,18.5,21.9C329,777.4,336.4,777,344.5,777z M670.6,528c-14.8,4-29.2,3.8-44.1-0.2
	c0,5.1,0.1,9.6,0,14.1c-0.1,4.6-1.4,9.4-5.7,11.2c-5.1,2.2-4.8,5.4-4.3,9.7c2.2,17.4,17.4,29.5,35.8,28.3
	c16.1-1.1,29.8-16.2,29.4-32.5c0-1.4-1.2-3.4-2.4-3.9c-4.6-2.1-7.2-5.6-7.7-10.5C671.1,539,671,533.8,670.6,528z M399.2,555.4
	c17.9,17.4,49.2,15.4,63.6-0.1c-13.4-5.2-7.9-17.5-9.8-27.3c-14.6,3.9-29.1,4.1-43.6,0.2C407.8,538,412.5,549.9,399.2,555.4z
	 M591.2,561.6c0.2,27.7,25.8,52.5,55.1,54c30.9,1.6,57.7-21.9,60.8-53.9c-3.3-0.8-6.6-1.6-10.1-2.5c-2.8,31.3-25.1,44.7-41.2,46.5
	c-12,1.3-23.2-1-33.3-7.6c-13.8-9.1-20.5-22.4-21.5-39C597.3,560,594.3,560.8,591.2,561.6z M491.6,562.2c-3.3-0.8-5.6-1-7.7-1.9
	c-2.7-1.1-4.1,0-5.9,1.8c-26.6,27.8-67,27.6-94.2-0.3c-1-1-2.7-1.9-4-1.8c-2.8,0.3-5.6,1.4-9.1,2.3c15.7,20.1,35.8,30.4,60.4,30.3
	C455.7,592.7,475.9,582.6,491.6,562.2z M550.2,461c-11.6,13.6-18.3,29.6-23.8,46.3c-0.5,1.4,1.1,4.7,2.4,5.1
	c6.4,1.9,13.1,3.2,19.9,4.7c0-5.1,0.2-9.2,0-13.2c-0.5-11.3,0.7-22.2,5.2-32.6C556.5,465.1,556.4,465.1,550.2,461z M746.5,460
	c-0.9,3.7-6.6,3.4-4,8.7c6.1,12.3,7.2,25.6,6.3,39.2c-0.2,2.8,0,5.7,0,9.2c6.7-1.4,12.9-2.5,19-4c3.4-0.8,4.1-3.7,3.1-6.6
	C765.3,490.1,758.7,474.4,746.5,460z M731.2,429.4c5.3-1.9,8.2-5.4,7.9-10c-0.3-4.8-3-8-7.9-9.7
	C731.2,416.5,731.2,422.9,731.2,429.4z M348.7,412.9c-6.1,2.9-8.6,6.5-7.8,11.1c0.7,4.5,3.2,7.4,7.8,8.7
	C348.7,425.9,348.7,419.7,348.7,412.9z M566.3,429.6c0-6.8,0-13.1,0-19.8c-5,2.2-7.8,5.5-7.5,10.4
	C559,424.7,561.9,427.7,566.3,429.6z M513.3,432.6c5.6-2.4,8.5-6.2,7.9-10.5c-0.6-4.5-3.2-7.5-7.9-9.3
	C513.3,419.8,513.3,426,513.3,432.6z M731.1,445.9c0,2.3,0,4.7,0,7.3c4.7-1.6,7-4.6,7.3-9.8C735.8,444.3,733.8,445,731.1,445.9z
	 M565.3,452.7c0.4-0.2,0.8-0.4,1.3-0.6c0-2.1,0-4.1,0-6.3c-2.4-0.8-4.6-1.6-6.9-2.3c-0.3,0.4-0.7,0.7-1,1.1
	C560.9,447.3,563.1,450,565.3,452.7z"/>
</svg>
