<?xml version="1.0" encoding="utf-8"?>
<!-- Generator: Adobe Illustrator 22.0.1, SVG Export Plug-In . SVG Version: 6.00 Build 0)  -->
<svg version="1.1" id="Layer_1" xmlns="http://www.w3.org/2000/svg" xmlns:xlink="http://www.w3.org/1999/xlink" x="0px" y="0px"
	 viewBox="0 0 1080 1080" style="enable-background:new 0 0 1080 1080;" xml:space="preserve">
<style type="text/css">
	.st0{fill:none;}
</style>
<g>
	<path d="M493.8,791.1c-32.7-0.2-63.3-3.6-92.3-14.7c-53.8-20.7-86.1-60.1-94.4-117.2c-6.2-42.4,3.9-82.8,22.6-120.9
		c21.5-44,53.8-78.6,94.2-105.9c2.9-2,4-4,4.3-7.6c1.1-14.2-1.9-27.2-8.3-40c-9.2-18.7-17.2-38-25.7-57.1c-3.5-7.8-2.8-10,4.5-14.7
		c18.8-12,39.8-18.4,61.6-21.6c31.9-4.7,63.5-3.1,94.2,7.3c10.7,3.6,20.9,8.9,30.9,14.3c8,4.3,8.3,6.8,4.7,15
		c-9.1,20.5-18,41.2-27.5,61.5c-4.3,9.1-6.1,18.2-6.3,28.3c-0.2,8.7,2.6,13.5,9.7,18.5c50.3,35.8,86.8,82,104.1,142.1
		c7.4,25.7,11.6,52,7.7,78.6c-8.3,56.5-38.8,96.7-91.9,118.3C556,787.4,524.2,790.8,493.8,791.1z M492.3,441.4
		c-16.5,0-33.1-0.2-49.6,0.1c-3.4,0.1-7.4,1.1-10.2,3c-32.8,21.8-60,49.2-80.2,83.2c-23.4,39.5-35.5,82.1-30.8,128.3
		c5.1,50.1,43.2,94.6,91.8,108.7c48.8,14.2,98,15,147.3,2.9c46.9-11.5,79.4-39.9,96.1-85.4c11.2-30.7,8.6-62,0.8-92.9
		c-15.9-62.8-53.7-109.9-106.8-145.6c-2.2-1.5-5.2-2.2-7.8-2.3C526.1,441.4,509.2,441.4,492.3,441.4z M575.3,324.5
		c-45.9-28.5-127.4-25.8-166.1,0.2c10,22.4,19.9,44.8,30.1,67.2c0.5,1.2,2.5,2.4,3.9,2.4c32.7,0.1,65.4,0.1,98.1,0
		c1.3,0,3.4-1.2,3.9-2.4C555.3,369.6,565.2,347.2,575.3,324.5z M541.1,409.5c-32.8,0-65.3,0-97.9,0c0,5.7,0,11,0,16.3
		c32.9,0,65.4,0,97.9,0C541.1,420.1,541.1,414.9,541.1,409.5z"/>
	<path d="M774.7,392c-0.5,47.2-38.3,84.9-85,84.5c-46.6-0.4-84.6-39.1-84-85.6c0.6-46.5,39.3-84.1,85.6-83.3
		C737.7,308.3,775.1,346.2,774.7,392z M682.2,323.1c-32.4,4.1-59.4,31.3-60.5,61c5.1,1.2,12.9-1.4,13.3,7.3c0.4,9.6-8,7.5-13.6,8.6
		c4.3,37.1,36.1,59.5,60.8,60.4c1.3-10.7,2.7-13.3,7.7-13.3c9.5,0.1,7.2,8.1,8.3,13.5c30.6-1.9,57.8-29.2,60.7-60.8
		c-5.6-0.6-13.4,0.8-13.5-7.8c-0.1-8.8,7.7-7.2,13.3-7.8c-2-34.2-34.5-60.5-60.7-60.6c-0.5,5.5,0.7,12.4-7.6,13.3
		C685.5,337.4,683.6,334.1,682.2,323.1z"/>
	<path d="M601.9,608.7c-0.6,62.2-50,110.7-112.8,109.4c-60.9-1.3-107.1-52.1-106.4-111c0.8-60,50.4-108.6,111.1-108.1
		C553,499.6,602.4,549.7,601.9,608.7z M492.2,514.1c-52.8,0.1-94.7,42.5-94.7,95.5c0.1,51.4,42.9,93.8,94.8,93.8
		c51.9,0.1,94.5-42.7,94.3-94.8C586.5,556.2,544.4,514,492.2,514.1z"/>
	<path d="M697.8,371.5c-3.6,13.2,2.8,22.1,12.4,29.9c3.8,3.1,7.1,6.8,10.4,10.4c3.3,3.6,3.3,7.8,0.3,10.8c-3.1,3.1-7.2,3.2-10.8-0.3
		c-8.4-8.2-16.8-16.5-24.9-25c-1.6-1.7-2.4-4.7-2.5-7.2c-0.3-10.7-0.2-21.4-0.1-32.1c0-6,3-9.3,7.7-9.2c4.6,0.1,7.2,3.2,7.3,9
		C697.9,362.4,697.8,367,697.8,371.5z"/>
	<path d="M569.6,609.1c-0.1,42.5-34.9,77.2-77.2,77.2c-43.1,0-78-35.1-77.8-78.3c0.2-42.5,35.2-76.9,78.1-76.8
		C535.4,531.4,569.7,566.2,569.6,609.1z M492.3,671.1c34.3,0.1,62.6-28,62.6-62.1c0-34.4-27.8-62.7-61.9-62.8
		c-35.1-0.1-63.3,27.6-63.3,62.4C429.5,643.2,457.4,671,492.3,671.1z"/>
	<path d="M487.3,658.2c-0.2-2.5-0.4-4.8-0.6-7.4c-10.1-2-19.5-5.5-27.5-13.2c2.7-3.4,5.4-6.8,7.9-9.9c6.5,3.4,12.6,6.7,19.9,10.6
		c0-8.5,0.1-15.3-0.1-22.1c0-1-1.7-2.4-2.9-2.9c-2.8-1.3-6-2-8.8-3.4c-14.4-6.8-17.8-24.3-6.1-35.2c4.6-4.4,11.1-6.7,16.8-10
		c0.3,0.4,0.6,0.7,0.9,1.1c0.2-2.1,0.4-4.1,0.6-6.6c3.2,0,6.5,0,10.2,0c0.2,2,0.4,4.2,0.6,6.4c4.5,1.4,9.1,2.4,13.4,4.3
		c4.1,1.8,7.8,4.6,11.9,7.1c-3,4.1-5.6,7.6-8,10.7c-5.7-2.9-11-5.7-17.2-8.8c0,8.5,0,15.5,0,22.6c22.9,8,28.2,13.4,27,27.3
		c-1.1,12.1-10.1,19.7-27,22.4c-0.2,2.1-0.3,4.4-0.5,7C494.4,658.2,491.2,658.2,487.3,658.2z M498.1,637.4c7.3-0.5,11.9-4.3,12-9.9
		c0.1-5.2-4.1-8.8-12.2-10c0,5.4,0,10.8,0,16.2C497.9,635,498,636.2,498.1,637.4z M486.7,580c-6,1.3-9.4,5.2-9,10.2
		c0.4,5.2,4,7.1,9,8.1C486.7,592,486.7,586.2,486.7,580z"/>
</g>
</svg>
