<?xml version="1.0" encoding="utf-8"?>
<!-- Generator: Adobe Illustrator 22.0.1, SVG Export Plug-In . SVG Version: 6.00 Build 0)  -->
<svg version="1.1" id="Layer_1" xmlns="http://www.w3.org/2000/svg" xmlns:xlink="http://www.w3.org/1999/xlink" x="0px" y="0px"
	 viewBox="0 0 1080 1080" style="enable-background:new 0 0 1080 1080;" xml:space="preserve">
<style type="text/css">
	.st0{fill:none;}
</style>
<g>
	<path d="M791.1,627.5c-4.8-24-22.8-42.2-47.1-45c-14.7-1.7-29.8-0.8-44.7-1.1c-4.2-0.1-8.4,0-12.7,0c0-35.2,0-69.8,0-104.6
		c16.8,6.4,24.2,6.3,34.1,4.4c32.2-6.1,51.1-33.8,45.9-66.3c-0.3-2,0.4-4.5,1.5-6.2c12.6-18.4,9.5-41.4-8.1-55.4
		c-2.4-1.9-2.6-3.3-2-6.1c5.7-24.5-8.3-49.2-32-57c-23.6-7.7-49,3.8-59.1,26.8c-0.5,1.2-1,2.3-1.5,3.3
		c-41.4-1.7-68.8,46.3-39.1,81.5c-29,0-57.9,0-87.1,0c0-5.6,0.1-10.8,0-16.1c-0.2-10.1-6.1-16.2-16.3-16.2
		c-21.2-0.1-42.3-0.1-63.5,0c-10.5,0.1-16.6,6.4-16.7,17c0,5,0,10.1,0,15.6c-8.1,0-15.6,0-23.1,0c-16.1,0.1-25.6,9.5-25.7,25.7
		c-0.1,16.5,0,71.7,0,90.1c0,0.8,0,1.6,0,2.5c0,18.5,0,37.1,0,55.6c0,1.7-0.2,3.4-0.3,5.4c-13.9,0-27.1-0.1-40.4,0
		c-6.2,0.1-12.5,0.1-18.6,1c-24.5,3.3-45.5,26.7-46.6,51.3c-1.4,34.3,23.6,60.5,58,60.6c14.1,0,28.2,0,42.3,0c1.7,0,3.4,0.2,5.5,0.3
		c0,5.6-0.1,10.6,0,15.7c0.3,10.2,6.7,16.4,16.8,16.6c2.4,0,4.8,0,7.5,0c0,15.3,0.3,29.9-0.1,44.5c-0.3,9.5,2.7,16.6,11.6,20.6
		c8.2,0,16.4,0,24.6,0c9-3.9,12.1-10.9,11.8-20.5c-0.4-14.6-0.1-29.2-0.1-44.6c0.5,0,0.9,0,1.4,0c2.6,0,5.2,0,7.8,0
		c34.3,0,105,0,133,0c1.8,0,3.5,0,5.8,0c0,8.5,0,16.5,0,24.5c0,6.7,0.3,13.5-0.1,20.2c-0.6,9.6,2.7,16.6,11.8,20.5
		c8.2,0,16.4,0,24.6,0c8.9-4,11.9-11.1,11.6-20.6c-0.4-14.1-0.1-28.2-0.1-42.3c0-0.5,0.1-1,0.3-2.2c2.3,0,4.7,0,7.1,0
		c10.1-0.1,16.5-6.4,16.8-16.5c0.2-5.2,0-10.4,0-16c16.2,0,31.8,0.3,47.3-0.1c6.8-0.2,13.9-0.8,20.3-3.1c20.4-7.2,33-21.7,37.5-43.1
		c0.2-0.9,0.6-1.8,1-2.8c0-5.3,0-10.5,0-15.8C791.7,629,791.2,628.3,791.1,627.5z M393.6,679.3c-11.4,0-22.4,0.1-33.4,0
		c-8.2-0.1-16.6,0.5-24.5-1c-20.2-4-34.2-22.5-33-42.3c1.3-20.7,16.5-37.5,37.3-38.9c17.6-1.2,35.3-0.2,53.4-0.2
		c0,5.6,0,11.2,0,17.2c-15.4,0-30.6,0-45.9,0c-2.8,0-5.6,0.2-8.3,0.7c-11.5,2.4-19.2,12.4-18.8,24.2c0.4,11.3,8.8,21.4,20.4,22.2
		c15.3,1,30.8,0.5,46.2,0.7c2.1,0,4.2,0,6.5,0C393.6,667.8,393.6,673.1,393.6,679.3z M393.6,646.2c-1.3,0.2-2.4,0.4-3.5,0.4
		c-14.8,0-29.5,0.1-44.3,0c-6.4,0-10.4-3.4-10.5-8.6c-0.1-5.1,3.9-8.9,10.2-8.9c15.9-0.1,31.7,0,48.1,0
		C393.6,635.3,393.6,640.7,393.6,646.2z M564.9,515.7c4.6-31.4,9-62.8,13.5-94.2c0.2-1.4,0.6-2.8,1-4.3c10.9,0,21.5,0,32.9,0
		c-1.3,6.6-2.4,12.9-3.7,19.2c-3.4,17-6.8,34-10.3,50.9c-1.1,5.1,0.3,8.8,5,11.6c5.6,3.3,10.9,7.2,16.8,11.2
		c-9.1,18.1-18.1,36.1-27.1,54.2c-0.4-0.1-0.7-0.2-1.1-0.3c1.2-6.1,2.3-12.3,3.6-18.4c1.7-8.2,0.9-9.9-6.4-13.6
		c-7.2-3.6-14.3-7.3-21.5-10.7C565,519.9,564.5,518.5,564.9,515.7z M458,384.9c21.9,0,43.7,0,65.9,0c0,5.4,0,11,0,17
		c-21.8,0-43.6,0-65.9,0C458,396,458,390.7,458,384.9z M441.5,417.2c41.1,0,81.5,0,122.4,0c-1.2,8.7-2.3,17.1-3.5,25.5
		c-2.5,17.5-5.2,35-7.4,52.5c-0.5,3.8-1.9,4.8-5.5,4.8c-31.6-0.1-63.3-0.1-94.9-0.1c-8,0-11-3-11-10.9
		C441.5,465.2,441.5,441.4,441.5,417.2z M408.9,519.1c0-0.3,0-0.6,0-0.9c0-16.9,0-74.5,0-91.4c0-6.1,3.4-9.5,9.3-9.7
		c2.6-0.1,5.2,0,8.3,0c0,2.2,0,4,0,5.7c0,22,0,44,0,66c0,2.9,0.1,6,0.8,8.8c3.1,11.4,12.2,17.6,25.8,17.6c30.2,0.1,60.4,0,90.6,0
		c1.9,0,3.8,0,5.8,0c0,1.4,0.1,2,0,2.6c-1.5,10.2-1.3,10.5,8,15.2c7.6,3.8,15.2,7.6,22.8,11.4c-0.6,2.9-1,5.2-1.5,7.6
		c-4.4,22.3-8.9,44.6-13.3,66.9c-0.9,4.3-0.1,8,4.4,9.7c4,1.6,7.6-0.2,9.9-4.8c18.6-37.2,37.2-74.4,55.8-111.7
		c2.7-5.4,1.8-8.2-3.2-11.7c-5.3-3.6-10.6-7.2-16-10.6c-2.3-1.4-2.9-2.9-2.3-5.7c2-9.1,3.7-18.3,5.5-27.4
		c2.4-11.9,4.7-23.8,7.1-35.6c0.4-2,0.3-5.5,4.3-3.5c-4,22.9,9.7,46.4,39.6,48.9c0,21.9,0,43.7,0,66c-4.9,0-9.5,0-14.1,0
		c-12.1,0.1-18.1,6.1-18.1,18.2c0,40.9,0,81.7,0,122.6c0,1.9,0,3.8,0,5.7c-66,0-131.4,0-197.1,0c0-2.3,0-4.3,0-6.2
		c0-40.7,0-81.4,0-122.1c0-12-6-18.1-18.2-18.2c-4.7,0-9.4,0-14.4,0C408.9,527.7,409,523.3,408.9,519.1z M426.3,548
		c0,43.7,0,87.2,0,131c-5.7,0-11.2,0-17,0c0-43.7,0-87.2,0-131C414.9,548,420.4,548,426.3,548z M450.7,777.1c-6,0-11.3,0-16.9,0
		c0-5.8,0-11.4,0-17.3c5.7,0,11.2,0,16.9,0C450.7,765.6,450.7,771.2,450.7,777.1z M450.7,744.5c-5.9,0-11.2,0-16.9,0
		c0-5.7,0-11.2,0-17.1c5.5,0,11.1,0,16.9,0C450.7,733.1,450.7,738.6,450.7,744.5z M646.3,777.1c-5.6,0-10.9,0-16.8,0
		c0-5.7,0-11.4,0-17.3c5.6,0,11.1,0,16.8,0C646.3,765.7,646.3,771.3,646.3,777.1z M629.4,744.4c0-5.7,0-11.4,0-17.2
		c5.7,0,11,0,16.8,0c0,5.7,0,11.3,0,17.2C640.6,744.4,635.2,744.4,629.4,744.4z M670.8,712.1c-2.3,0-4.4,0-6.4,0
		c-48.6,0-147,0-195.6,0c-1.2,0-2.4,0-3.5,0c-16.7,0-33.4,0-50.1,0c-1.9,0-3.8,0-6,0c0-6,0-11.4,0-17.2c87.1,0,174.2,0,261.6,0
		C670.8,700.4,670.8,705.9,670.8,712.1z M670.8,678.9c-5.6,0-11.2,0-17.1,0c0-43.5,0-86.9,0-130.9c5.9,0,11.4,0,17.1,0
		C670.8,591.6,670.8,635.1,670.8,678.9z M682.6,455.6c-3.3-3.1-6.9-4.6-11.4-4.7c-20.2-0.5-31.4-18.8-22.8-37
		c3.6-7.6,2.4-12.5-4.4-17.4c-13.2-9.6-18.2-24.5-13-38.9c5.2-14.6,18.7-23,35.2-21.9c6.7,0.5,11-2.4,13.3-9.2
		c4.4-13.2,13.5-20.9,27.1-23.3c21.8-3.9,42.3,17.8,37.2,39.3c-0.3,1.1-1.9,2.3-3.1,2.6c-1.5,0.4-3.3-0.1-4.9,0
		c-4.3,0.2-7.3,3-7.6,6.9c-0.3,4,2.8,7.2,7.2,7.8c2.9,0.4,5.9,0.7,8.6,1.6c11.5,3.9,18.1,15.2,16.5,27.6
		c-1.5,11.2-11.5,20.3-23.2,21.1c-0.8,0.1-1.7,0-2.5,0.1c-4,0.7-6.9,4.2-6.6,7.9c0.3,3.9,3.5,7,7.7,6.7c5.5-0.4,10.9-1.6,16.4-2.4
		c3.1,18.7-11.7,39.4-31.6,43.7C706.2,469.3,693.4,465.8,682.6,455.6z M686.4,629.1c4.7,0,9,0,13.4,0c11.6,0,23.3-0.1,34.9,0.1
		c8,0.2,12.5,7.3,8.3,13.3c-1.3,1.8-3.8,3.8-5.8,3.8c-16.8,0.3-33.7,0.2-50.8,0.2C686.4,640.7,686.4,635.2,686.4,629.1z M738.6,679
		c-16.5,0.6-33.1,0.2-49.7,0.3c-0.8,0-1.6-0.3-2.6-0.5c0-5.5,0-10.8,0-16.7c1.8-0.1,3.5-0.3,5.3-0.3c14.3,0,28.5,0.1,42.8-0.1
		c13.8-0.2,24.2-9.4,25-22.1c0.9-14.1-9.8-25.5-24.4-25.6c-14.3-0.2-28.5,0-42.8,0c-1.8,0-3.6,0-5.9,0c0-6.1,0-11.6,0-17.7
		c4.9,0,9.4,0,13.9,0c13.6,0.2,27.3-0.4,40.8,0.8c20.6,1.7,36.6,20.8,36.1,41.5C776.7,660.2,759.9,678.2,738.6,679z"/>
	<path d="M588.3,335.3c-12.9-0.2-23.2-10.8-23.1-23.8c0.1-13.4,10.8-23.7,24.4-23.5c12.9,0.2,23.5,11.3,23.2,24.3
		C612.4,325.4,601.6,335.6,588.3,335.3z M588.9,320.5c4.7,0,8.7-4,8.8-8.7c0.1-4.8-4.3-9.2-9-9c-4.7,0.2-8.5,4.3-8.4,9
		C580.3,316.7,584.2,320.6,588.9,320.5z"/>
	<path d="M369.5,328.1c0-13.2,10.5-23.8,23.6-23.9c13.1,0,23.7,10.6,23.7,23.7c0,13.1-10.6,23.9-23.6,23.9
		C380.3,351.9,369.6,341.2,369.5,328.1z M393.3,319.4c-4.9-0.1-8.8,3.6-8.9,8.4c-0.1,5,3.9,9,8.9,9c4.8-0.1,8.8-4,8.8-8.7
		C402.1,323.4,398.1,319.4,393.3,319.4z"/>
	<path d="M344.2,449.5c-13.2,0-23.7-10.6-23.7-23.7c0-13.1,10.6-23.6,23.9-23.5c13.3,0,23.6,10.5,23.6,23.7
		C367.9,439.3,357.5,449.5,344.2,449.5z M353,425.7c-0.1-4.7-4.1-8.8-8.8-8.7c-4.6,0-8.8,4.1-8.8,8.8c-0.1,4.8,4.3,9.1,9.1,8.9
		C349.2,434.6,353.1,430.5,353,425.7z"/>
	<path d="M483,661.7c-2.8,0-5.6,0.2-8.3,0c-4.5-0.4-7.6-3.7-7.3-7.6c0.3-4.4,3-7,7.2-7.3c5.5-0.3,11.1-0.3,16.6,0
		c4.5,0.2,7.6,3.7,7.3,7.6c-0.3,4.4-3,6.8-7.2,7.3C488.5,662,485.7,661.7,483,661.7z"/>
	<path d="M482.8,628.9c-2.9,0-5.9,0.2-8.8-0.1c-4.2-0.4-6.5-3.1-6.6-7.1c-0.1-3.9,2.2-6.9,5.9-7.3c6.3-0.6,12.7-0.6,19-0.1
		c3.9,0.3,6.4,3.4,6.1,7.6c-0.2,4.1-2.7,6.6-6.9,6.9C488.7,629.1,485.7,629,482.8,628.9C482.8,628.9,482.8,628.9,482.8,628.9z"/>
	<path d="M499,482.3c-7.7,0-15.4,0.1-23.1,0c-10.8-0.2-16.6-6.1-16.7-16.8c0-5.2-0.1-10.5,0-15.7c0.2-8.4,6.6-14.8,15.1-14.9
		c16.5-0.1,33.1-0.1,49.6,0c8.3,0.1,14.7,6.1,15.1,14.3c0.3,6.2,0.3,12.4,0,18.7c-0.3,7.9-6.1,13.9-14,14.3
		c-8.7,0.3-17.4,0.1-26,0.1C499,482.2,499,482.2,499,482.3z M524.1,449.9c-16.9,0-33.2,0-49.8,0c0,5.9,0,11.5,0,17.1
		c16.7,0,33.2,0,49.8,0C524.1,461.2,524.1,455.7,524.1,449.9z"/>
</g>
</svg>
