<?xml version="1.0" encoding="utf-8"?>
<!-- Generator: Adobe Illustrator 22.0.1, SVG Export Plug-In . SVG Version: 6.00 Build 0)  -->
<svg version="1.1" id="Layer_1" xmlns="http://www.w3.org/2000/svg" xmlns:xlink="http://www.w3.org/1999/xlink" x="0px" y="0px"
	 viewBox="0 0 1080 1080" style="enable-background:new 0 0 1080 1080;" xml:space="preserve">
<style type="text/css">
	.st0{fill:none;}
	.st1{fill:#FFFFFF;}
</style>
<g>
	<path d="M783,624.3c6.4,0,12-0.1,17.6,0c10.2,0.2,13.9,3.9,13.9,14.1c0,24.1,0,48.1,0,72.2c0,2.5,0,5,0,7.4
		c7.4,2.1,14.9,3.1,21.5,6.2c18.2,8.5,28.9,22.9,30.5,43.3c1.4,17.6,2.9,35.5-6.6,51.7c-9.4,16-23.3,24.9-41.9,26.3
		c-2.9,0.2-5.9,0.3-8.8,0.3c-179.4,0-358.7-0.1-538.1,0.1c-19.1,0-35.2-5.6-47.1-20.9c-6.6-8.5-10.1-18.1-10.7-28.8
		c-0.9-15.4-2.3-31,4.4-45.5c10.3-22.2,28.7-31.7,52.6-31.7c107.8,0,215.7,0,323.5,0c2.9,0,5.8,0,9.5,0c0-3,0-5.4,0-7.8
		c0-24.5,0-49,0-73.6c0-9.5,3.5-13.2,13.1-13.3c13.8-0.2,27.7-0.1,41.5-0.1c2.5,0,4.9,0,8.3,0c0-3,0-5.4,0-7.8c0-23.8,0-47.7,0-71.5
		c0-11.9,3.5-15.4,15.3-15.4c28.8,0,57.7,0,86.5,0c11.3,0,14.8,3.6,14.9,15.2c0,23.8,0,47.7,0,71.5C783,618.7,783,621.1,783,624.3z
		 M540.3,740.6c-68.6,0-137.1,0-205.7,0c-22.9,0-45.9-0.1-68.8,0.1c-15.7,0.1-28.6,10.2-30.6,25.6c-1.4,11.3-1.1,23.1,0.4,34.5
		c1.4,10.8,9,18.3,19.4,21.7c5.3,1.7,11.1,2.3,16.7,2.3c178.9,0.1,357.8,0.1,536.7,0.1c2.7,0,5.4-0.1,8.1-0.4
		c17.5-2.1,28.6-14.1,29.3-31.8c0.2-3.6-0.2-7.3,0.1-10.9c2.1-25.3-11.1-41.8-40.8-41.4C716.9,741.2,628.6,740.6,540.3,740.6z
		 M792.3,718.8c0-24.8,0-48.9,0-72.9c-24.5,0-48.4,0-72.6,0c0,24.5,0,48.6,0,72.9C744.2,718.8,768.1,718.8,792.3,718.8z
		 M761.3,551.4c-24.8,0-48.9,0-73,0c0,24.5,0,48.4,0,72.4c24.6,0,48.7,0,73,0C761.3,599.5,761.3,575.7,761.3,551.4z M625,718.5
		c24.5,0,48.6,0,72.5,0c0-24.5,0-48.5,0-72.5c-24.5,0-48.4,0-72.5,0C625,670.4,625,694.4,625,718.5z"/>
	<path d="M392.3,302.3c0-17.7,0-35.4,0-53.1c0-11.9,3.4-15.2,15.5-15.2c17.9,0,35.9,0,53.8,0c11.7,0,15.1,3.3,15.1,14.8
		c0,17.9,0,35.8,0,53.3c11.2,4.9,21.8,9.8,32.7,14.1c1.7,0.7,5.1-0.7,6.7-2.2c11.6-11.2,22.9-22.7,34.3-34.1
		c8.7-8.6,13.2-8.6,21.7-0.1c12.9,12.8,25.7,25.7,38.5,38.5c8.2,8.2,8.2,12.8-0.2,21.2c-12.7,12.7-25.3,25.3-37.5,37.5
		c4.6,11.7,8.7,22.7,13.4,33.4c0.7,1.6,4.2,2.9,6.4,2.9c16.3,0.2,32.7,0.1,49,0.2c11,0,14.5,3.6,14.6,14.8c0,18.2,0,36.3,0,54.5
		c0,11.6-3.8,15.3-15.7,15.3c-15.9,0-31.8,0.2-47.7-0.1c-4.8-0.1-6.6,1.7-8.1,6c-2.9,8.3-6.4,16.5-10.2,24.4
		c-1.9,3.9-1.6,6.3,1.5,9.3c11.6,11.2,22.9,22.7,34.3,34.1c8.3,8.3,8.3,13,0.2,21.2c-13,13-26,26-39,39c-7.8,7.7-12.9,7.7-20.8-0.2
		c-12.7-12.7-25.3-25.4-37.6-37.8c-11.4,4.5-22.4,8.7-33.1,13.4c-1.7,0.7-3.2,4-3.3,6.2c-0.3,16.8-0.1,33.6-0.2,50.4
		c0,9.5-3.5,13.2-13,13.3c-19.3,0.2-38.6,0.2-57.9,0c-9.9-0.1-13.4-3.8-13.5-13.8c-0.1-16.3-0.2-32.7,0.1-49
		c0.1-4.5-1.1-6.8-5.6-8.3c-10.2-3.6-20.1-7.9-30.8-12.2c-12.3,12.3-24.9,25-37.6,37.7c-8.2,8.2-13,8.2-21.2,0.1c-13-13-26-26-39-39
		c-7.8-7.9-7.8-12.6,0.2-20.7c12.6-12.7,25.4-25.3,37.8-37.8c-4.5-11.3-8.6-22.3-13.3-33c-0.7-1.7-4.2-3-6.4-3
		c-16.3-0.3-32.7-0.1-49-0.1c-10.8,0-14.7-3.9-14.8-14.8c-0.1-18.4-0.1-36.8,0-55.2c0-11,3.7-14.5,14.8-14.6
		c16.3-0.1,32.7-0.1,49,0.1c4.1,0.1,5.8-1.3,7.2-5.2c3.8-10.4,8.2-20.5,12.5-31.2c-12.4-12.4-25.1-25-37.7-37.7
		c-8.2-8.3-8.3-12.9,0-21.2c13-13,26-26.1,39-39c7.6-7.5,12.8-7.6,20.3-0.1c11.6,11.5,23.2,23,34.6,34.7c3,3.1,5.3,3.7,9.3,1.7
		C371.6,310.9,381.7,306.8,392.3,302.3z M234.6,434.6c0,14.5,0,28,0,41.4c0.9,0.2,1.3,0.4,1.7,0.4c16.3,0,32.7,0.1,49,0.1
		c11.2,0,13,2.1,16.8,12.8c4.3,12.3,9.3,24.5,15,36.2c4.9,10.2,5.2,12.6-3,20.8c-11.8,11.9-23.7,23.7-34.9,34.8
		c10.1,10.1,19.8,19.8,29.7,29.7c11.6-11.6,23.7-23.8,36-36c6.9-6.9,9.7-6.6,18.6-2.5c12.7,5.9,25.6,11.2,38.8,16
		c8.7,3.2,11.3,5.8,11.4,15.2c0.1,15,0,30,0,45c0,2.4,0.2,4.8,0.4,7c14.1,0,27.4,0,41.3,0c0-2.9,0-5.4,0-7.9c0-14.8-0.1-29.5,0-44.3
		c0.1-9.3,2.5-11.7,10.9-14.9c13.5-5.1,26.8-10.7,39.9-16.6c8-3.6,11.1-3.7,17.5,2.7c11.1,11,22.2,22.2,33.3,33.2
		c1.4,1.4,2.9,2.6,3.5,3.1c10.1-10.1,19.7-19.7,29.3-29.3c0.1,0.2-0.1-0.3-0.4-0.6c-11.9-11.9-23.8-23.8-35.6-35.7
		c-6.7-6.8-6.6-10-2.5-18.7c5.6-11.8,11-23.8,15.2-36.2c4.1-12.1,5.5-13.9,18.7-13.9c16.3,0,32.6,0,49.2,0c0-14.2,0-27.7,0-41.9
		c-2.8,0-5.3,0-7.7,0c-15.2,0-30.4,0-45.6,0c-6.7,0-10.7-2.8-13.2-9.4c-5.4-14.3-11.4-28.5-17.6-42.5c-2.6-5.9-2.4-10.9,2.2-15.5
		c9.2-9.1,18.2-18.4,27.5-27.4c3.7-3.6,7.9-6.6,11-9.1c-11.1-11.3-20.6-20.9-30.6-31c-11.8,11.9-23.9,24.1-36.1,36.3
		c-6.8,6.8-10.1,6.7-18.7,2.7c-12.5-5.8-25.1-11.3-38.1-16c-9.9-3.6-12.1-5.5-12.2-15.9c-0.1-8.4,0-16.8,0-25.2c0-8.6,0-17.1,0-25.9
		c-14.3,0-27.7,0-41.6,0c0,17.3,0,34,0,50.8c0,10.4-2.3,12.8-12,16c-10.7,3.6-21.9,6.7-31.5,12.3c-20.3,12-20.3,5.9-31.5-5
		c-10.3-10.1-20.4-20.5-30-30.1c-10.3,10.2-19.8,19.7-29.9,29.7c11.8,11.8,24,23.9,36.2,36.1c7.2,7.2,7,10,2.5,19.2
		c-5.6,11.6-10.9,23.4-15.1,35.5c-4.3,12.8-4.9,14-18.4,14C267.7,434.6,251.4,434.6,234.6,434.6z"/>
	<path d="M539.9,814.3c-17.3,0-31.7-14.3-31.7-31.6c0-17.2,14.3-31.6,31.6-31.8c17.4-0.2,32.3,14.6,32,32
		C571.6,800.2,557.3,814.3,539.9,814.3z M550.3,782.9c0.1-5.6-4.6-10.6-10.2-10.7c-5.5-0.1-10.4,4.9-10.4,10.5c0,5.5,4.3,9.8,9.8,10
		C545.5,792.9,550.2,788.6,550.3,782.9z"/>
	<path d="M328.6,814.3c-17.2-0.2-31.7-14.9-31.4-31.9c0.3-17.3,14.8-31.5,32-31.4c17.6,0.1,31.9,14.8,31.6,32.3
		C360.5,800.6,346.1,814.4,328.6,814.3z M339.2,782.5c-0.1-5.7-4.9-10.5-10.5-10.3c-5.1,0.2-9.9,5.1-10.1,10.2
		c-0.2,5.5,4.6,10.3,10.3,10.3C334.9,792.8,339.3,788.3,339.2,782.5z"/>
	<path d="M750.8,814.3c-17.4-0.1-31.5-14.3-31.5-31.6c0-17.3,14.2-31.5,31.5-31.7c17.5-0.1,32.4,14.8,32,32.1
		C782.4,800.4,768.2,814.3,750.8,814.3z M751.1,772.2c-5.6-0.1-10.3,4.7-10.2,10.5c0,5.6,4.1,9.8,9.7,10c5.8,0.2,10.6-4.2,10.8-9.8
		C761.5,777.5,756.4,772.3,751.1,772.2z"/>
	<path d="M403,782.5c0.1-17.5,14.1-31.5,31.5-31.5c17.5,0,31.5,14,31.5,31.5c0.1,17.8-14,31.9-31.9,31.8
		C416.8,814.1,403,800.1,403,782.5z M434.6,792.7c5.9,0,10.4-4.5,10.3-10.2c-0.1-5.2-4.8-10-9.9-10.2c-5.4-0.2-10.4,4.6-10.5,10.2
		C424.3,788.4,428.6,792.7,434.6,792.7z"/>
	<path d="M677,782.5c0.1,17.5-13.8,31.6-31.2,31.7c-17.8,0.1-32-14.1-31.8-31.8c0.1-17.5,14.2-31.5,31.6-31.5
		C663,751,677,765.1,677,782.5z M655.6,782.9c0.1-5.7-4.5-10.6-10-10.6c-5.4,0-10.4,5-10.4,10.5c0.1,5.5,4.4,9.8,9.9,10
		C651.1,792.9,655.5,788.8,655.6,782.9z"/>
	<path d="M550.5,455.4c0.3,64-51.5,116.1-115.5,116.3c-64.1,0.2-116-51.4-116.4-115.5c-0.3-64.4,51.5-116.6,115.9-116.6
		C498.5,339.6,550.2,391.1,550.5,455.4z M529.4,455.8c0.2-52-42.6-94.9-94.7-95c-52-0.2-94.7,42.5-94.8,94.8
		c-0.1,52.4,42,94.6,94.6,94.7C486.9,550.3,529.2,508.2,529.4,455.8z"/>
	<path d="M434.6,371.4c46.8,0,84.3,37.4,84.3,84.1c0,46.9-38.1,85-84.7,84.8c-46.4-0.3-84.2-38.3-84.1-84.8
		C350.1,409,387.9,371.3,434.6,371.4z M434.4,392.7c-35,0.2-63,28.6-62.8,63.5c0.2,34.5,28.6,62.7,63.1,62.6
		c34.8-0.1,63.1-28.8,62.8-63.5C497.1,420.5,468.8,392.4,434.4,392.7z"/>
</g>
</svg>
