<?xml version="1.0" encoding="utf-8"?>
<!-- Generator: Adobe Illustrator 22.0.1, SVG Export Plug-In . SVG Version: 6.00 Build 0)  -->
<svg version="1.1" id="Layer_1" xmlns="http://www.w3.org/2000/svg" xmlns:xlink="http://www.w3.org/1999/xlink" x="0px" y="0px"
	 viewBox="0 0 1080 1080" style="enable-background:new 0 0 1080 1080;" xml:space="preserve">
<style type="text/css">
	.st0{fill:none;}
</style>
<path d="M484.1,728c-2.9,9.2-5.1,16.8-7.8,24.2c-5.1,14-13.6,26-23.2,37.2c-3.3,3.9-7.9,4.4-11.4,1.6c-3.7-2.9-4.2-7.8-0.8-11.8
	c11.7-13.8,20.9-28.8,25-46.6c1-4.2,1.8-8.4,2.4-12.6c1-6.3-0.1-11.9-3.6-17.8c-14.8-24.9-22.1-52-22.1-81.1
	c0-25.9-0.1-51.9,0.1-77.8c0-4.1,0.2-8.5,1.8-12.1c3.3-7.3,3.2-15,3.9-22.7c1.6-18.6,3.3-37.1,4.9-55.7c0.1-1.3,0-2.6,0-4.4
	c-17.6,8.6-34.9,8.9-51.6-1.2c-12.2-7.3-20-18.1-23.2-31.9c-6.5-27.7,10.8-58.4,45.3-62.8c2.7-8.6,4.4-17.5,8-25.5
	c11.7-25.4,31.9-38.9,59.9-39.7c16.2-0.5,32.4-0.1,48.5-0.1c39.9,0.2,71,36.4,65.1,76c-0.8,5.7-1.5,11.4-2.2,17.2
	c-1.5,11.1,3,20.2,9.2,28.9c8.1,11.4,5.5,19.4-7.1,25c-1.6,0.7-3.2,3.1-3.5,5c-2.1,15.3-7.8,28.8-17.9,40.6
	c-9.9,11.6-21.9,15.9-36.7,12.2c-1.7-0.4-3.4-0.7-6.1-1.2c8.1,12.8,18,22.4,29,30.9c4.8,3.7,10,7,15,10.5
	c24,16.6,38.8,39.1,43.8,67.9c0.6,3.6,1.9,5.8,5.7,7.5c11.1,5,17.7,17,16.7,29.1c-0.2,2.8,0.5,4.1,2.8,5.4
	c27,14.8,43.4,37.4,47.5,67.8c4,29.8-3.6,56.6-24.9,78.7c-4.5,4.7-9.4,5.2-12.9,1.7c-3.6-3.6-3-8.2,1.6-12.9
	c34.6-35.6,25.8-96.5-17.3-120.3c-1.1-0.6-2.3-1.1-3.7-1.7c-0.8,1.1-1.4,2-2.1,2.9c-10.5,15.5-30.1,19-45.1,8
	c-14.1-10.4-16.3-29.7-5-44.3c5.6-7.2,11.4-14.2,21.2-16.6c-1.8-15.3-7.6-28.5-16.6-40.4c-2.8-3.7-6-7-9.3-10.3
	c-6-6.1-12.3-10.2-22-9.4c-12.8,1-25.6-1.9-37.9-6.1c-1.8-0.6-3.7-1.1-5.9-1.7c0,2.6,0,4.7,0,6.8c0,32.4,0.1,64.7,0,97.1
	c-0.1,20.4,6.3,38.4,19.3,54.2c22.3,27.2,44.3,54.6,66.2,82.1c1.7,2.2,3.4,5.4,3,7.9c-0.3,2.4-2.9,5.2-5.2,6.4c-3.4,1.7-6.7,0-9.1-3
	c-9.9-12.3-19.9-24.7-29.9-37c-13.6-16.8-27.3-33.5-40.7-50.5c-13-16.6-19.5-35.7-19.5-56.9c0-33.4,0-66.7,0-100.1
	c0-12.1-6.7-21.5-17.2-24.4c-14.9-4.2-30.1,6.2-30.2,21.9c-0.2,31.7-0.9,63.5,1.2,95c2.1,31.5,15.6,59.1,37.1,82.4
	c17.8,19.3,36.1,38.1,54.2,57.1c1.1,1.2,2.4,2.3,3.3,3.7c2.1,3.5,2,7-0.9,10c-2.9,3-6.4,3.3-9.9,1.1c-1.4-0.9-2.5-2.1-3.6-3.3
	c-18-18.9-36-37.8-54-56.7C485.4,730.6,485,729.6,484.1,728z M540.1,353.7c-4,13.7-10.9,25.5-20,36.2c-7,8.2-13.7,9.5-23.1,4.3
	c-4.9-2.7-9.3-1.6-12,3.4c-2.8,5.1-2.3,10.2,0.9,14.9c4.3,6.5,10.7,9.5,18.2,10.6c5.5,0.8,8.3,4.1,7.8,8.9c-0.5,4.6-4.3,7.8-9.6,6.8
	c-5.9-1.2-11.5-3.6-17.3-5.4c-1.3-0.4-3.3-0.9-4.2-0.3c-6,3.9-11.3,7.4-11.3,16.7c0.1,13.4-2.7,26.8-4.1,40.3
	c-0.6,5.6-0.7,11.3-1,17.1c16.9-5.8,28.6-5.1,40.2,3.2c11.1,7.9,23.4,12.6,36.4,16c3.3,0.9,6.7,1.4,11.4,2.3
	c-2.3-2.3-3.3-3.5-4.5-4.6c-9.9-9.4-18.5-19.8-24.7-32c-2.1-4.2-4.6-6.6-9.3-7.5c-6-1-8.8-5.2-7.7-9.9c1.1-4.7,5.5-6.8,11.5-5.5
	c11.7,2.6,23.5,4.9,35.2,7.7c6.9,1.6,12.2-0.4,16.9-5.4c9-9.5,14.6-20.7,15.7-33.9c0.7-8.7,3.9-15.2,12.8-17.9
	c0.4-0.1,0.6-0.7,0.9-1.2c-1.7-2.7-3.4-5.3-5.1-7.9c-5.5-8.8-7.9-18.5-7-28.8c0.7-7.9,1.9-15.7,2.7-23.6c0.9-8.7-0.6-17.1-4.7-25.5
	C573.6,348.1,558.4,354.3,540.1,353.7z M506.5,380.9c7.9-8.5,13.7-18,17.3-28.8c3.8-11.5,7.5-14.1,19.8-14.4
	c11.9-0.3,21.7-4.6,28.8-14.6c2.6-3.7,2.5-6.1-1.3-8.9c-9.7-7.3-20.6-11-32.6-11.1c-15-0.1-30-0.1-45.1,0c-4.1,0-8.3,0.5-12.2,1.4
	c-23.3,5.6-37.8,24.1-40.5,51.8c-2.6,26.5,10.1,47.3,24.6,68.1c2.2-1.6,4.2-3.1,6.1-4.6c-6.2-14.4-4.9-27.1,4.1-35.9
	C484.7,374.8,495.3,374.2,506.5,380.9z M424.7,369.7c-12.2-0.8-25.6,10-29.9,23.7c-4.8,15.3,1.5,31.9,15.3,40.3
	c12.7,7.7,30.1,6.5,39.7-3C437.7,411.9,425.4,393.1,424.7,369.7z M635.4,635.8c-0.2-7.3-3-11.7-8.5-14.2c-5.7-2.5-11.1-1.5-15.5,2.7
	c-2.7,2.6-5,5.7-7.3,8.7c-4.4,6-4,13.4,0.8,18.5c4.7,5,13.6,6.7,19,2.9C630.8,649.7,633.8,642.5,635.4,635.8z"/>
</svg>
