<?xml version="1.0" encoding="utf-8"?>
<!-- Generator: Adobe Illustrator 22.0.1, SVG Export Plug-In . SVG Version: 6.00 Build 0)  -->
<svg version="1.1" id="Layer_1" xmlns="http://www.w3.org/2000/svg" xmlns:xlink="http://www.w3.org/1999/xlink" x="0px" y="0px"
	 viewBox="0 0 1080 1080" style="enable-background:new 0 0 1080 1080;" xml:space="preserve">
<style type="text/css">
	.st0{fill:none;}
</style>
<g>
	<path d="M483.7,729.4c-3,9.3-5.1,17-7.8,24.4c-5.2,14.1-13.7,26.1-23.3,37.4c-3.3,3.9-8,4.4-11.5,1.6c-3.7-2.9-4.3-7.8-0.8-11.9
		c11.8-13.9,21-29,25.2-46.9c1-4.2,1.8-8.4,2.4-12.7c1-6.4-0.1-12-3.6-17.9C449.3,678.3,442,651,442,621.7c0-26.1-0.1-52.2,0.1-78.3
		c0-4.1,0.2-8.6,1.9-12.2c3.3-7.4,3.3-15.1,3.9-22.8c1.6-18.7,3.3-37.4,5-56.1c0.1-1.3,0-2.6,0-4.5c-17.7,8.6-35.1,8.9-52-1.2
		c-12.3-7.4-20.1-18.3-23.4-32.2c-6.5-27.9,10.9-58.9,45.6-63.3c2.7-8.7,4.4-17.6,8.1-25.6c11.7-25.6,32.1-39.2,60.3-40
		c16.3-0.5,32.6-0.1,48.9-0.1c40.2,0.2,71.5,36.7,65.6,76.5c-0.9,5.7-1.5,11.5-2.2,17.3c-1.5,11.2,3,20.3,9.3,29.1
		c8.2,11.4,5.6,19.6-7.1,25.2c-1.6,0.7-3.3,3.2-3.5,5c-2.1,15.4-7.9,29-18,40.9c-9.9,11.7-22,16-36.9,12.3c-1.7-0.4-3.4-0.7-6.1-1.2
		c8.2,12.9,18.1,22.6,29.2,31.1c4.9,3.7,10.1,7.1,15.1,10.6c24.2,16.7,39.1,39.4,44.1,68.4c0.6,3.7,1.9,5.9,5.7,7.6
		c11.1,5.1,17.8,17.1,16.8,29.3c-0.2,2.8,0.5,4.1,2.9,5.4c27.2,14.9,43.7,37.6,47.9,68.3c4.1,30-3.6,57-25,79.3
		c-4.5,4.7-9.4,5.3-13,1.7c-3.6-3.6-3-8.3,1.6-13c34.8-35.8,26-97.2-17.4-121.2c-1.1-0.6-2.4-1.1-3.7-1.7c-0.8,1.1-1.5,2-2.1,2.9
		c-10.6,15.6-30.3,19.1-45.4,8c-14.2-10.5-16.4-29.9-5.1-44.6c5.7-7.3,11.5-14.3,21.3-16.7c-1.8-15.4-7.7-28.7-16.8-40.7
		c-2.8-3.7-6-7.1-9.3-10.4c-6.1-6.1-12.4-10.2-22.2-9.5c-12.9,1-25.8-1.9-38.1-6.1c-1.8-0.6-3.7-1.1-6-1.7c0,2.6,0,4.8,0,6.9
		c0,32.6,0.1,65.2,0,97.8c-0.1,20.6,6.4,38.7,19.4,54.6c22.4,27.4,44.6,55,66.7,82.7c1.7,2.2,3.4,5.5,3,7.9
		c-0.4,2.4-2.9,5.3-5.3,6.5c-3.4,1.7-6.7,0-9.2-3c-10-12.4-20.1-24.8-30.1-37.3c-13.7-17-27.5-33.8-41-50.9
		c-13.1-16.8-19.6-36-19.6-57.3c0-33.6,0-67.2,0-100.8c0-12.2-6.8-21.7-17.3-24.6c-15-4.2-30.3,6.3-30.4,22
		c-0.2,31.9-0.9,63.9,1.2,95.7c2.1,31.7,15.7,59.5,37.4,83c17.9,19.4,36.4,38.4,54.6,57.5c1.1,1.2,2.4,2.3,3.3,3.7
		c2.1,3.5,2,7-0.9,10c-2.9,3-6.5,3.3-10,1.1c-1.4-0.9-2.5-2.2-3.7-3.4c-18.1-19-36.3-38-54.4-57.1C485,732,484.6,731,483.7,729.4z
		 M540.1,352.4c-4,13.8-11,25.7-20.1,36.4c-7.1,8.3-13.8,9.5-23.3,4.3c-4.9-2.7-9.3-1.6-12.1,3.4c-2.8,5.1-2.3,10.2,0.9,15
		c4.4,6.5,10.8,9.5,18.4,10.7c5.6,0.8,8.4,4.2,7.8,8.9c-0.5,4.6-4.3,7.9-9.7,6.8c-5.9-1.2-11.6-3.7-17.4-5.5
		c-1.4-0.4-3.3-0.9-4.3-0.3c-6.1,3.9-11.4,7.4-11.3,16.8c0.1,13.5-2.7,27-4.1,40.6c-0.6,5.6-0.7,11.3-1,17.2
		c17-5.9,28.8-5.1,40.4,3.2c11.1,7.9,23.6,12.7,36.7,16.1c3.3,0.9,6.8,1.4,11.5,2.3c-2.3-2.3-3.4-3.6-4.5-4.7
		c-10-9.4-18.6-19.9-24.9-32.2c-2.1-4.2-4.6-6.7-9.4-7.5c-6-1.1-8.9-5.2-7.7-10c1.2-4.7,5.5-6.8,11.6-5.5c11.8,2.6,23.7,5,35.5,7.8
		c6.9,1.7,12.3-0.4,17-5.4c9.1-9.6,14.7-20.9,15.8-34.1c0.7-8.8,3.9-15.3,12.9-18c0.4-0.1,0.6-0.7,0.9-1.2c-1.7-2.7-3.5-5.3-5.1-8
		c-5.5-8.9-8-18.6-7-29c0.7-7.9,1.9-15.8,2.7-23.8c0.9-8.8-0.6-17.2-4.7-25.7C573.8,346.7,558.6,352.9,540.1,352.4z M506.3,379.8
		c7.9-8.6,13.8-18.1,17.4-29c3.9-11.6,7.5-14.2,19.9-14.5c12-0.3,21.9-4.7,29-14.7c2.7-3.7,2.5-6.1-1.3-9
		c-9.8-7.3-20.7-11.1-32.9-11.1c-15.1-0.1-30.3-0.1-45.4,0c-4.1,0-8.3,0.5-12.3,1.4c-23.5,5.7-38.1,24.3-40.8,52.2
		c-2.6,26.7,10.2,47.6,24.7,68.6c2.2-1.6,4.2-3.2,6.2-4.6c-6.3-14.5-4.9-27.3,4.1-36.2C484.3,373.6,495,373,506.3,379.8z
		 M423.9,368.5c-12.3-0.8-25.7,10.1-30.1,23.9c-4.8,15.4,1.5,32.1,15.4,40.6c12.8,7.8,30.3,6.6,39.9-3
		C436.9,411,424.5,392,423.9,368.5z M636.1,636.5c-0.2-7.4-3.1-11.8-8.5-14.3c-5.7-2.6-11.1-1.6-15.6,2.8c-2.7,2.6-5.1,5.7-7.3,8.8
		c-4.5,6.1-4,13.5,0.9,18.6c4.8,5.1,13.7,6.7,19.2,2.9C631.4,650.5,634.5,643.2,636.1,636.5z"/>
	<path d="M560.7,832.9c-13.7,0-27.5,0-41.2,0c-1.5-0.4-2.9-0.9-4.4-1.1c-40.8-3.3-79.3-14.3-114.9-34.4
		c-80.9-45.8-130.9-114.2-148.4-205.8c-2-10.2-3.1-20.6-4.6-31c0-13.7,0-27.5,0-41.2c0.4-1.7,0.8-3.3,1.1-5
		c2.3-14.3,3.7-28.7,7-42.7C288.2,331.5,424,228.5,580.9,249.9c60.6,8.3,113.8,33.3,158.2,75.4c73.3,69.6,103.4,155.4,91,255.4
		c-7,56.4-30.1,106.3-67.2,149.4c-45.5,52.8-102.5,85.9-171.3,98.3C581.4,830.2,571,831.4,560.7,832.9z M733.1,704.2
		c86.4-99.9,79.6-252.1-15.2-345.1c-96.3-94.5-246.5-95.2-341.9-12C495,466,614,585,733.1,704.2z M347.2,375.8
		c-88.3,101.8-81.5,262.7,27.6,356.6c102.5,88.3,247.5,74.7,329.2,0.2C585.1,613.8,466.3,494.9,347.2,375.8z"/>
</g>
</svg>
