<?xml version="1.0" encoding="utf-8"?>
<!-- Generator: Adobe Illustrator 22.0.1, SVG Export Plug-In . SVG Version: 6.00 Build 0)  -->
<svg version="1.1" id="Layer_1" xmlns="http://www.w3.org/2000/svg" xmlns:xlink="http://www.w3.org/1999/xlink" x="0px" y="0px"
	 viewBox="0 0 1080 1080" style="enable-background:new 0 0 1080 1080;" xml:space="preserve">
<style type="text/css">
	.st0{fill:none;}
</style>
<g>
	<path d="M645.4,718.8c-1.9,5.5-3.6,10-5.1,14.6c-0.3,1-0.4,2.4,0.1,3.2c5.2,7.9,4.5,15.3-1.2,23.4c3.4,5.1,5.9,10.5,4.1,17
		c-2.4,8.7-9.1,14.2-18.2,14.2c-23.8,0.1-47.6-0.1-71.4,0.1c-8.3,0.1-15.1-2.2-19.3-9.7c-4.2-7.6-2.7-14.7,2.4-21.5
		c-6.3-8.1-6.5-16.5-0.2-25.1c-6.4-8.3-5.8-16.8,0.4-25.8c-4.3,0-7.6,0-9.7,0c0.9,6.2,3.4,12.2,2.2,17.4c-1.5,6.5-3.2,12-1.1,18.9
		c1.3,4.4-1.4,9.9-2.6,16.3c4.6,6.9,5,16-1.5,23.3c-3.8,4.3-8.7,6.2-14.5,6.2c-24.3-0.1-48.6-0.1-72.9,0c-7.7,0-13.6-3-17.2-9.7
		c-3.5-6.5-3.1-13,1-19.3c0.4-0.6,0.7-1.1,1-1.6c-1.1-5.3-4.5-6.4-9.4-6.2c-7.1,0.4-14.3,0.2-21.4,0c-10.2-0.2-17.7-7.4-18-17.6
		c-0.8-24.5-1.4-48.9-2.1-73.4c-1-32.5-2-64.9-3-97.4c0-0.7-0.2-1.3-0.3-2.5c-2,0.8-3.8,1.5-5.6,2.2c-16.1,6.1-35.4-4.9-35.8-21.7
		c-0.8-35.2-1-70.4-0.1-105.5c0.6-21.5,20.2-39.3,41.7-40c11-0.4,22.1-0.1,33.1-0.3c3.7-0.1,6,1.5,7.7,4.7
		c5.4,10.2,11,20.3,16.9,31.1c1.1-1.6,1.9-2.7,2.6-3.9c5.2-9,10.4-17.9,15.4-27c1.9-3.5,4.5-5.2,8.6-5c13,0.5,26.4-0.6,39.1,1.7
		c20,3.5,34.4,22.8,34.5,43.1c0.1,32,0,63.9-0.1,95.9c0,15.2-9.2,26.6-23.9,28.3c-5.8,0.7-11.8-1.4-18.4-2.2
		c-0.6,20.8-1.1,42.4-1.7,64.3c6.8,0.6,12.8,1.7,17.6-4.3c2.1-2.7,5.4-4.8,8.6-6.1c4.1-1.8,5.5-4.5,6.4-8.7
		c7.5-34.5,26.6-60.9,57-78.9c0.6-0.3,1.1-0.7,2.1-1.4c-6.3-6.1-5.7-13.9-3.9-20.8c2.3-8.5,11.4-7.7,17.3-9.8
		c-4.9-11-9.8-22.1-14.7-33.1c-1.6-3.5-2.4-7,1.3-9.6c3.6-2.6,6.6-0.8,9.4,1.9c7.1,6.7,15.4,7.2,24.2,4.2c1.2-0.4,2.4-1.3,3.2-2.4
		c11.1-15.2,36.2-21.3,56.1-9c3.1,2,6.5,3.9,10,4.9c3,0.8,6.3,0.1,9.5,0.3c2.8,0.2,6.2-0.2,8.3,1.2c3.1,2.3,1.6,5.7,0,8.7
		c-5.6,10.6-11.2,21.3-16.8,32.2c6.5,2.7,16.6,1.2,19.4,9.7c2.3,6.9,3,15.1-2.8,20.9c8.8,7.1,18.1,13.5,26,21.3
		c41.2,40.8,46.3,103.7,12.7,150.9c-1.1,1.5-1.2,4.3-0.9,6.3c0.7,4.5,2.4,8.9,2.8,13.4c0.8,8.7-5.3,15.2-14,15.1
		c-9.9-0.1-18.8-3.3-25.9-10.1c-5.4-5.2-11.5-7.3-18.9-7.1C665.3,719.1,655,718.8,645.4,718.8z M422.1,733.7
		c-4.3-6.6-4.7-13.7-0.5-21.2c0.7-1.2,0.4-3.5-0.3-4.8c-3.7-6.7-3.6-13.2,0.1-19.9c0.7-1.2,0.7-3.5,0-4.7
		c-3.8-6.9-3.9-13.5,0.1-20.3c0.7-1.1,0.8-3.4,0.1-4.4c-8.1-11.8,0.2-29.6,17.3-29c8.3,0.3,16.7-0.2,25,0.1c4.3,0.2,5.5-1.4,5.5-5.5
		c0.2-15.3,0.8-30.6,1.2-45.9c0.3-12.2,0.5-24.5,0.7-36.7c0.1-4.1,1.6-7.2,6-7.3c4.3-0.1,6.2,2.9,6.5,7c0,0.5,0,1,0.1,1.5
		c1.1,6.5,6.2,11.3,12.7,12.1c6.9,0.8,13.2-2.8,15.3-9.2c0.9-2.7,1.1-5.7,1.1-8.5c0.2-31.1,0.2-62.2,0.3-93.3
		c0-15.6-10.6-29.6-26-32.1c-9.4-1.6-19.3-0.7-28.9-1.2c-3.4-0.2-5.5,0.8-7.2,4c-6.1,11.2-12.4,22.2-19,33.1
		c-1.4,2.4-4.4,5.4-6.5,5.3c-2.5-0.2-5.5-3-6.9-5.4c-6.4-11-12.2-22.3-18.5-33.4c-0.9-1.6-3.1-3.3-4.8-3.4c-9-0.3-18-0.4-27-0.1
		c-15.7,0.6-30.2,14.3-30.4,29.6c-0.4,33.7-0.2,67.3,0,101c0,7.4,5.9,12.9,13.3,13.6c7.2,0.6,13.7-4.2,15.3-11.4
		c0.4-1.7,0.1-3.8,1-4.9c1.5-1.9,3.8-4.4,5.7-4.4c2,0,4.3,2.5,5.9,4.3c0.7,0.8,0.4,2.6,0.4,4c1.5,51.8,2.9,103.6,4.4,155.4
		c0.3,11.6,0.6,23.1,1,34.7c0.3,8.7,1.4,9.7,9.8,9.7c4.2,0,8.5-0.3,12.7,0.1C414.4,742.9,420.3,742.5,422.1,733.7z M579.2,654.5
		c15.5,0,30.6,0,45.7,0c10,0,18.2,6.7,18.7,16.5c0.3,4.9-2,10-3.3,16c3.9,5,4.9,11.9,1.6,19.6c12.2,0,23.8,0.2,35.3-0.1
		c9.8-0.3,17.9,2.7,24.9,9.6c5.3,5.2,11.8,7.5,20.5,7.4c-1.1-4.6-1.5-8.9-3.2-12.5c-2.7-5.8-2.1-10.5,1.7-15.6
		c30.8-40.9,27.7-96.9-7.6-133.9c-6.2-6.5-13.5-11.9-20.3-17.9c-0.4,0.4-0.8,0.8-1.2,1.2c0.2,0.5,0.4,1.1,0.7,1.6
		c11.9,19.5,17.1,40.7,14.4,63.3c-1.3,10.7-4.6,21.1-7.4,31.6c-1,3.6-4.1,5-7.7,3.9c-3.8-1.2-4.7-4.2-3.9-7.7
		c0.4-1.8,1.2-3.5,1.8-5.3c8.9-27.6,7.5-54.1-7.9-79.3c-0.6-1-1.5-1.9-3.2-4c0,3.6,0.3,5.6,0,7.6c-2.3,13-3.9,26.2-7.3,38.9
		c-3.1,11.6-9.6,21.7-19.8,28.9c-3.3,2.3-6.6,2.9-9.5-0.5c-2.5-2.9-1.1-6.2,2.1-9.7c4.6-4.9,9.6-9.9,12.4-15.8
		c3.6-7.4,6-15.6,7.4-23.7c1.9-11.6,2.4-23.5,3.5-35.6c-3,0.2-4.5,0.3-6,0.5c-22.9,2.9-45.7,2.5-68.4-1.9c-2.9-0.6-6.5-0.1-9.1,1.2
		c-24.7,12.1-42,31.2-52.2,56.7c-2.2,5.4-3.6,11-5.5,16.8C557.9,614.4,573.3,626.7,579.2,654.5z M566.8,660.3
		c-0.1-19.8-15.9-35.6-35.7-35.5c-19.7,0-35.5,16-35.4,35.8c0.1,19.7,16.2,35.8,35.7,35.7C551,696.1,566.8,680,566.8,660.3z
		 M636.8,501.2c2-10.7,4-21.3,6-31.9c-7.8-2.9-15-1.9-21.8,0.9c-9.9,4.1-19.6,8.3-30.9,5.7C595.4,492.6,606.4,504.1,636.8,501.2z
		 M587.8,753.5c11.7,0,23.4,0,35.1,0c5.7,0,8.7-2.3,8.5-6.4c-0.1-3.9-3.1-6-8.4-6c-23.4,0-46.8,0-70.3,0c-5.3,0-8.2,2.3-8.2,6.2
		c0,4,2.8,6.2,8.2,6.2C564.4,753.5,576.1,753.5,587.8,753.5z M473.5,766.5c-11.9,0-23.8,0.1-35.7,0c-4.3,0-7.5,1.1-8,5.8
		c-0.4,3.9,2.7,6.6,7.9,6.6c23.6,0,47.3,0,70.9,0c5.2,0,8.3-2.5,8-6.5c-0.4-4.8-3.5-6-7.8-5.9C497,766.6,485.3,766.5,473.5,766.5z
		 M587.9,778.9c3.7,0,7.5,0,11.2,0c8.5,0,17,0.1,25.5-0.1c3.9-0.1,6.6-2.1,6.6-6.2c0-3.8-2.1-6.1-6-6.1c-24.8,0-49.6,0-74.4,0
		c-3.6,0-5.8,1.9-6.1,5.5c-0.3,3.9,1.9,6,5.5,6.7c1.3,0.3,2.7,0.1,4.1,0.1C565.5,778.9,576.7,778.9,587.9,778.9z M473.2,753.7
		c11.7,0,23.4,0,35.2,0c5.5,0,8.2-2.1,8.2-6.1c0-4-2.8-6.3-8.2-6.3c-23.4-0.1-46.9,0-70.3,0c-5.4,0-8.2,2.3-8.3,6.2
		c0,3.9,2.8,6.1,8.2,6.1C449.8,753.7,461.5,753.7,473.2,753.7z M588,716.5c-12.1,0-24.1,0.1-36.2,0c-4.3,0-7.1,1.5-7.1,6
		c0,4.4,3,6.3,7.1,6.3c24.1,0,48.2,0,72.3,0c4.1,0,7.1-1.8,7.1-6.3c0-4.4-2.8-6-7.1-6C612.1,716.6,600,716.5,588,716.5z M474.4,729
		c11.9,0,23.7,0,35.6,0c4.2,0,7.4-1.2,7.7-6c0.2-4.2-2.4-6.4-7.9-6.4c-23.6,0-47.1,0-70.7,0c-4.3,0-7.4,1.4-7.8,6.1
		c-0.4,3.9,2.7,6.3,8,6.3C451,729,462.7,729,474.4,729z M509.7,704.2c-4.4-3.4-8.3-5.8-11.4-9c-2.7-2.7-5.4-3.5-9-3.5
		c-16,0.1-31.9,0.1-47.9,0.1c-1.5,0-3.4-0.5-4.5,0.2c-2.2,1.4-5.3,3.4-5.4,5.4c-0.2,2,2.5,4.6,4.4,6.3c1,0.9,3.3,0.5,4.9,0.5
		c21.4,0,42.8,0,64.2,0C506.3,704.2,507.6,704.2,509.7,704.2z M554.2,703.5c1.6,0.1,2.5,0.3,3.5,0.3c21.9,0,43.9,0,65.8,0.2
		c4.3,0,7.5-1.1,7.8-5.9c0.2-3.9-2.5-6.1-7.6-6.1c-17.5-0.1-35-0.1-52.5,0.1c-1.7,0-3.7,0.6-5,1.7
		C562.2,696.5,558.6,699.8,554.2,703.5z M483.3,666.7c-7.4,0-14.5,0-21.6,0c-8,0-16-0.1-24,0.1c-3.9,0.1-6.7,2.3-6.6,6.3
		c0,3.9,2.6,6.1,6.7,6c3.7,0,7.5,0,11.2,0c12.4,0,24.8,0,37.4,0C485.4,674.8,484.4,671.1,483.3,666.7z M486.4,642.1
		c-16.8,0-33.1-0.2-49.3,0.2c-2,0.1-5.3,3.1-5.5,5.1c-0.2,2,2.4,4.5,4.1,6.5c0.6,0.7,2.2,0.5,3.4,0.5c13.9,0,27.8,0,41.7,0
		c0.9,0,1.9-0.3,2.6-0.5C484.4,650,485.3,646.4,486.4,642.1z M579.2,666.7c-1.1,4.3-2.1,8.1-3.2,12.4c16.3,0,32.3,0,48.2,0
		c4.3,0,7.1-1.8,7.2-6c0-4.3-2.9-6.3-7-6.3C609.4,666.7,594.5,666.7,579.2,666.7z M677.5,470.1c-9.5-4.3-18.6-8.5-27.7-12.7
		c3.6,3.3,7.7,5.6,5.7,11.5c-0.5,1.6-0.7,3.3-1,5c-1.6,8.6-3.2,17.2-4.8,26.1C664.2,497,671,486.6,677.5,470.1z M589.9,523.3
		c29,7.3,57.9,7.3,86.8,0C647.8,526.3,618.8,526.4,589.9,523.3z"/>
	<path d="M379.1,340.7c1.2-7.5,1.4-15.3,3.7-22.4c6.6-20.5,26.4-32,48.5-29.1c20,2.6,35.8,20.2,36.8,42c0.4,9.3,0.5,18.9-1.4,27.9
		c-4.6,21.2-25.1,35.9-45.3,33.8c-23.8-2.5-40.6-20.1-41.3-43.3c-0.1-2.9,0-5.8,0-8.7C379.7,340.8,379.4,340.8,379.1,340.7z
		 M456.2,340.8c-0.2,0-0.4,0-0.6-0.1c0-3.1,0.1-6.1,0-9.2c-0.7-16.9-13.8-30-30.3-30.3c-17.5-0.3-31.3,11.8-32.5,29
		c-0.5,7.1-0.4,14.3,0.1,21.4c1,14.6,12.9,26.9,26.8,28.4c16.2,1.7,30.5-7.2,34.5-22.2C455.7,352.4,455.6,346.5,456.2,340.8z"/>
	<path d="M541.3,657c9,10.8,8.4,17.7-2.3,27.3c-0.9,0.8-1.1,2.5-2,3.3c-1.7,1.6-3.6,4.1-5.6,4.1c-1.9,0.1-4.1-2.2-5.8-3.7
		c-1.6-1.5-2.8-3.5-4.3-5.2c-1.4-1.7-3.1-3.2-4.2-5.1c-3.7-6.4-2.4-10.9,4-14.6c-8.8-10.1-8.1-18.5,2.1-26.9c1-0.8,1.3-2.3,2.2-3.1
		c1.8-1.5,3.8-3.9,5.7-3.9c1.9,0,4,2.2,5.8,3.8c1.3,1.1,2.3,2.7,3.4,4.1c2,2.5,4.5,4.7,5.8,7.5C549,650.8,547.4,654.2,541.3,657z
		 M534.8,655.3c0.3-0.5,0.7-1,1-1.4c-1.4-2.6,0.2-7.3-5-6.9c-1.1,0.1-2.1,2.4-3.1,3.7C530.1,652.3,532.5,653.8,534.8,655.3z
		 M527.6,665c-0.6,0.7-1.2,1.4-1.8,2c1.9,2.2,3.8,4.5,5.7,6.7c1.1-1.3,2.2-2.5,3.3-3.8C532.4,668.3,530,666.7,527.6,665z"/>
</g>
</svg>
