<?xml version="1.0" encoding="utf-8"?>
<!-- Generator: Adobe Illustrator 22.0.1, SVG Export Plug-In . SVG Version: 6.00 Build 0)  -->
<svg version="1.1" id="Layer_1" xmlns="http://www.w3.org/2000/svg" xmlns:xlink="http://www.w3.org/1999/xlink" x="0px" y="0px"
	 viewBox="0 0 1080 1080" style="enable-background:new 0 0 1080 1080;" xml:space="preserve">
<style type="text/css">
	.st0{fill:none;}
</style>
<g>
	<path d="M790.6,693.6c-5.2,0-10.1,0-15.4,0c0,26.9,0,53.5,0,80.8c4.9,0,10.1,0,15.5,0c0,5.5,0,10.5,0,16.3c-1.5,0-3.1,0-4.7,0
		c-146.6,0-293.1,0-439.7,0c-29.1,0-52.9-21.3-56.5-50.2c-3.5-27.9,15.4-55,43.4-61.4c6.3-1.5,13-1.4,19.5-1.5
		c11.1-0.2,22.2-0.1,33.6-0.1c0-5.5,0-10.6,0-16.2c-2,0-3.8,0-5.6,0c-21.9,0-43.8,0-65.7,0c-15.2,0-25.4-10.1-25.5-25.2
		c0-15.7,0-31.3,0-47c0-9.8,4.4-17.2,12.9-21.8c2.7-1.5,3.4-3.1,3.3-5.9c-0.1-9.6,0-19.2,0-29.1c5.3,0,10.5,0,15.9,0
		c0,10.4,0,20.8,0,31.6c27.1,0,53.7,0,81.1,0c0-2.2,0-4.4,0-6.7c0-10.9,0-21.9,0-32.8c0.1-14.4,10.4-24.7,24.9-24.7
		c32.8,0,65.7,0,98.5,0c1.8,0,3.6,0,5.7,0c0-5.5,0-10.5,0-16c-5.1,0-10.2,0-15.9,0c0-12.3-0.1-24,0.1-35.7c0-1.2,1.8-3,3-3.3
		c11.9-3,14.6-11,13.2-22.2c-0.9-7-0.3-14.1-0.1-21.2c0.1-2.8-0.7-4.4-3.4-5.9c-22.1-12.7-32.7-35.9-28-60.8
		c4.4-23.2,24-41.3,48.7-44.8c2.7-0.4,5.4-0.3,8.1-0.3c31.5,0,63,0,94.5,0c34.5,0,59.8,26.8,57.7,61.2c-0.7,11.7-5.1,22.3-12.8,31.2
		c-2.5,2.9-3.4,5.8-3.3,9.5c0.1,19.7,0.1,39.4,0.1,59.4c10.8,0,21.3,0,32.4,0c0-5.2,0-10.3,0-15.5c0.1-9.7,6.8-16.4,16.5-16.5
		c5.1-0.1,10.1,0,15.2,0c10.1,0.1,16.7,6.7,16.8,16.8c0,30.2,0,60.3,0,90.5c0,1.8,0,3.6,0,5.8c5.4,0,10.4,0,15.8,0
		C790.6,585.8,790.6,639.4,790.6,693.6z M645.6,774.2c27.1,0,53.8,0,80.3,0c0-27,0-53.7,0-80.7c-5.4,0-10.4,0-15.4,0
		c-0.2-0.8-0.4-1.3-0.4-1.8c0-48.2-0.1-96.3,0.1-144.5c0-3,1.2-6.7,3.2-8.7c3.4-3.3,7.9-5.5,12.5-8.4c0-9.3,0-19.6,0-30.2
		c-26.9,0-53.6,0-80.5,0C645.6,591.4,645.6,682.6,645.6,774.2z M580.7,370.4c0,2.4,0,4.4,0,6.4c0,62,0.1,124-0.1,185.9
		c0,9,1.1,17.3,5.7,25.1c9.1,15.1,12.1,31.3,10.7,48.8c-0.8,9.8-4.6,17.1-13.1,21.7c-2.4,1.3-3.3,2.7-3.3,5.4
		c0.2,8.8-0.1,17.5,0.2,26.3c0.1,2.6,1.2,5.5,2.8,7.6c12.5,15.8,16.7,33.4,10.8,52.6c-2.7,8.6-8.1,16.3-12.1,24.2
		c14.9,0,30.7,0,46.7,0c0-134.8,0-269.2,0-403.9C612.9,370.4,597.1,370.4,580.7,370.4z M516,629.3c5.7,0,10.8,0,16.2,0
		c0,5.4,0,10.3,0,15.7c13.8,0,27.2,0.3,40.6-0.3c2.5-0.1,6.8-3.6,7-5.8c0.9-9.6,2.8-19.5-1.4-28.8c-13.8-30.3-27.9-60.4-41.7-90.7
		c-1.3-2.8-2.7-4-5.9-3.9c-33.8,0.1-67.7,0.1-101.5,0.1c-7.5,0-10.4,3-10.4,10.4c0,11.5,0,22.9,0,34.4c0,6.5,0,13,0,20.1
		c-21.9,0-43.1,0-64.3,0c0,21.8,0,43.1,0,64.3c32.3,0,64.3,0,96.8,0c0-5.3,0-10.5,0-15.5c5.7,0,10.8,0,16.2,0c0,5.4,0,10.4,0,15.5
		c5.5,0,10.6,0,16.3,0c0-5.4,0-10.6,0-15.6c5.5,0,10.5,0,16.1,0c0,5.4,0,10.5,0,15.5c5.7,0,10.8,0,16.1,0
		C516,639.5,516,634.6,516,629.3z M442.8,774.6c32.2,0,64.3,0.1,96.5,0c26.5-0.2,45-22.3,40.5-48.2c-3.3-19-20.3-32.6-41-32.7
		c-49.8-0.1-99.7,0-149.5,0c-14.3,0-28.6-0.2-42.9,0.1c-26.1,0.4-44.3,22.8-39.7,48.4c3.4,18.7,20.3,32.4,40.7,32.4
		C379.2,774.6,411,774.6,442.8,774.6z M630.1,353.7c-2.7-17.6,6.1-31,20.9-32c14.9-1.1,26.7,9.8,26.7,24.4c0,7-2.7,12.8-7.6,17.5
		c-6.9,6.5-15.3,7.8-24.4,5.5c0,5.8,0,11.3,0,17.2c2.8,0,5.2,0.1,7.7,0c22.8-0.5,40.6-18.4,40.5-40.5c-0.1-22.2-17.9-40.1-40.7-40.3
		c-32.2-0.2-64.3-0.3-96.5,0c-26.1,0.2-44.5,22.7-39.7,48.3c4.2,22.3,26.4,35.9,47.2,31.8c0-5.5,0-10.9,0-16.4
		c-13.5,2.6-23.8-1.7-29.2-12c-4.9-9.2-3.3-20.5,3.9-28.1c7.3-7.7,18.7-9.8,28.3-5.1c10.5,5.1,14.9,15.2,12.7,29.7
		C596.6,353.7,613.3,353.7,630.1,353.7z M726.6,548.3c0,43.2,0,86.1,0,128.8c16.3,0,32.1,0,47.9,0c0-43.1,0-85.8,0-128.8
		C758.5,548.3,742.7,548.3,726.6,548.3z M337.9,580.5c-8.3,0-16.1-0.2-24,0.1c-4.9,0.2-8,3.5-8.1,8.6c-0.1,15.8-0.1,31.7,0,47.5
		c0,4.9,3.1,8.2,7.7,8.4c8,0.3,16.1,0.1,24.3,0.1C337.9,623.5,337.9,602.3,337.9,580.5z M758.4,467.5c-37.8,0-75.3,0-112.6,0
		c0,5.5,0,10.6,0,15.6c37.7,0,75.1,0,112.6,0C758.4,477.9,758.4,472.9,758.4,467.5z M677.5,450.9c0-18,0-35.5,0-52.1
		c-10.6,1.6-21.1,3.2-31.8,4.9c0,15.2,0,31.1,0,47.2C656.3,450.9,666.7,450.9,677.5,450.9z M564.4,661.6c-32.6,0-64.6,0-96.5,0
		c0,5.5,0,10.6,0,15.9c6.4,0,12.5-0.3,18.5,0c26,1.4,52.3-3.9,78,4.5C564.4,675.3,564.4,668.7,564.4,661.6z M742.6,774.2
		c5.6,0,10.7,0,15.8,0c0-26.9,0-53.5,0-80.2c-5.4,0-10.5,0-15.8,0C742.6,720.8,742.6,747.3,742.6,774.2z M403,677.3
		c16.3,0,32.1,0,48,0c0-5.4,0-10.5,0-15.6c-16.2,0-32.1,0-48,0C403,667,403,672,403,677.3z M564.2,539.9c0-19.7,0-38,0-56.1
		c-5.5,0-10.6,0-15.5,0c0,7.8-1.7,15.7,0.4,22.5C552.6,517.5,558.6,527.9,564.2,539.9z M564.3,440.1c-8.4,4.2-16,8.7-24.1,11.8
		c-7.2,2.7-9.4,7.1-8,14c0.1,0.3,0.3,0.6,0.5,1c10.4,0,20.9,0,31.6,0C564.3,458.1,564.3,449.6,564.3,440.1z M758.3,531.7
		c0-11,0-21.4,0-31.9c-5.4,0-10.4,0-15.6,0c0,10.7,0,21.2,0,31.9C748,531.7,753,531.7,758.3,531.7z M548.7,402.5c0,8.9,0,17.7,0,27
		c5-2.5,9.5-4.6,13.9-6.9c0.9-0.5,1.9-1.7,1.9-2.5c0.2-5.8,0.1-11.6,0.1-17.5C558.8,402.5,553.8,402.5,548.7,402.5z M758.4,435.2
		c-5.5,0-10.6,0-15.6,0c0,5.5,0,10.6,0,15.6c5.4,0,10.4,0,15.6,0C758.4,445.6,758.4,440.6,758.4,435.2z M661.5,345.9
		c0-4.2-3.9-8-8.1-8c-4.2,0-8,3.9-8,8.1c0,4.2,3.9,8,8,8C657.7,353.9,661.5,350,661.5,345.9z M556.4,353.9c4.2,0,8.1-3.8,8.1-8
		c0-4.2-3.8-8.1-8-8.1c-4.2,0-8.1,3.8-8.1,8C548.4,350,552.2,353.9,556.4,353.9z"/>
	<path d="M597.2,580.6c5.3,0,10.2,0,15.4,0c0,5.2,0,10.2,0,15.7c-4.9,0-10,0-15.4,0C597.2,591.2,597.2,586.1,597.2,580.6z"/>
	<path d="M597,402.2c0-5.3,0-10.1,0-15.4c5.1,0,10.2,0,15.7,0c0,4.9,0,10,0,15.4C607.6,402.2,602.5,402.2,597,402.2z"/>
	<path d="M612.6,564.1c-5.2,0-10.2,0-15.4,0c0-5.3,0-10.3,0-15.7c5.1,0,10.1,0,15.4,0C612.6,553.4,612.6,558.5,612.6,564.1z"/>
	<path d="M597.2,516c5.1,0,10.1,0,15.5,0c0,5,0,10.1,0,15.5c-5,0-10.1,0-15.5,0C597.2,526.4,597.2,521.3,597.2,516z"/>
	<path d="M597.2,418.8c5.3,0,10.2,0,15.4,0c0,5.2,0,10.2,0,15.7c-4.9,0-10,0-15.4,0C597.2,429.4,597.2,424.3,597.2,418.8z"/>
	<path d="M597.2,483.7c5.1,0,10.1,0,15.5,0c0,5,0,10.1,0,15.5c-5,0-10.1,0-15.5,0C597.2,494.1,597.2,489,597.2,483.7z"/>
	<path d="M597.1,466.9c0-5.2,0-10.2,0-15.5c5.1,0,10.2,0,15.6,0c0,5.1,0,10.2,0,15.5C607.6,466.9,602.7,466.9,597.1,466.9z"/>
	<path d="M435.5,532.1c32.3,0,64.2,0,96.4,0c0,26.7,0,53.3,0,80.2c-31.9,0-64,0-96.4,0C435.5,585.9,435.5,559.2,435.5,532.1z
		 M451.5,596.3c21.7,0,43,0,64.1,0c0-16.2,0-32.1,0-47.9c-21.6,0-42.7,0-64.1,0C451.5,564.4,451.5,580.1,451.5,596.3z"/>
	<path d="M370.9,596.6c9.5,0,18.5,0,27.6,0c1.2,0,2.3,0,3.9,0c0,5.3,0,10.4,0,15.8c-10.4,0-20.8,0-31.5,0
		C370.9,607.2,370.9,602,370.9,596.6z"/>
	<path d="M540.4,709.9c13.6,0,24.2,10.8,24.1,24.5c-0.1,13.5-11,24.1-24.6,24c-13.2-0.1-23.9-10.9-23.9-24.2
		C516,720.5,526.8,709.8,540.4,709.9z M548.3,734.2c0.1-4.2-3.7-8.1-7.9-8.2c-4.2-0.1-8.1,3.7-8.2,7.9c-0.1,4.1,3.7,8.1,7.9,8.2
		C544.3,742.2,548.2,738.4,548.3,734.2z"/>
	<path d="M475.6,709.9c13.6,0,24.2,10.8,24.2,24.4c0,13.5-10.9,24.2-24.5,24.1c-13.3-0.1-23.9-10.8-23.9-24.2
		C451.3,720.6,462,709.8,475.6,709.9z M483.6,734.1c0-4.2-3.8-8.1-8-8.1c-4.2,0-8.1,3.8-8.1,8c0,4.2,3.8,8.1,8,8.1
		C479.7,742.2,483.6,738.3,483.6,734.1z"/>
	<path d="M435.1,734.2c0,13.5-10.9,24.2-24.5,24.1c-13.5-0.1-24.1-11-24-24.6c0.1-13.3,10.9-23.8,24.3-23.8
		C424.5,709.9,435.1,720.6,435.1,734.2z M411,742.1c4.2-0.1,8-4,7.9-8.2c-0.1-4.2-4-8-8.2-7.9c-4.2,0.1-8,4-7.9,8.2
		C402.9,738.4,406.9,742.2,411,742.1z"/>
	<path d="M370.4,734c0,13.6-10.7,24.3-24.3,24.3c-13.6,0-24.2-10.8-24.2-24.4c0.1-13.3,10.7-24,24.1-24
		C359.6,709.8,370.4,720.5,370.4,734z M354.2,733.9c-0.2-4.2-4.1-8-8.3-7.8c-4.2,0.2-7.9,4.1-7.8,8.3c0.1,4.2,4.1,8,8.3,7.8
		C350.6,742,354.4,738,354.2,733.9z"/>
</g>
</svg>
