<?xml version="1.0" encoding="utf-8"?>
<!-- Generator: Adobe Illustrator 22.0.1, SVG Export Plug-In . SVG Version: 6.00 Build 0)  -->
<svg version="1.1" id="Layer_1" xmlns="http://www.w3.org/2000/svg" xmlns:xlink="http://www.w3.org/1999/xlink" x="0px" y="0px"
	 viewBox="0 0 1080 1080" style="enable-background:new 0 0 1080 1080;" xml:space="preserve">
<style type="text/css">
	.st0{fill:none;}
</style>
<g>
	<path d="M827.5,746.3c-4.7,11-13.1,14.7-24.9,14.7c-175.1-0.2-350.3-0.1-525.4-0.2c-3.5,0-7.1-0.3-10.5-1.1
		c-5.8-1.5-10.7-5.3-11.8-10.9c-2.4-12.2-4.4-24.9,1.3-36.6c13.2-26.8,27-53.2,40.3-79.9c1.6-3.2,2.5-7.1,2.5-10.6
		c0.1-93.8,0.1-187.7,0.1-281.5c0-15.7,5.4-21.1,21.3-21.1c146.7,0,293.5,0,440.2,0c2.4,0,4.9-0.1,7.3,0.3
		c8.9,1.5,13.7,8.1,13.7,18.8c0,92.3,0.1,184.7-0.1,277c0,8.3,1.7,15.6,5.5,22.9c12.8,24.5,25.1,49.2,37.6,73.8c0.9,1.8,2,3.6,3,5.3
		C827.5,726.9,827.5,736.6,827.5,746.3z M316.1,620.4c149.8,0,299,0,448.3,0c0-94.9,0-189.4,0-284c-149.6,0-298.9,0-448.3,0
		C316.1,431.2,316.1,525.6,316.1,620.4z M275.5,711.6c18.9,0,36.9,0,54.8,0c41.5,0,83-0.1,124.5,0.1c4,0,5.9-1,6.9-5.1
		c2-8.9,4.6-17.7,7.1-26.5c2.6-9.3,7.7-13.7,17.3-13.8c36.3-0.2,72.5-0.2,108.8,0c9.6,0.1,14.7,4.5,17.3,13.8
		c2.4,8.6,4.9,17.2,6.9,25.9c1,4.4,3,5.7,7.6,5.7c57.6-0.2,115.2-0.1,172.7-0.1c1.8,0,3.5-0.2,5.7-0.3c-1.1-2.3-1.8-3.9-2.7-5.6
		c-10.5-20.6-21.1-41.2-31.3-62c-2.2-4.5-4.8-6-9.8-6c-144.7,0.1-289.4,0.3-434.1-0.2c-11,0-16.8,2.8-21.4,13
		C296.8,671.1,286,690.7,275.5,711.6z M810.4,728.8c-180.3,0-360.2,0-540.2,0c-0.1,1.3-0.2,2.2-0.2,3.2
		c-0.2,11.9-0.2,11.9,11.6,11.9c172,0,344,0,515.9,0C811.1,743.9,811.5,747.2,810.4,728.8z M595.2,683.4c-35.9,0-71.4,0-106.9,0.1
		c-1.1,0-3,1.1-3.2,2c-2.5,8.5-4.8,17-7.2,25.8c42,0,83.3,0,125.1,0C600.3,701.8,597.8,692.7,595.2,683.4z"/>
	<path d="M730,371c-126.7,0-252.6,0-379.2,0c0,2.2,0,4.2,0,6.2c0,24.9,0,49.7,0,74.6c0,1.5,0.1,3-0.1,4.5c-0.4,4.8-4,8.3-8.3,8.3
		c-4.5,0.1-8.4-3.6-8.4-8.7c-0.1-29.7-0.1-59.4,0-89.1c0-6.5,3.9-10.8,10.2-12.3c2.3-0.5,4.8-0.7,7.2-0.7c126,0,251.9,0,377.9,0
		c1.3,0,2.6-0.1,3.9,0c8.4,0.7,13.4,5.8,13.5,14.2c0.1,29,0.1,57.9,0,86.9c0,5.9-3.6,9.8-8.6,9.7c-4.9-0.2-8.2-4-8.2-10.1
		c0-25.6,0-51.2,0-76.8C730,375.6,730,373.6,730,371z"/>
	<path d="M730,585.7c0-19.3,0-38.1,0-57c0-9-0.1-17.9,0-26.9c0.1-5.6,3.5-9.1,8.5-9.1c5,0,8.3,3.5,8.3,9.2c0.1,29.2,0.1,58.3,0,87.5
		c0,8-4.7,12.8-12.7,13.6c-2,0.2-4.1,0.2-6.2,0.2c-125,0-250.1,0-375.1,0c-2.2,0-4.5,0-6.7-0.3c-7.4-0.9-12-5.5-12.1-13
		c-0.2-29.5-0.1-59.1,0-88.6c0-5.3,3.5-8.6,8.3-8.6c5.2,0,8.4,3.6,8.5,9.7c0.1,25.6,0,51.2,0,76.8c0,2,0,4.1,0,6.5
		C477.2,585.7,603.2,585.7,730,585.7z"/>
</g>
</svg>
