<?xml version="1.0" encoding="utf-8"?>
<!-- Generator: Adobe Illustrator 22.0.1, SVG Export Plug-In . SVG Version: 6.00 Build 0)  -->
<svg version="1.1" id="Layer_1" xmlns="http://www.w3.org/2000/svg" xmlns:xlink="http://www.w3.org/1999/xlink" x="0px" y="0px"
	 viewBox="0 0 1080 1080" style="enable-background:new 0 0 1080 1080;" xml:space="preserve">
<style type="text/css">
	.st0{fill:none;}
</style>
<g>
	<path d="M306.9,791.8c-6.4-2.4-12.1-5.6-15.7-11.8c-6.5-11.6-2.2-26.3,9.6-32.5c1.6-0.8,3.2-1.5,5-2.4c0-2.2,0-4.3,0-6.4
		c0-125.7,0-251.5,0-377.2c0-15.4,5.5-23,20-28.3c1.2-0.4,2.4-2.5,2.4-3.9c0.2-7.4,0.1-14.8,0.1-22.1c0.1-11.7,7.4-19.1,19-19.1
		c71.3,0,142.6,0,213.9,0c11.2,0,18.8,7.6,18.9,18.7c0.1,7.4,0.1,14.8,0,22.1c0,2.4,0.3,3.7,3.1,4.5c12.6,3.6,19.5,13,19.5,26.1
		c0,8.9,0,17.7,0,26.6c0,6.1-2.6,9.6-7.3,9.8c-4.8,0.1-7.5-3.4-7.5-10c0-8,0-16.1,0-24.1c0-10.6-3.9-14.4-14.6-14.5
		c-16.9,0-33.8,0-50.7,0c-62.5,0-124.9,0-187.4,0c-8.6,0-12.7,2.3-14.3,8.3c-0.5,1.7-0.5,3.6-0.5,5.3c0,126.2,0,252.5,0,378.7
		c0,1.4,0,2.9,0,4.6c8.9,0,17.4,0,26.2,0c0-28.2,0-56.4,0-85c-1.2-0.4-2.7-0.8-4.1-1.6c-3-1.7-4.7-4.7-3.3-7.8
		c1-2.3,3.8-3.9,5.8-5.7c0.2-0.2,0.6-0.1,1-0.1c29.7,0,59.3,0,89,0c3.8,0,6.7,2.1,7,5.6c0.2,2.5-1.4,5.4-2.9,7.7
		c-0.7,1.1-2.9,1.4-4.6,2.1c0,28.1,0,56.4,0,84.9c10,0,19.8,0,30.2,0c0-7-0.2-13.8,0.1-20.7c0.1-2.6,1-5.9,2.8-7.3
		c1.8-1.4,5.7-1.9,7.6-0.8c2.1,1.2,4,4.5,4.2,7c0.6,7.1,0.2,14.3,0.2,21.8c10.4,0,20.3,0,31.1,0c0-4.6-0.4-9.4,0.2-13.9
		c0.4-2.8,1.7-6.3,3.7-7.9c4.7-3.6,10.8,0.4,11.1,6.9c0.2,4.9,0,9.8,0,14.9c19,0,37.4,0,56.2,0c1.9-10.6,3.9-21.2,5.8-31.8
		c2-10.9,3.9-21.9,5.8-32.8c1.1-6-3-11.1-8.8-12.5c-3.5-0.8-7.4-2.3-9.9-4.7c-9.6-9.4-18.7-19.3-28.1-28.8c-0.8-0.8-2.6-1.2-3.6-0.9
		c-11.9,3.4-24,6.6-35.7,10.5c-16.5,5.5-27.5,21.1-27.8,38.5c0,1.8,0.1,3.6-0.1,5.4c-0.3,4.5-3.5,7.7-7.4,7.7c-4,0.1-7-3-7.4-7.6
		c-2.3-25.3,13.7-50,37.9-58.1c9.1-3,18.4-5.9,27.7-8.4c10.6-2.8,20.9-6.4,30.6-11.5c3-1.6,6.4-2.3,10.4-3.7
		c0-5.8,0.6-12.4-0.3-18.8c-0.3-2.4-3.8-4.5-6.3-7.1c-0.5,1.6-0.9,2.5-1.1,3.3c-2.2,8-7.3,12.3-15.5,12.4c-10,0.2-20,0.2-30,0
		c-9.8-0.2-15.8-6.4-15.9-16.2c-0.1-10-0.1-20,0-30c0.1-9.7,6-15.5,15.7-15.7c5.4-0.1,10.8,0,15.6,0c-0.8-6.4-1.6-12.6-2.5-19.7
		c-3.5,0-7.5,0-11.5,0c-11.3-0.1-17.3-5.9-17.3-17.2c0-9.7-0.1-19.3,0-29c0.1-9.6,6.1-16.2,15.7-15.4c10.1,0.8,17.7-0.6,20.1-12
		c0.5-2.5,2.9-4.7,5-7.9c-3.1,0-5.6,0-8.1,0c-5.7,0-11.5,0.1-17.2,0c-9.2-0.2-15.4-6.4-15.5-15.5c-0.1-10.3-0.1-20.7,0-31
		c0.1-9.3,6.1-15.2,15.5-15.3c10-0.1,20-0.1,30,0c10,0.1,16.2,6.2,16.3,16.2c0.1,8.7,0,17.4,0,26.1c0,1.6,0,3.2,0,4.8
		c24.8-3.4,49.2-1.2,73.5-1.7c16.3-0.3,25.2,7.2,28.4,23.1c17.5,3.9,24.1,12.2,24.1,30.3c0,17.2-0.1,34.4,0,51.6
		c0.1,8.1-2.9,14.2-10.5,17.9c-1.1,0.5-2.2,1.9-2.5,3.1c-3.2,17.3-11.4,31.6-25.2,42.6c-0.9,0.7-1.7,2.1-1.7,3.3
		c-0.2,6-0.1,12.1-0.1,17.6c10.7,4.3,20.8,8.8,31.2,12.3c11,3.8,22.2,6.6,33.4,9.9c26.2,7.7,42.2,29.1,42.2,56.6
		c0,18.2,0,36.4,0,54.6c0,1.8,0,3.5,0,6c16-1.8,28.8,1.9,34.4,18.3c0,3.3,0,6.6,0,9.8c-3,9.5-9.2,15.7-18.7,18.7
		C617.7,791.8,462.3,791.8,306.9,791.8z M742.5,744.5c0-21.9,0.8-43.4-0.3-64.8c-0.9-17.7-10.9-30.3-27.8-36.3
		c-11.5-4.1-23.4-7.1-35.2-10.4c-1.1-0.3-2.9,0-3.6,0.8c-9.7,9.7-19.2,19.7-29.2,29.1c-2.5,2.3-6.7,2.7-10.2,4
		c-1.3,0.5-3.2,0.5-3.8,1.3c-2.5,3.9-4.9,7.7-3.9,13.1c3.8,19.7,7.3,39.5,10.6,59.3c0.6,3.4,1.9,4.2,5.1,4.2
		c16.1-0.1,32.1-0.1,48.2-0.1c1.2,0,2.5-0.2,3.5-0.3c0.2-0.5,0.3-0.7,0.3-0.8c0-4.6,0-9.2,0.1-13.8c0.1-5.2,3.2-8.5,7.6-8.4
		c4.3,0.1,7.1,3.3,7.1,8.3c0.1,4.9,0,9.7,0,14.8C721.9,744.5,732,744.5,742.5,744.5z M675.5,511.5c-1.1-0.3-1.7-0.5-2.3-0.6
		c-16.6-1.6-21.9-7.3-22.2-24.1c-0.1-7-2.8-9-9.7-6.9c-18.8,5.5-37.8,6.3-56.6,0.8c-11.7-3.4-13.8-1.1-13.4,10.1
		c0.3,10.9-7.5,18.9-18.3,19.9c-1.9,0.2-3.8,0.3-6.1,0.5c0,3.9-0.2,7.5,0.1,11c0.1,1.1,1.6,2.7,2.8,3c6.9,2.2,9.1,4.8,9.8,12.3
		c2.5,26,25.2,46.5,51.6,46.5c26.5,0,49.3-20.7,51.8-46.9c0.7-7.3,2.8-9.6,9.6-11.8c1.2-0.4,2.7-1.9,2.8-3
		C675.8,518.7,675.5,515.1,675.5,511.5z M540.3,759.8c-74.4,0-148.8,0-223.2,0c-1.8,0-3.6-0.1-5.4,0.1c-5.1,0.4-8.5,3.8-8.6,8.4
		c-0.1,4.6,3.6,8.4,8.8,8.8c1.1,0.1,2.3,0,3.4,0c149.8,0,299.6,0,449.4,0c1.9,0,4,0,5.8-0.5c4.3-1.2,6.7-4.4,6.4-8.8
		c-0.3-4.3-2.9-7.2-7.5-7.8c-1.9-0.2-3.9-0.2-5.9-0.2C689.1,759.8,614.7,759.8,540.3,759.8z M565.6,332.3c0-7.2,0-14.2,0-21.2
		c0-7.9-0.2-8.1-7.9-8.1c-68.8,0-137.7,0-206.5,0c-1.5,0-3.1-0.3-4.4,0.2c-1.3,0.5-3.3,1.9-3.3,2.9c-0.3,8.8-0.2,17.5-0.2,26.3
		C417.7,332.3,491.4,332.3,565.6,332.3z M418.9,744.5c0-28.8,0-57,0-85.2c-19.1,0-37.8,0-56.5,0c0,28.6,0,56.9,0,85.2
		C381.4,744.5,400,744.5,418.9,744.5z M547.4,495.5c7.7,0.8,9.1-0.4,9.2-7.9c0-1.1,0-2.3,0-3.4c0.5-13.8,12.5-23.4,25.6-19.5
		c19.4,5.8,38.5,5.9,57.9,0c8.4-2.5,15.9,0.2,21.5,7.1c3.8,4.8,4.4,10.3,4.3,16.2c-0.1,7.2,2.2,8.9,9.6,6.8c0-9.2,0.1-18.5,0-27.8
		c-0.1-8.4-3.3-11.8-11.6-12.7c-7.3-0.7-11.8-5.3-12.6-12.7c-0.8-7.4-4.4-10.9-11.8-10.9c-19.7-0.1-39.3-0.2-59,0
		c-17,0.2-30.7,11.1-32.8,28C546.2,470.9,547.4,483.3,547.4,495.5z M635.6,594.3c-16.5,6.2-32.3,5.9-48.8,0.1
		c0,5.8-0.3,10.7,0.1,15.5c0.2,2,1.3,4.4,2.8,5.6c6.2,5,12.8,9.6,19.2,14.5c2,1.5,3.5,1.9,5.6,0.2c6.2-5,12.7-9.8,18.9-14.9
		c1.1-0.9,2.1-2.6,2.1-4C635.7,606,635.6,600.6,635.6,594.3z M624.8,744.5c-3.5-20-6.9-39.4-10.5-58.8c-0.2-1.3-2-2.2-3.1-3.3
		c-1.1,1.2-3,2.4-3.2,3.8c-2.4,12.5-4.6,25-6.8,37.5c-1.2,6.8-2.3,13.7-3.5,20.8C607,744.5,615.6,744.5,624.8,744.5z M548.9,417.2
		c0-10.6,0-21,0-31.4c-10.6,0-20.8,0-31.2,0c0,10.6,0,21,0,31.4C528.2,417.2,538.4,417.2,548.9,417.2z M517.5,580.3
		c10.7,0,20.9,0,31.8,0c-0.8-9.8,1.8-19.5-2.2-28.8c-0.4-1-1.4-2.6-2.2-2.6c-9.1-0.2-18.2-0.1-27.4-0.1
		C517.5,559.6,517.5,569.7,517.5,580.3z M560.2,626.8c8.4,8.4,16.4,16.5,24.7,24.4c0.7,0.6,2.9,0.6,3.7,0c3.8-2.8,7.3-6,11.3-9.3
		c-6.6-5-13.4-9.2-19-14.5C574,620.9,567.8,621.1,560.2,626.8z M636.3,652.5c8.4-9.1,16.6-18,24.8-26.8c-2.1-0.9-4.8-2.4-7.7-3.3
		c-1.5-0.4-3.7-0.4-4.9,0.4c-8.3,6.1-16.3,12.5-24.7,19C627.9,645.4,631.9,648.8,636.3,652.5z M517.6,498.6c4.9,0,9.5,0,14.2,0
		c0-10.6,0-20.8,0-31.1c-4.9,0-9.5,0-14.2,0C517.6,478,517.6,488.3,517.6,498.6z M602.2,659.4c2.2,4.9,4,8.7,10.3,8
		c4.7-0.5,5.2-4,6.6-6.8c0.5-1-1.1-3.4-2.2-4.9c-3.2-4.1-6.5-4.8-10.2-0.3C605.6,656.9,603.8,658,602.2,659.4z"/>
	<path d="M454.5,370.7c5.4,0,10.8-0.1,16.2,0c8,0.3,14.1,5.9,14.4,13.9c0.4,11.1,0.4,22.3,0.1,33.4c-0.2,8.4-6.5,14.3-14.9,14.5
		c-10.5,0.2-21,0.2-31.4,0c-8.6-0.2-14.9-6.1-15.3-14.8c-0.4-10.8-0.4-21.6,0-32.4c0.3-8.8,6.5-14.4,15.3-14.6
		C444,370.6,449.3,370.7,454.5,370.7C454.5,370.7,454.5,370.7,454.5,370.7z M469.9,417.2c0-10.6,0-21.1,0-31.4
		c-10.7,0-20.9,0-31.1,0c0,10.6,0,20.9,0,31.4C449.3,417.2,459.4,417.2,469.9,417.2z"/>
	<path d="M454.5,452.3c5.2,0,10.5-0.1,15.7,0c8.3,0.2,14.6,5.6,14.9,13.8c0.4,11.3,0.4,22.6,0,33.9c-0.3,8-6.5,13.8-14.8,14
		c-10.5,0.3-21,0.2-31.4,0c-8.7-0.2-15-6-15.3-14.7c-0.4-10.8-0.4-21.6,0-32.4c0.3-9,6.6-14.5,15.8-14.6
		C444.3,452.3,449.4,452.3,454.5,452.3z M470,467.5c-10.7,0-20.9,0-31.2,0c0,10.5,0,20.8,0,31.3c10.5,0,20.7,0,31.2,0
		C470,488.3,470,478,470,467.5z"/>
	<path d="M485.3,565c0,5.1,0.1,10.2,0,15.2c-0.3,9.1-6,15.2-15,15.5c-10.5,0.4-21,0.3-31.4,0c-9-0.3-15.1-6.3-15.3-15.3
		c-0.3-10.5-0.3-21,0-31.4c0.3-9.3,6.5-15,15.8-15.1c10.1-0.1,20.3-0.1,30.4,0c9.4,0.1,15.2,5.9,15.5,15.4
		C485.4,554.5,485.3,559.8,485.3,565z M470.1,549.1c-10.8,0-21.1,0-31.2,0c0,10.6,0,20.8,0,31.2c10.6,0,20.8,0,31.2,0
		C470.1,569.8,470.1,559.6,470.1,549.1z"/>
	<path d="M406.2,565c0,4.9,0,9.8,0,14.7c-0.1,9.3-5.8,15.6-15,15.9c-10.5,0.4-21,0.3-31.4,0c-9.4-0.3-15.3-6.8-15.4-16.3
		c-0.1-9.8-0.1-19.6,0-29.5c0.1-9.7,6.2-15.9,15.9-16c10-0.1,20-0.1,30,0c9.9,0.1,15.8,6,15.9,15.9
		C406.3,554.9,406.2,559.9,406.2,565z M359.7,548.9c0,10.7,0,20.9,0,31.4c10.7,0,21,0,31.4,0c0-10.7,0-21,0-31.4
		C380.6,548.9,370.4,548.9,359.7,548.9z"/>
	<path d="M406.2,483.3c0,5.1,0.1,10.2,0,15.2c-0.1,8.9-6,15.3-14.9,15.6c-10.6,0.3-21.3,0.3-31.9,0c-8.8-0.2-14.9-6.8-15-15.6
		c-0.1-10.3-0.2-20.6,0-30.9c0.2-8.8,6.5-15.1,15.3-15.2c10.5-0.1,21-0.1,31.4,0c8.9,0.1,14.9,6.2,15.1,15.2
		C406.3,472.8,406.2,478,406.2,483.3z M391.2,467.4c-10.7,0-21,0-31.4,0c0,10.6,0,20.9,0,31.4c10.7,0,20.9,0,31.4,0
		C391.2,488.2,391.2,478,391.2,467.4z"/>
	<path d="M406.2,401.8c0,5.1,0.1,10.2,0,15.2c-0.1,8.8-6.2,15.3-15,15.5c-10.5,0.2-21,0.2-31.4,0c-9-0.2-15.3-6.7-15.4-15.8
		c-0.1-10.1-0.1-20.3,0-30.4c0.1-9.1,6.4-15.4,15.4-15.5c10.5-0.1,21-0.2,31.4,0c8.9,0.1,14.8,6.3,14.9,15.3
		C406.3,391.4,406.2,396.6,406.2,401.8z M391.1,417.1c0-10.7,0-21.1,0-31.4c-10.7,0-20.9,0-31.4,0c0,10.5,0,20.8,0,31.4
		C370.2,417.1,380.5,417.1,391.1,417.1z"/>
</g>
</svg>
