<?xml version="1.0" encoding="utf-8"?>
<!-- Generator: Adobe Illustrator 22.0.1, SVG Export Plug-In . SVG Version: 6.00 Build 0)  -->
<svg version="1.1" id="Layer_1" xmlns="http://www.w3.org/2000/svg" xmlns:xlink="http://www.w3.org/1999/xlink" x="0px" y="0px"
	 viewBox="0 0 1080 1080" style="enable-background:new 0 0 1080 1080;" xml:space="preserve">
<style type="text/css">
	.st0{fill:none;}
</style>
<path d="M532.2,288.1c6.6,0,13.1,0,19.7,0c0.9,0.3,1.8,0.8,2.8,0.9c34.2,5.6,57.8,24.5,71.3,56.3c0.9,2.2,2.1,4.5,3.7,6.3
	c13.8,15.8,27.5,31.7,41.5,47.3c59.8,66.5,89.4,144.5,89.2,233.9c-0.1,30.3-0.1,60.7,0.1,91c0,2.5,1.4,5.2,2.8,7.3
	c9.5,14.1,19.2,28.1,28.8,42.1c0,2.3,0,4.6,0,6.9c-3.9,8.8-10.8,11.5-20.1,11.2c-14.9-0.5-29.8-0.1-44.7,0
	c-56.7,0.2-113.4,0.4-170.2,0.5c-84.4,0.1-168.9,0.1-253.3,0.2c-6,0-10.5-2.4-13.4-7.5c-3-5.1-3-10.6,0.6-15.3
	c10.1-13.5,20.5-26.8,30.6-40.3c1.5-2,2.8-4.8,2.8-7.3c0.2-30.7-0.3-61.3,0.3-92c0.4-18.3,1.4-36.7,4.1-54.8
	c8.4-56.8,30.5-108.2,66.1-153.3c18.1-22.9,38.1-44.2,57-66.4c3-3.5,5.6-7.6,7.5-11.9c10.2-23,26.6-39.5,50-48.8
	C516.5,291.6,524.5,290.2,532.2,288.1z M436.6,520.4c1.2,14.2,0.9,28.2,3.9,41.4c11.6,52,58.9,84.8,111.9,78.7
	c43.4-5,80.2-39,87-82.1c2.5-15.7,1.6-32,2.1-48c0.1-3.9,0-7.8,0-11.7c-21-3.6-38.8-12.9-54.9-26
	C543.6,509.3,492.4,519.2,436.6,520.4z M617.9,687.6c17.2,0,33.6,0,50,0c15.1,0,29.6,2.9,43.6,8.2c6.2,2.4,12.2,5.3,18.8,8.2
	c0-2.2,0-4,0-5.8c0-22.8,0.4-45.6-0.1-68.3c-0.4-15.7-1.2-31.5-3.3-47c-6.4-48-24.3-91.7-51.8-131.6c-2-2.8-4-5.6-6.1-8.3
	c-2.1-2.7-4.2-5.4-6.4-8c-0.3,1.7,0,2.9,0.5,4.1c5,13.8,7.8,28,7.8,42.7c0,19.5,0,39,0,58.5c0,3.9,0,7.9-0.4,11.8
	c-4.1,37.1-20.7,67.4-49.8,90.9c-1.2,0.9-2.6,2.5-2.7,3.8C617.9,660.2,617.9,673.6,617.9,687.6z M354,703.5
	c13.3-6.8,26.2-12.6,40.1-13.7c19.6-1.6,39.2-1.6,58.9-2.2c2.6-0.1,5.2,0,8.3,0c0-12.7-0.2-25,0.1-37.2c0.1-3.9-1.3-6.2-4.2-8.6
	c-30.9-25.7-47.7-58.5-48.8-98.9c-0.5-16.2-0.2-32.5-0.1-48.7c0.1-9.3,0.3-18.7,1.2-28c0.6-6.3,2.3-12.6,3.5-18.8
	c-0.4-0.2-0.8-0.4-1.2-0.6c-7.2,11.9-14.8,23.5-21.4,35.7c-20.8,38.4-33,79.4-35.3,123c-1.2,22.1-0.8,44.2-1,66.4
	C353.9,682.2,354,692.5,354,703.5z M438,491.2c12.5-1.1,24.7-1.9,36.9-3.3c38.2-4.3,72.2-17.7,100.3-44.9c8.4-8.1,16-7.6,24.3,0.8
	c10,10.2,21.6,18,35.3,22.5c1.6,0.5,3.3,0.8,5.1,1.3c-5.8-43.6-47.4-90.2-109.6-85.1C475.9,387.2,433.8,436.5,438,491.2z
	 M429.8,717.2c-0.2,0.4-0.5,0.9-0.7,1.3c7.1,5.1,14,10.6,21.3,15.4c37.8,25,78.8,34.1,123.6,24.7c33.9-7.1,64.7-21.6,93.8-40.1
	c0.3-0.2,0.3-0.7,0.6-1.4c-21.8,0-43.2,0.1-64.7,0c-8.9,0-15.1-6.3-15.3-15.1c-0.1-4.1,0-8.2,0-12.3c0-9.1,0-18.2,0-27.8
	c-32.8,12.3-65.1,12.2-97.6,0c0,13.4,0,26,0,38.6c0,10.8-5.9,16.6-16.7,16.6C459.3,717.2,444.5,717.2,429.8,717.2z M600.7,367.4
	c0.6-23.8-28.6-49.1-57.1-49.8c-28.3-0.7-58.8,23.3-59.4,47C523.5,347.7,562.3,348.6,600.7,367.4z M438.6,762.2
	c-1.6-1.3-2.1-1.9-2.8-2.3c-16.3-10.5-31.2-22.8-44.8-36.6c-1.1-1.1-3.8-1.5-5.4-1.1c-11.2,3.5-21.4,8.9-30.7,16.1
	c-8.5,6.7-15.9,14.3-22.1,23.9C368.1,762.2,402.6,762.2,438.6,762.2z M749,761.4c-9.9-14.5-22-25-36.5-32.8c-3.1-1.7-5-1.2-7.9,0.6
	c-15.7,10.1-31.5,19.9-47.3,29.9c-1,0.6-1.9,1.3-3.6,2.4C685.9,761.4,717,761.4,749,761.4z"/>
</svg>
