<?xml version="1.0" encoding="utf-8"?>
<!-- Generator: Adobe Illustrator 22.0.1, SVG Export Plug-In . SVG Version: 6.00 Build 0)  -->
<svg version="1.1" id="Layer_1" xmlns="http://www.w3.org/2000/svg" xmlns:xlink="http://www.w3.org/1999/xlink" x="0px" y="0px"
	 viewBox="0 0 1080 1080" style="enable-background:new 0 0 1080 1080;" xml:space="preserve">
<style type="text/css">
	.st0{fill:none;}
</style>
<g>
	<path d="M458.9,510.3c0-2.9,0-5.1,0-7.4c0-55.6,0-111.1-0.1-166.7c0-4.3,1.2-7.5,4.3-10.6c14.2-14.3,28.2-28.9,42.5-43
		c2.3-2.2,6.2-3.9,9.3-3.9c81.5-0.2,162.9-0.2,244.4-0.2c7.6,0,9,1.4,9,8.9c0,71.8,0,143.5,0,215.3c0,2.3,0,4.5,0,7.3
		c2.1,0.1,3.9,0.3,5.7,0.3c12.6,0,25.1,0,37.7,0c5.7,0,7.8,2.3,8,8c0,0.8,0,1.5,0,2.3c0,74.8,0,149.6,0.1,224.4
		c0,4.5-1.2,7.9-4.5,11.1c-13.9,13.6-27.6,27.3-41.2,41.2c-3,3.1-6.2,4.3-10.6,4.3c-164.6-0.1-329.3-0.1-493.9-0.1
		c-8.2,0-9.5-1.3-9.5-9.7c0-75,0-150-0.1-225c0-4.3,1.2-7.5,4.3-10.6c14-13.8,27.8-27.7,41.5-41.7c3-3.1,6.2-4.4,10.5-4.4
		c44.9,0.1,89.8,0.1,134.7,0.1C453.5,510.3,455.8,510.3,458.9,510.3z M524,787.4c26.7,0,52.6,0,78.8,0c0-1.5,0-2.7,0-3.8
		c0-16.7-0.2-33.5,0.2-50.2c0.1-2.5,2-6.2,4-7.1c2-0.9,5.6,0.6,7.8,2.1c1.8,1.3,2.6,4.1,3.8,6.1c11.9-11,11.9-11,23.5-1.6
		c10.4-8.9,10.4-8.9,22.5,0.3c1.5-1.6,2.7-3.9,4.6-4.9c2.4-1.3,5.9-2.8,8-2c2.1,0.8,3.8,4.4,4.3,7c0.7,3.9,0.2,8,0.2,12
		c0,14,0,28,0,42.2c26.2,0,51.7,0,77.3,0c0-72.3,0-144.3,0-216.2c-25.2,0-50,0-75,0c0,11.5,0,22.5,0,33.5c0,7.3-2.2,9.4-9.6,9.4
		c-15.6,0-31.2,0.2-46.8-0.1c-8.2-0.1-16.4-1-24.7-1.6c-4.6-8-1.4-16.7-2.2-25.1c-0.5-5.4-0.1-10.9-0.1-16.2c-25.9,0-51.1,0-76.6,0
		c0,2.9,0,5.3,0,7.8c0,10.5,0,20.9,0,31.4c0,4.6-2.5,7.2-7.1,7.1c-4.3-0.1-6.5-2.8-6.6-7.1c0-1.7,0-3.4,0-5.1c0-11.4,0-22.7,0-34.2
		c-25.8,0-51,0-76.6,0c0,11.4,0,22.4,0,33.4c0,7.2-2.4,9.6-9.5,9.6c-19,0-38.1-0.1-57.1,0.1c-18,0.2-18.2,0.2-17.9-17.8
		c0.1-8.5,0-16.9,0-25.3c-25.6,0-50.2,0-75.1,0c0,72.3,0,144.3,0,216.3c25.9,0,51.5,0,77.3,0c0-2.3,0-4.2,0-6
		c0-15.6,0.1-31.2,0-46.8c0-3.9,0.6-8,4.8-8.5c2.8-0.3,6.1,1.6,8.9,3.1c1.5,0.8,2.4,2.9,3.4,4.3c11.7-9.2,11.7-9.2,23-0.7
		c10.4-8.6,10.4-8.6,22.7,0.6c0.9-1.1,1.7-2.4,2.8-3.5c2.6-2.8,5.2-5.7,9.8-4c4.8,1.9,4.6,5.9,4.6,10c-0.1,14.3,0,28.5,0,42.8
		c0,3,0,5.9,0,8.9c26.7,0,52.5,0,78.8,0c0-2.1,0-4,0-5.8c0-17.5,0-35,0-52.5c0-22.6,0-45.3,0-67.9c0-1.1,0-2.3,0-3.4
		c-0.2-4.7,1.7-7.8,6.6-8.1c4.5-0.3,7,2.7,7,8.3c0,31.8,0,63.6,0,95.3C524,764.6,524,775.8,524,787.4z M708.6,556.9
		c0-72.8,0-145.2,0-217.4c-25.6,0-50.8,0-76.1,0c0,11.3,0,22.1,0,33c0,7-1.8,8.8-8.7,8.8c-21.5,0-43,0-64.5,0
		c-9,0-10.1-1.1-10.1-10.2c0-10.6,0-21.1,0-31.6c-26,0-51.2,0-76.3,0c0,72.7,0,144.9,0,217.3c26.2,0,52.2,0,78.3,0
		c0.1-1.3,0.2-2.2,0.2-3.1c0-17.3-0.2-34.6,0.2-51.9c0.1-2.7,2-6.7,4.1-7.6c2.1-0.9,5.9,1,8.3,2.6c1.7,1.1,2.4,3.7,3.5,5.6
		c11.5-10.6,11.5-10.6,23.4-1.4c10.5-9.6,10.5-9.6,22.2,0.5c1.6-1.8,2.9-4.2,4.9-5.4c2.2-1.3,5.7-2.9,7.5-2c2.1,1,4.2,4.4,4.4,6.9
		c0.6,7.8,0.2,15.6,0.2,23.4c0,10.8,0,21.6,0,32.6C656.6,556.9,682.4,556.9,708.6,556.9z M772.9,776.3c0.6,0.4,1.2,0.9,1.7,1.3
		c9.5-9.8,19-19.5,28.3-29.5c1.7-1.8,3-4.9,3-7.3c0.2-67.1,0.1-134.3,0.1-201.4c0-1.4-0.3-2.7-0.4-4.1c-0.5-0.3-1.1-0.7-1.6-1
		c-9,9.5-17.9,19.1-27.2,28.4c-3,3-4,5.9-4,10c0.1,61.2,0.1,122.5,0.1,183.7C772.9,763,772.9,769.7,772.9,776.3z M722.7,544.7
		c-0.3-0.5-0.5-1-0.8-1.5c9.9-8.9,19.9-17.7,29.5-26.9c1.9-1.8,3.2-5.2,3.2-7.8c0.2-67,0.1-133.9,0.1-200.9c0-1.6-0.2-3.1-0.3-4.7
		c0.3,0.5,0.6,1,0.9,1.5c-9.7,8.9-19.5,17.5-28.9,26.7c-2.1,2.1-3.5,5.9-3.5,8.9c-0.2,66.4-0.1,132.8-0.1,199.2
		C722.7,541,722.7,542.9,722.7,544.7z M745.1,292.8c-2.2-0.3-3.4-0.6-4.6-0.6c-32.2,0-64.3-0.1-96.5,0.1c-2.1,0-4.8,1.2-6.3,2.7
		c-9.2,8.9-18.1,17.9-27.1,27c-0.8,0.8-1.4,1.9-2.4,3.3c34.3,0,67.8,0,101.3-0.1c1.5,0,3.4-0.7,4.5-1.7
		C724.2,313.6,734.3,303.5,745.1,292.8z M283.9,556.4c1.4,0.4,1.9,0.7,2.4,0.7c33.1,0,66.1,0,99.2,0c1.4,0,3.2-0.3,4.1-1.2
		c10.4-10.1,20.8-20.4,31.6-31.1c-1.5-0.5-2-0.8-2.5-0.8c-33.1,0-66.1,0-99.2,0c-1.4,0-3.2,0.4-4.1,1.3
		C304.9,535.4,294.6,545.7,283.9,556.4z M483.5,325.3c3.6,0,5.6,0,7.7,0c28.9,0,57.8-0.3,86.7,0.2c7.1,0.1,12-2,16.7-7.1
		c8.1-8.6,16.9-16.6,26.1-25.6c-2.1-0.4-2.6-0.6-3.2-0.6c-32.9,0-65.8,0-98.7,0c-1.6,0-3.6,0.5-4.6,1.5
		C504.3,303.8,494.4,314,483.5,325.3z M565.4,556.8c17.1,0,33.9,0,50.9,0c0-13.1,0-26,0-37.8c-3.1-1-6.1-1.3-8.2-2.9
		c-2.2-1.6-3.5-4.4-4.6-5.8c-5.3,3.3-9.1,7.5-12.7,7.4c-3.9-0.1-7.7-4.3-11.7-6.8c-4,3.2-6.6,9.4-13.7,7
		C565.4,531.2,565.4,543.9,565.4,556.8z M365.4,787.4c17.7,0,34.9,0,52.1,0c0-12.7,0-24.9,0-37.8c-7.8,3.1-10.5-3.8-15-7.1
		c-11.5,11.1-11.4,10.1-22.1,0c-4.5,3.4-7.5,9.9-15,7.3C365.4,762.8,365.4,774.9,365.4,787.4z M616.7,787.4c17.4,0,34.2,0,50.9,0
		c0-12.7,0-25,0-37.9c-7.6,3.3-9.9-4.1-14.5-6.6c-10.5,8.6-10.5,8.6-21.4,0.5c-5,2.9-9.6,5.6-15,8.8
		C616.7,762.8,616.7,774.9,616.7,787.4z M419.7,600.4c0-10.1,0-19.7,0-29.2c-19.1,0-37.8,0-56.3,0c0,10,0,19.6,0,29.2
		C382.4,600.4,400.8,600.4,419.7,600.4z M614.5,600.1c18.8,0,37.1,0,55.3,0c0-10,0-19.6,0-29c-18.7,0-36.8,0-55.3,0
		C614.5,580.8,614.5,590.3,614.5,600.1z M563.1,367.1c18.8,0,37.1,0,55.3,0c0-9.6,0-18.8,0-27.9c-18.7,0-36.8,0-55.3,0
		C563.1,348.6,563.1,357.7,563.1,367.1z M458.7,524c-4.7,0-8.8-0.1-13,0.1c-2,0.1-4.5,0.1-5.8,1.3c-10.5,10.1-20.7,20.4-31.8,31.4
		c17.6,0,34,0,50.5,0C458.7,545.9,458.7,535.3,458.7,524z M795.8,525.4c-0.3-0.5-0.6-1-0.9-1.5c-5.3,0-10.7,0.6-15.8-0.1
		c-11.2-1.7-19.5,2.4-26.6,10.9c-6.5,7.8-13.9,14.7-21.3,22.4c10.2,0,20.3,0,30.3-0.1c1.2,0,2.6-0.6,3.5-1.4
		C775.3,545.6,785.5,535.5,795.8,525.4z"/>
	<path d="M291.1,659.9c0-12,0-24,0-35.9c0-5.7,2.4-8.6,6.8-8.6c4.4,0,6.8,2.9,6.8,8.6c0,24,0,47.9,0,71.9c0,5.7-2.4,8.5-6.9,8.5
		c-4.5,0-6.8-2.8-6.8-8.6C291.1,683.8,291.1,671.9,291.1,659.9z"/>
	<path d="M304.7,597.8c0.3,4.7-0.4,9.1-6.2,9.3c-2.2,0.1-6-1.8-6.3-3.4c-0.8-4.5-0.8-9.3,0.1-13.8c0.3-1.5,4.3-3.3,6.4-3.1
		C305.4,587.5,304.8,592.9,304.7,597.8z"/>
</g>
</svg>
