<?xml version="1.0" encoding="utf-8"?>
<!-- Generator: Adobe Illustrator 22.0.1, SVG Export Plug-In . SVG Version: 6.00 Build 0)  -->
<svg version="1.1" id="Layer_1" xmlns="http://www.w3.org/2000/svg" xmlns:xlink="http://www.w3.org/1999/xlink" x="0px" y="0px"
	 viewBox="0 0 1080 1080" style="enable-background:new 0 0 1080 1080;" xml:space="preserve">
<style type="text/css">
	.st0{fill:none;}
</style>
<path d="M450.4,791.9c-6.2-3.5-5.2-9.9-6.1-16.1c-2.9,0-5.7,0-8.4,0c-18-0.2-36.1-0.1-54.1-0.7c-18.5-0.6-29.8-14-32.8-30.3
	c-2.1-11.2-0.2-22.2,1.4-33.2c4.1-28,8.2-56,12.6-84c1.7-10.7,3.4-21.4,6.1-31.8c4.5-17.7,15.8-29.9,32.4-37.1
	c7.9-3.4,16.2-6.1,24.4-8.9c2.8-1,4.2-2.1,4-5.4c-0.4-9.7,0.2-10.3,9.6-13.8c7.1-2.6,14.1-5.2,21.2-7.7c8.5-3.1,11.1-1.9,14.5,6.8
	c0.2,0.6,0.7,1.1,1.2,2c6.8-2.4,13.5-4.9,20.3-7.3c0.6-0.2,1.3-0.4,1.7-0.9c1.5-1.8,0.3-12.2-1.6-13.8c-13.5-11.5-22-25.8-25-43.3
	c-0.1-0.6-0.4-1.2-0.7-2c-12.4-0.9-22.3-6.3-28.2-17.5c-6.4-12.2-4.9-23.9,2.8-35.2c1.6-2.3,2.6-5.5,2.8-8.3
	c0.9-12.7,0.2-25.7,2.1-38.2c6.1-39.2,39.9-71.1,79.6-76.2c50.4-6.4,95.6,25.3,105.4,75.2c2.6,13,1.4,26.8,2.1,40.1
	c0.1,2.3,0.9,4.9,2.3,6.6c8,10.2,9.8,21.5,4.9,33.3c-5,11.9-14.5,18.7-27.6,20c-0.6,0.1-1.3,0.2-2.2,0.3
	c-2.6,15.8-9.2,29.6-20.6,40.9c-0.8,0.8-1.5,1.8-2.5,2.3c-6.5,3.4-4.5,9.4-4.5,14.7c0,0.6,1,1.6,1.8,1.9c3,1.2,6.1,2.2,9,3.2
	c6.4-8.6,7.4-8.9,17.4-5.1c7.8,2.9,15.6,5.9,23.4,8.9c7.8,3,9.1,5.2,7.7,13.7c10.2,3.6,20.6,7,30.8,11
	c28.7,11.6,48.8,30.8,53.8,62.8c0.6,4,0.7,8.2,0.7,12.2c0,50,0,100,0.1,150.1c0,4.6-1.1,8.3-5,10.9c-44.9,0-89.9,0-134.8,0
	c-9.2-2.7-18.4-5.6-25.2-12.8c-3.2-3.3-6.4-3.8-10.9-2.6c2.7,6,3.2,11.6-3.2,15.5C518.6,791.9,484.5,791.9,450.4,791.9z
	 M611.2,537.9c-9.6,17.5-19,34.7-28.4,51.9c-17.7,32.3-35.4,64.6-53,97c-3.2,5.9-2.2,7.5,4.5,7.5c13.1,0,26.2-0.1,39.4,0.1
	c3.4,0.1,4.8-1.1,5.8-4.2c6.4-19.1,13-38.1,19.5-57.1c0.6-1.8,1.2-3.8,2.3-5.4c2.1-3.2,5.2-4.5,8.9-3.2c3.7,1.2,5.7,3.8,5.4,7.8
	c-0.1,1.8-0.6,3.5-1.2,5.2c-5,14.7-10.1,29.4-15.1,44.1c-1.4,4.1-2.7,8.2-4.1,12.7c21.8-0.3,38.3,8,48,27.3
	c9.7,19.2,6,37.3-6.7,54.1c6.6,0,12.6,0,18.9,0c0-2.3,0-4.3,0-6.3c0-33.1,0-66.3,0-99.4c0-1.8,0-3.6,0.3-5.4
	c0.6-4.5,3.2-7.1,7.8-7.4c4-0.2,7.5,3.2,8.1,7.7c0.2,1.5,0.1,2.9,0.1,4.4c0,33.5,0,66.9,0,100.4c0,1.9,0,3.8,0,6c15,0,29.5,0,44.3,0
	c0-2,0-3.6,0-5.2c0-46.1-0.1-92.2,0-138.3c0.1-27.3-13.2-46.1-36.9-57.8c-9.9-4.9-20.7-8-31.1-11.9c-2.2-0.8-4.5-1.5-7.1-2.4
	c-3.3,9.6-6.4,18.7-9.5,27.8c-2.9,8.4-5.7,16.7-8.7,25c-1.4,4-4.5,6.1-8.8,5.5c-3.9-0.6-6.2-3.2-6.6-6.9c-0.2-2.1,0.6-4.5,1.3-6.6
	c6.3-18.8,12.6-37.5,19.2-56.2c1.2-3.4,0.4-4.7-2.7-5.7C620.7,541.6,616.3,539.8,611.2,537.9z M581,379.6
	c-29.1,17.8-60.2,26.9-94.2,25.5c0,16.6-0.1,32.5,0,48.4c0.2,31.3,23,55.1,54.3,56.5c31.3,1.4,57.3-23.1,58-52.4
	c0.5-18.5,0.3-37.1,0.3-55.6c0-1.3-0.5-3-1.4-4C592.5,391.9,586.9,385.9,581,379.6z M440.3,710.2c-4.5,0-8.4,0.1-12.3,0
	c-5.4-0.1-8.9-3.1-9.1-7.7c-0.2-4.8,3.3-8,9-8.2c3.7-0.1,7.4,0,11.3,0c-2.8-43.5-5.5-86.1-8.3-129.4c-8.7,3.2-16.6,5.5-24,8.8
	c-12,5.4-20.3,14.4-22.7,27.7c-4.1,22.8-8.1,45.7-11.7,68.7c-3.1,19.9-6.5,39.8-8.3,59.8c-1.8,19.9,5.7,30.7,25.6,29.7
	c16-0.7,32.1-0.2,48.2-0.2c1.7,0,3.4,0,5.3,0C442.4,742.7,441.4,726.8,440.3,710.2z M461.5,539.8c-4,1.4-7.6,3-11.3,4
	c-3.3,0.9-4.2,2.6-3.9,6c1.2,15.8,2.1,31.7,3.1,47.6c1.4,22.7,2.8,45.5,4.3,68.2c1.9,29.3,3.7,58.5,5.6,87.8
	c0.5,7.5,1,14.9,1.6,22.4c26.2,0,51.9,0,78.1,0C513,696.9,487.3,618.5,461.5,539.8z M621.3,399.3c2.9-33.9-5.7-63.1-35.3-82.2
	c-28.4-18.3-58.2-18.2-86.4,0.4c-29,19.2-37.6,48-34.3,81.7c1.7-0.1,3.2-0.2,4.6-0.2c3-10.3,4-10.7,14.7-10.5
	c9.1,0.2,18.4,0.7,27.4-0.5c23.2-3.2,44.6-11.4,64.2-24.3c5.9-3.9,8.9-3.4,13.7,1.8c6.6,7.1,13.3,14,19.7,21.3
	c3,3.4,5.2,7.5,7.8,11.3c-0.3,0.3-0.6,0.6-0.9,0.9C617.9,399.1,619.5,399.2,621.3,399.3z M520.8,669c1.2-1.8,2-3,2.6-4.2
	c21.7-39.6,43.4-79.3,65.1-118.9c0.4-0.7,1.2-1.5,1.1-2.1c-0.1-1-0.8-2-1.2-3c-2.3,2.7-3.8,5.1-5.9,6.7
	c-10.9,8.5-21.8,16.8-32.8,25.1c-5.2,4-7.9,3.9-13.2-0.1c-10.2-7.7-20.3-15.5-30.6-23.2c-3-2.2-6.5-3.9-9.7-5.8
	c0.7-0.9,1.5-1.7,2.2-2.6c-5.8,2.1-11.5,4.2-17.4,6.3C494.2,587.9,507.4,628.1,520.8,669z M566.2,757.5c4,3.2,7.2,5.4,9.8,8.1
	c7.7,7.7,16.7,11.1,27.5,9.8c16.4-1.9,28.7-15.5,28.9-31.9c0.2-16.1-11.7-30.8-27.7-32.4c-12.5-1.2-25.2-0.6-37.8-0.7
	c-0.2,0-0.5,0.4-0.9,0.7C566.2,726.9,566.2,742.8,566.2,757.5z M515.1,520.9c0,4.5-0.2,8.3,0.1,12c0.2,1.7,1.1,3.8,2.4,4.9
	c7.5,6,15.2,11.9,23.1,17.6c1.1,0.8,3.8,0.7,4.9-0.1c8-5.8,15.7-11.8,23.5-17.8c0.9-0.7,2-2,2.1-3c0.2-4.3,0.1-8.7,0.1-13.7
	C552.4,527.9,534.1,527.8,515.1,520.9z M615.9,415.2c0,11.1,0,21.8,0,32.5c8.8-0.7,15.2-7.2,15.5-15.6
	C631.6,423.6,625.6,416.8,615.9,415.2z M470.2,415.3c-10,1.3-15.7,8.1-15.1,17.7c0.5,8.2,6.9,14.4,15.1,14.4
	C470.2,436.8,470.2,426.1,470.2,415.3z M534.4,710.4c5,15.2,9.8,29.7,14.6,44.3c0.2-0.1,0.4-0.2,0.6-0.2c0-14.6,0-29.3,0-44
	C544.5,710.4,539.8,710.4,534.4,710.4z"/>
</svg>
